<mxfile host="65bd71144e">
    <diagram id="7h4RL0kXQSGNn4IFTRL9" name="Solution Diagram - API Federation scope">
        <mxGraphModel dx="623" dy="752" grid="0" gridSize="10" guides="1" tooltips="1" connect="1" arrows="1" fold="1" page="1" pageScale="1" pageWidth="1100" pageHeight="850" background="#FFFFFF" math="0" shadow="0">
            <root>
                <mxCell id="0"/>
                <mxCell id="1" parent="0"/>
                <mxCell id="288" style="edgeStyle=orthogonalEdgeStyle;rounded=0;orthogonalLoop=1;jettySize=auto;html=1;fontColor=#FFFFFF;strokeColor=#595959;endArrow=block;endFill=1;strokeWidth=2;labelBackgroundColor=#ffffff;endSize=3;startSize=3;jumpSize=3;entryX=1;entryY=0.5;entryDx=0;entryDy=0;exitX=0;exitY=0.5;exitDx=0;exitDy=0;" parent="1" source="265" target="278" edge="1">
                    <mxGeometry relative="1" as="geometry">
                        <mxPoint x="705" y="492" as="targetPoint"/>
                        <mxPoint x="650" y="436" as="sourcePoint"/>
                        <Array as="points">
                            <mxPoint x="705" y="474"/>
                            <mxPoint x="705" y="440"/>
                        </Array>
                    </mxGeometry>
                </mxCell>
                <mxCell id="170" value="&lt;p style=&quot;margin-top: 6pt ; margin-bottom: 0pt ; margin-left: 0in ; direction: ltr ; unicode-bidi: embed ; vertical-align: baseline ; word-break: normal ; font-size: 14px&quot;&gt;&lt;br&gt;&lt;/p&gt;" style="rounded=0;whiteSpace=wrap;html=1;align=left;fontStyle=1;verticalAlign=top;strokeColor=#0A6ED1;fillColor=none;strokeWidth=2;fontSize=14;fontFamily=Arial;container=1;recursiveResize=0;collapsible=0;fontColor=#595959;" parent="1" vertex="1">
                    <mxGeometry x="53" y="232" width="602" height="315" as="geometry"/>
                </mxCell>
                <mxCell id="173" value="" style="shape=image;verticalLabelPosition=bottom;labelBackgroundColor=#ffffff;verticalAlign=top;aspect=fixed;imageAspect=0;image=data:image/svg+xml,PHN2ZyB4bWxucz0iaHR0cDovL3d3dy53My5vcmcvMjAwMC9zdmciIHhtbG5zOnhsaW5rPSJodHRwOi8vd3d3LnczLm9yZy8xOTk5L3hsaW5rIiBpZD0iTGF5ZXJfMSIgZGF0YS1uYW1lPSJMYXllciAxIiB2aWV3Qm94PSIwIDAgNDEyLjM4IDIwNCI+PGRlZnM+PHN0eWxlPi5jbHMtMSwuY2xzLTJ7ZmlsbC1ydWxlOmV2ZW5vZGQ7fS5jbHMtMXtmaWxsOnVybCgjbGluZWFyLWdyYWRpZW50KTt9LmNscy0ye2ZpbGw6I2ZmZjt9LmNscy0ze2ZpbGw6IzFlNWZiYjt9PC9zdHlsZT48bGluZWFyR3JhZGllbnQgaWQ9ImxpbmVhci1ncmFkaWVudCIgeDE9IjIwNi4xOSIgeDI9IjIwNi4xOSIgeTI9IjIwNCIgZ3JhZGllbnRVbml0cz0idXNlclNwYWNlT25Vc2UiPjxzdG9wIG9mZnNldD0iMCIgc3RvcC1jb2xvcj0iIzAwYjhmMSIvPjxzdG9wIG9mZnNldD0iMC4wMiIgc3RvcC1jb2xvcj0iIzAxYjZmMCIvPjxzdG9wIG9mZnNldD0iMC4zMSIgc3RvcC1jb2xvcj0iIzBkOTBkOSIvPjxzdG9wIG9mZnNldD0iMC41OCIgc3RvcC1jb2xvcj0iIzE3NzVjOCIvPjxzdG9wIG9mZnNldD0iMC44MiIgc3RvcC1jb2xvcj0iIzFjNjViZiIvPjxzdG9wIG9mZnNldD0iMSIgc3RvcC1jb2xvcj0iIzFlNWZiYiIvPjwvbGluZWFyR3JhZGllbnQ+PC9kZWZzPjx0aXRsZT5TQVBfZ3JhZF9SWmVpY2hlbmZsw6RjaGUgMTwvdGl0bGU+PHBvbHlsaW5lIGNsYXNzPSJjbHMtMSIgcG9pbnRzPSIwIDIwNCAyMDguNDEgMjA0IDQxMi4zOCAwIDAgMCAwIDIwNCIvPjxwYXRoIGNsYXNzPSJjbHMtMiIgZD0iTTI0NC43MywzOC4zNmwtNDAuNiwwdjk2LjUyTDE2OC42NywzOC4zM0gxMzMuNTFsLTMwLjI3LDgwLjcyQzEwMCw5OC43LDc5LDkxLjY3LDYyLjQsODYuNCw1MS40Niw4Mi44OSwzOS44NSw3Ny43Miw0MCw3MmMuMDktNC42OCw2LjIzLTksMTguMzgtOC4zOCw4LjE3LjQzLDE1LjM3LDEuMDksMjkuNzEsOGwxNC4xLTI0LjU1Qzg5LjA2LDQwLjQyLDcxLDM2LjIxLDU2LjE3LDM2LjE5aC0uMDljLTE3LjI4LDAtMzEuNjgsNS42LTQwLjYsMTQuODNBMzQuMjMsMzQuMjMsMCwwLDAsNS43Nyw3NC43QzUuNTQsODcuMTUsMTAuMTEsOTYsMTkuNzEsMTAzYzguMSw1Ljk0LDE4LjQ2LDkuNzksMjcuNiwxMi42MiwxMS4yNywzLjQ5LDIwLjQ3LDYuNTMsMjAuMzYsMTNBOS41Nyw5LjU3LDAsMCwxLDY1LDEzNWMtMi44MSwyLjktNy4xMyw0LTEzLjA5LDQuMS0xMS40OS4yNC0yMC0xLjU2LTMzLjYxLTkuNTlMNS43NywxNTQuNDJhOTMuNzcsOTMuNzcsMCwwLDAsNDYsMTIuMjJsMi4xMSwwYzE0LjI0LS4yNSwyNS43NC00LjMxLDM0LjkyLTExLjcxLjUzLS40MSwxLS44NCwxLjQ5LTEuMjhMODYuMTcsMTY0LjVIMTIzbDYuMTktMTguODJhNjcuNDYsNjcuNDYsMCwwLDAsMjEuNjgsMy40Myw2OC4zMyw2OC4zMywwLDAsMCwyMS4xNi0zLjI1bDYsMTguNjRoNjAuMTR2LTM5aDEzLjExYzMxLjcxLDAsNTAuNDYtMTYuMTUsNTAuNDYtNDMuMkMzMDEuNzQsNTIuMTksMjgzLjUyLDM4LjM2LDI0NC43MywzOC4zNlpNMTUwLjkxLDEyMWEzNi45MywzNi45MywwLDAsMS0xMy0yLjI4bDEyLjg3LTQwLjU5SDE1MWwxMi42NSw0MC43MUEzOC41LDM4LjUsMCwwLDEsMTUwLjkxLDEyMVptOTYuMi0yMy4zM2gtOC45NFY2NC45MWg4Ljk0YzExLjkzLDAsMjEuNDQsNCwyMS40NCwxNi4xNCwwLDEyLjYtOS41MSwxNi41Ny0yMS40NCwxNi41NyIvPjxwYXRoIGNsYXNzPSJjbHMtMyIgZD0iTTI1Ny44NCwxOTAuNThhMTAuNzEsMTAuNzEsMCwxLDEsMTAuNzUsMTFBMTAuNzEsMTAuNzEsMCwwLDEsMjU3Ljg0LDE5MC41OFptMTAuNzUsMTMuMjNhMTMuMiwxMy4yLDAsMSwwLTEzLjQxLTEzLjIzQTEzLjE3LDEzLjE3LDAsMCwwLDI2OC41OSwyMDMuODFabS0yLjc5LTEyLjE5aDIuNjVsNCw2LjU5aDIuNjFsLTQuMzYtNi43YzIuMjYtLjI1LDQtMS40Niw0LTQuMTksMC0zLTEuNzgtNC4zMi01LjM2LTQuMzJoLTUuOHYxNS4yMWgyLjNabTAtMlYxODVoMy4xNGMxLjU5LDAsMy4yOS4zNCwzLjI5LDIuMjMsMCwyLjM3LTEuNzMsMi40OC0zLjY2LDIuNDhaIi8+PC9zdmc+;" parent="170" vertex="1">
                    <mxGeometry x="10" y="10.999999999999886" width="60.59" height="30" as="geometry"/>
                </mxCell>
                <mxCell id="174" value="" style="shape=image;verticalLabelPosition=bottom;verticalAlign=top;imageAspect=0;image=data:image/png,iVBORw0KGgoAAAANSUhEUgAAAjQAAAAjCAYAAACDx5AJAAAAAXNSR0IArs4c6QAAAHhlWElmTU0AKgAAAAgABAEaAAUAAAABAAAAPgEbAAUAAAABAAAARgEoAAMAAAABAAIAAIdpAAQAAAABAAAATgAAAAAAAACWAAAAAQAAAJYAAAABAAOgAQADAAAAAQABAACgAgAEAAAAAQAAAjSgAwAEAAAAAQAAACMAAAAAOEjizAAAAAlwSFlzAAAXEgAAFxIBZ5/SUgAAKtJJREFUeAHtnAe4XUW1gBUIvdcQIAmELiABpAkkhF6lKIpPpIkUKQpSFKQ+UCkiAg+kBhAQQemgFAk10kIJnZCEVALSQq++/7+cCZOV2eeee3NDbvCs7/uzZ9asmT2zZk3Z56Jf+UpTmh5oeqDpgaYHmh5oeqDpgWncA19tpf/TUf4fmAsWhZlAeReeh0/BcmmP+P5SH9rSZlUb9fqT+pue9WyrytrzXttqy9iq3j219KW5SmOaWn36Mr7XddeR0tlirmrtuJ98maVq3J1tfjrTHLR1LaQ9PT1LY6mah2kl/pJP0n6cxvpfH0czlGYbnY5aDvaE78JCUBIvNefARfA6fAyNiu/YAH4PXpCSzE7iROifFK08V6H8MnizFTuLnfChMAT+VcN6bek35i2yMf+eBuM/y9b917F+BC/Ak3AzPAW+NwUjyU4vfejhRuDFNvXbxXUGDIOmTL4HetLEeeBHRPIxyXZJirtrqO2a6ixyEB3ZFmaENMb3Se8Grs0vq+zNwPYA9wLF/dfx/hoegaZM7AHPoJNhYXCvbE1ewUA/Pg13wUtgvRRjJFvkOP7dEPKLwcvk94KRMKVkVhqOZ+4n6N6DRi5Trpevw4GwMiwLiuew4zwMroOmZB7Q6T+HD8BAaIS3sNOZcbJQVYq2V0Gp/avRd6usOXFBv4o2Su1GnRepo8B3ufm3Rb6PcWyvLXkX3Dfa8sJOYPsL+vAhxHGu1wn69mXpgpv4GwUfR583mnfDPKuTOedM+pMOmjQOLzRu1l9m+Q2DS+NNz2fRNddPedbdH72UJF+15WncXwArQNzb/1Jocyy6pWBKygAaj2MYjq4ntCZ+RJ4IsX6e3721Rr7s5emGmsbpxG8NJ4G3wUbFX1X8yjgP5m+w0szYbV5h668uvSrKotoJba/MQsWjwS/Ytl4uJue9vO4r64K36S3MTCPiIeSFJsrk+iK299+edzPuKHHOGvn666j3NdKO/YljTBecRupPqzaleYh+mFbHNiX67b7SXv94tu0K/4CtIBfbjO3GfG7fUen8LxGpzXdIlOIilafnASQOTpnms+yB/ELjZcaLRL2vOb+iSgdaan1nEufAPElR59mXMi8UJemOcsVSwRTSeZk5BhaZQu1XNduVAv9stVKVQSfTT09/uhT6ZOw0peM8oJ87SmwrX+cd1W6znaYHpgUPdKOTfqC39YO1s43tkIoOeSb7K5Z/UfFPV//Vkv+JyD81+SvL3AWPPIfuERgO1lkeloElIMo2KAbDUbEg5PcN+ZjdEsUNMCIWNJh/Bjv/FJYfto5t3ho8JpJNyfnrVL0L3UQVKjJ3o387K/P9/oK1MCwO+eHiF0gv8ELzOHR2GU0H7wdjxb4rHpjjW1LNfzrCA/73FcPAj4Lk49Suvp4P9H8u/roxDtJ/m5HKjD0/QP6dFM1n0wNfAg94Jvjfy+TrYzbyro0FIRdtlobt4Eko/UqCulPLCvTOcyvKWBQXgmeze8KD8F8t+YXGzXKjgjc8xPaDW0LZhuR/AP8DeTtjyBtsHtxVP6UZdJtAPVmHwh7Q3gvN4dS9F/K+LUV+OdgZ1oAoXqJuhPa+0/Z2AG/MufhL1JqwF1ieJF22VkFxHYxPBZ30+Tf6ZRykfttN06+aaEqHeMDYORi6hNbcmN2w9wVjKRf9fxSMAtddLq5B9U1peuDL4oHzGcgl4GU9iR+Mfmh/BzaHtA7SXuXH6sXwNEwtcQ1HUVd1TibbmWo2ntFJrONZ5TnXlJoH8sO+Z4VXLkc/oFB2GzoZCsfUygfyPBb+XstXPbwEtSZzYLAq/As+as24UO7B4FdrLl7OBtTw158lIBcvPH4Zj8iVbUz7K5DvzsWfAu8AD5be4Hty8Z1pLmYm7QUoF4PXL4voh+nQzQ55oJNtsct/JVKXS08yi4J9ta4/V9rn1+FFqBLf/w6kTSLZxb8/26b9sn9JrJN+Fk0LuCc6x74Q2K4XYeMp36jI1pXFKF0EusH78AY4f205xOfE3q+4+UH/29exoA+fg0b70x1b++OY9IH1kl+Hk25EfKfrqiR+pW1XKDA2boGRhbKSyn46//ZzRnBdjIG2+AzzFtFn3aAn6DdjYTi8XINHu8S2loU0J172HZ/9LImx5p4RY861Z1ykw8S159dsV7Ds3/As2G/fmexIFsW1uTjouwXBNeG6ca8ZAlNCnPee4DqZCVxHvk+cu7aIv2Q4947fdhXbce29CKVY74nedeG68v1J9Jf2rt16fvMintY8yZa97k2epXdZ3pq8hoF9zdvUDw/BDXAZbAK5eNlxv5scMc6NR303Czhm157rxhgq+cCYdG831lxrUSwzlvSHaX1qm44tvWMu0lH0nXud+4z7l+92HuIZgaplTfTk6Xy7PxnrrifXknPq+qgS+2P/8rGpczySZGkS2hkf94DrMPWLZItYz3c5PkV/LAH61L69BWPhGYiib1y77vX6xnXrekttkfz8EPVFTlJJDPZ6gXcs5b7AAZ0Mj0Nr8r1gYPtvg4PKZUsyV0JbF61t6IAqGUbBn+GXwWB28l2CriOzBpE/DzoxuTiBaWL6kdY/zoliYBi4/eFByEV/HQJpklPZoyROSZnsafBsBxtAdzCQXBDvwygwSOzL3fAPUJ/LRmS2BTe3FODWPwZc0EncMA8C23fxKAb6nXAmOP6twH5o0w2cf2PNMV4ET0A92ZBCfbUC9ADH4wJ7FYbC43AVPAZV4kaxDTguD8+u4Nj0+Uh4E54G27gd8jGSnSA9SelX+2Rf3MCNP/03GpJf7yH9d8g3ArINi33T31GMFf3bmqyPgT5fGeynvrfN4TAC9NmN8C9oTXpjsAXofzdJ17/9cL6fB/13NTje8WBZihmSRUmxoh+Nj6/DQuDG7hqwjzfARfAB5DI3mcNhYUjtWM8Y+DMsCc71xjAHGKMeAF68BsKl4PhjP1N+Acq+A47b+NV3xq17l/M7Bp6E++A6iP1D1WZxnvSFT/3rOne+UlyNJW1s/gPuhXrimLcF59+xO2eOQTFGX4Jh4HxdDx/BprAZ+O5X4GbYHlL86psZwLVuG1GM1fVhb0j7m7o34UTwfe0R12cXKPnYy845sAlE0XdtFfeIdWCVGgvy1Hdeio3nt8FxDAL9czvk8lMyy4Fx4qUqSlcUx4Dt6E9j9lIwpr4HXgrcTxxzLo7fubHMcb0BZ8FgsB37ps32sDYsBcbwEvAxaO96ehHcc/8C+i6K8/tHMOaS+D7X1RWwLHwb1gfbHwf2axn4FRhHSazn2rgEVoX/Af2qT61rn0bBrXASpLrrkjZ2raPvHZvvcax/grthEvFA0DDiItWxrYkdUnRmPXGgdjR/j479XUGvjYOpJzoybyul16tTaUbK9inU05k6rRHZEaP0rvzpBFeJG4mTkNub3i6rcFihfDy6HTKblOxJYjjE9gyIKH1Q3AWfQLSP+dHYnA/WyeWXZD6FaB/t9KEXi2jnAtgJbimU5bZ/o7wnlMRFcQo8B3mdUtrNfnMoyWwoXQwuolLdXOfGeSfsAbNCLm4WA8BNIq9TSo/B5kLoB+2RblS6BmLbw9AtWadBD7Oj4AWIdWP+EWx2hXqyM4VugrFuzL+OzdnQC3I5nYw+ze3d0NeEg2BYKMvtPBh/Cl+FXBYjY9zmtqaPB/cv10Qsy/PXU+4emEt6Rx+Uf4W4b+X1U9q49wDoClFOQJHs0vMpdKW9ylgbWLBP9fLnM9j9EmaBkrjvpAMrr1dK60P7fxrk8eKhsQuU6vwQ/QwQZV4Ul0Osczu6HtG4kF8NXWlO90c/U8E+qdYiEd9pvm/NwD7F9erev1StPD3WIXEReD6V2os6/aUvcmlkncR2jqOB3cF9P5ZV5V0/+V63NPnz4JUG2ngfm+tgJYjiflt65+/R658Bodw911jYOOhTG166+oB2SVd6nkS5ciA8DyUbdca+e3BaqyQ/Eze9l6BU0aC6GPaARWBy5Hgqfwr5e/5JvhfcF/TauFB1apWsT0HeVkqvV1UBvYvhF4V6Y9G5iBqRHTFK78qfi1ZUnh/9Hwp1BqMz+JK4oX8CeZvOy/bJIHv2IO2E5ram3Zxz8Uv3foh2reU9BObLGjqYtAsn1ls3szHZG9wgot3T6EYW9NHO+DgapoNcnLcLIdrXyxu7a0Ie8LZbmot67Vj2Zq0tHi3yNf69F1qrF8vvoo7x0FZpz4VGn10GH0LsR1X+ZWy/DSXZE6WHdlXdkr4/9gtBktNJfAC5rflL4J2gz21Sejw2S0EurrshkGzS8yF0Iwr6VJ4/0yaK+QTpQ8pLXm7XSPpq6nSd0MpniRMK7ZQuNAdh18hBlPfD+f01xEtNF3TXQW7bnvSNtLE4PFtoy6/12SGKc1L6YPhRNKzIr4be9Rv729qFZptCHdvwrFAuh48hb9f9KsWUe55z4H6V2zSSts7akORuEo3Uy22OpM7OUHUe57Yp7ZrdBBTP6JshlTX6HEQdLzX5XunZW6rvefKvQpltzAAbFMpsR/8MrijL3/MeNr+DtxqwdT9tETf2JO+T+E3KhKcb6U7ggrkW/gQHwArQVvkeFXKH2XEn3dvtHRDluyjmjMoG8gZslcxFwQ8LhePQ+QU4OXIElf8Xjq/hJnYx3AQ/glzcmI+DIbmyg9NuaBvC6oV2h6G7BrwtuyHmYjw8CB5eHSXL0NCiDTRmfBhb8wTbU8iX5k0z+z/WRBBj18vLTJl+WdL7ZfmUdKy3wD3gRhzFGPUAUvSrG+TaZjL5iPRQcJ08Ch7UudjPB6Aj/Zq3n6enJ/Mz2BHsbxT75sEZxV9bj4Z5Q8GW5I8JejehJI69JDuj/E6pINPZPy9Rs2a6quQcFKxRVRj0q5JfLOiqsitTkB/MxqrrU31Jqsar7TawP3ggtEW2xtg5q7rwumeURP8dApuC857k5yS2Spns6do+Go6HJyCfR7KTiLHgfnH7JCWf/Tlg7qC3D98E99pcXBuP54p2pD+lTpXvvdDtU2jzXXRvF/QllX13XbtPtFWs436bZLaUaMPTvcr5NM4bFW3TvJ9E2jiokqq57k2FUyFeikvtrIJytULBDAVdrtI/jdwbZsbuJ5Cvx7ydPL0umSVV5C83QPrDfOChXBLLxE1iC9gX/g2XwF/BC0E9+QaF3YLBW+SvqOke5Wmw5hetlci7sXgDbYv0wHgM5GO0XfvuwtexUe5H8VJUtjG/C/aOIZcYIB4kN8MZcBdEe1QdJs6Xfo9yGorzwfnzEHFBbAAHgnPkXPwGOlLSRfZjGtXXg2EHcLOMsjAKebVWYN+83OaxYdF4OBb042uwORwFjjuJ498WjDMX8+oQ5REUxv0gcENxIfl+L6TJfz8k7fsUN+pSO39Efy68AvrVdrz4HATGseP2EKnaVCjqMOlOS/omyosozgIPJ8fj+M6E/PBxg9gVTgFlHnCuFjJTE8fgnF4MxrLz6kHwM+gFuexEZgA8kSuztO24iSmu9YEwJ6wDbu5RSus32uT5d8jcB67v7cG5iWIc2u/HagV78Fyjls4fw8kcAs+AfbS9/WF6yOVQMpfCk7myTtr6P4ZFCjZ/R2fcvF4r35PndpDLdGRcswNAO+WAzx4T/XsnOcc2CqzjPnAdrAC5DCNzCYyGB2oF+tC4SHOl2jb6gWP9BBT3PC91UW5G0ag/Yt2UNwad/w+Tgqfxswz8HNaFKPegGBeVFXnj72L4BixWs3Efugr002vgWvEM3A1mg1xSvZEofw3O5wewHywHuRiPZ4Pt68cZ4S54C5w7/dgDXFOWJ/G8dh6vBGP5HXgQ7NMGEMUPVONxAMwE64MxG2OtHzrj+TJIc0lyEsnPVdt2zThGx9HI3jYWu4HgmlsP8rGRbRF9oWirT7S13/m7ybaIMTGklp7o4U37BLBTjfImtk/BXlBPzqTQicjbTQvFesvDvaFcWzdLJ7YkDjBvL6UN3hEFksOTXXoaEN+CRmVHDFPdtjy9vOirfcDAinIQCgMpb9OgN8ii9EDxDOS2pq/PDF34gws2B2c2KTkziSXBzc6DJIp13ob4vriB9MZmVLBz3Na7EVaCruCmYP+cq9imcWE7SdxIUhvJ9l10LuAY4Eej83BNdj6vhS7wVfg15GWm74HFIcqCKHaGXULB0uSfh9jOEcHOrPPcCw6Eb0J7xYvmNRDfOQyd85aLG8RvIdq+ju7HuWEt/QuecW0+nNltSvpliO3dis65TKKP14AYJ4Nqeu1OBze/2Jb5o8DNaX6YA44ED65oexK6XBYlMwSinfkbYDVYAOaBHlBq82n064Gir42JUnv9NMhkVtKHQ8nWsaZ1XtpX3QvSO91/PARjO6+gmxNy6UnmCoi25tcBRT/GcvcW4z+Kuvcgt/e9inOaZHkSd0NuZzqtr2TnORLb8927JIMGns7ZaIjvMob1U9zfS/GZ6u6DvWtfuRw+hlTmcxQsBbkcQcY1cRosB3EOjM+rIW/H9L2QLof6Ls3/3wu2zr9r1/WqnUxfY8bacy2esb/61vWtWEdb5UqI/THv3uM7kuiL3eBtiPaeH54Fis9YnufPpTzt58abKBtAbpfSxoBrohd4QfGDrz+U1qO6/4MeoK3r7GxIbeXPH6CvFCtuDKUJyBuJ6deo48IuiRM7HPI675M/BpJocyrkNqYN1BhMqFpkff6N9u3J66iqd3z2pon/be+Fxr45Ue/AvdAH0kIj2fIl76TnY3iJ/PYWBulB/hnIbU0bkEmWJjEIoo1z5UJdG6I4Dy6qKJNzofH9bno9Q6MzkC9tzA+gX7lm67y48OMYHquVx8cqKCzL7d0AXJz6+pRQpp0H7HWwFcwFuegLfZLLUmSehfwdpt1sz4B1IEraoKK+0Xw3DPVhfOcwdG6KuejXJyDauuG5vqM4Pn2U29vuIjXD/UJZstsEfR6/mrvRnwljwAuJm7sHXPKhG5r+Tm34fBe2Afudy0ZkXoDc1vSJuRHpRWEIRLv+6LpDlNtRRFvXUt+aoc/nINrcWiuPj7VQlGL0IfTJ3yeQju1ZJ11ofkk6zoH2+0NJdkcZ2zN/EhizxmAsH4ZuM4iyAQovMLn9m9Golj852KU689fKPTh3LNjciW7Zmk0jj9UwGg2p/fY+r6GNFMe+93L4GPL2RpFfCnLxEPUiYzznsiKZPnAA2Fbejun7QJsoN6GItk+iK8VnXlc/xP4aJ8ZTLrbzIMR3uA7jGrWe9jdCtDc/GyhVF5qPKDscZtGoIMZTqd3zC7Z7o3s72Nu+vo2i7VsQ2/ZyNsnmoU5xc7kNBsCisC7sBHaynsxD4WFg504LhhuTjwfF++guzOwcxCPgZjdTpl+A9NfhHnAgHS3n0qCbyfgOaNjxvJq1swTphAez4sYua4OTtik8DlNCnPyh0Ds07lztA3vAJ/AYPAy3wg0wJcS4ij52ob3cysuWp9ybfC7GgT50s89jxbF4eMaF5sL8FJQnPntM9O+M5DaHjUC7cTAYroUr4B3I5U0yxurSuZK0794TXGC2o18HgX69HqZE/NLsJKJfvzaJ9rNfU3ZHr8/SJmefPoTpIRd9viZ4IPTKC2pp16++jGNy/R8Ih4Dtuq5bE301FNy4c7Et46a94jzm6zG18wCJfilTeK6ErmtB/4+CTtWzYDwsZyaTVUnHS1pWPFFSHxunUW6IilreuPLCtFooN+87Y8xq5phWhpvNZKIuvntkVp4n7yPjhaVbriT9LTgffPd2EGUgimeicgrnna/DYHQ73vMadWRe2A+2hG9AWjuul+mgs4h7kX2NcjuKuEa1GQHGj/teFM9b57lKzqPg+KrCOvpSTN6N/fuQLlGpupe2KO4TUpR6C81KbkZuMsPgEjDgN4MdavCYRNwEvw8DwM08ibo5Uqb2HM/TCfDSpLiZzQgvgpOTyy5kXBBxw8tt2pJ2gr3Nnghu2B6EHSEn08hTEAN9FnQ/ht9BLguT+SW4YF7JCzooPZZ2LoVNwLnJxflPMbA2afkJjIIT4BzoDGJ8uInk4mG8LJyaK7N0OqwzVcvfX93groTjYJG8kLQblCiLQ0/YEtykLwR9kxbZy6QvBjeDGNe5X9eiXPaGMfBbOBOmlnyTFzvPJYkxqw+TP2KZ9UfAhyaCuLY+qBGK2pW1vY6W1ta74y3F0EMVHfHge7GirNROybTkY+3cg0viRa90QLin2pYXLOchXzvu4b0hylYo8v1Bnz8ajWp5L+f6YetQvj1514oxs10oc0+5L+imZHYYjZ8C/aHkI9Stipe/n8NuMHfNutG5rJl/oY+qmB1SpxevUuZcx3EZQ1GXN/NWnmlDutRm1Vos2dZ9VTrMopGOcZCipLQL6K81dubpDe1AiLIMChdNutB4mPulkjZHki2yGP8+XEu39tgWAw+URi80tvs65E65g7xjeQ4egBHQ0ZJuj+mZ2ndRnQVzwtGQi4v/WHglV3Zg+mra2gs8SOeqaDf5yTnqAX+ApeBgmNqS+hb7ob6qLNqaT7Zvk14PjIfuUCV5+7titBKsA35NKDfBbnAupA2P5ESS3qlfjfeTYGE4AqaG5GOa3Pe7lv7bpN6Y3R+/SBnHy7wo1JOTKTw8GLiX/hkuBi88+8BakIv77AW5Ikt7mD0OW8J0mX4z0vPAFkGvifb3mugAcf8eDfkeO4j8G+CHhu95GiZHlqbyOdAnNOL857ie4rkWqnTqrBeaNyHuX2nf6tSdj52LF5p0mP0Yw/vBg7BK3NQPgpFwajDy0Fwy0+1CeqEs356kC2UHcBE2Ivti9K9GDL9AG312D3gjzRdBF/IzwpSUS2ncS97+4AXKOXIzsh95X8i2iF91u8MzcH6LZur9k29ceS/cjKUR8VKdX4aHkl8KDgDj3cuGoi/iumgp4B8v5VeDG3eSq0g8BoeCfvU99fxq+X4wBv4PvmjxF5X3oLUNyzF4cH1Ux7YUN5hPEN9R7wIwwXAaStQbsz77IsVYmq3wwtznR1K+NayY2Rnf362RqSckXW/G8z8naCZNXItqW/haKLLdjYPO/e5B8PDsCDmNRqbk2lmc9s+APqGz7h+PgvvhQzW+zfNK6MxSLy4tK+0FeQx15rFN1Lc0UJ8LwN7wCBjMfpkvCq3J5RUGLook/UjEG2Aqa8vzO20wntIXhDZ0ZSJTLwrJ7xMV1MkYcG2tU2rOy4lfY0vDZnAYeNEZBeMhyjwo+kblVMiP5J1eBnMxvk4EL2aNYDzcBrl4uJ8EXmyWhz3Ar7LB4NdeaVGvjX5eyOV5Mj+C7rApuH4uAfvtr0FR5kThmpga8gde6lpszWdzYOPGfjXMDB5KUZZEMWtU1vLz8ewNjtUDdFoTD698D0v9d35LMjvKHqUCdKU4KpmWfKydv3iXpBvK0jtfQJ/67nNDaOTjzvXgPmCMnAr1xAN9aMHAdeBFJ5chZG7JFZOZNp7cRzta0jy5NjcqNO7H4DfgbHD8Xm67QGcR4yfNe96nNfJMSBtb7gVRXkGR/BHLOm3eQ9LgcPO5Fk4HNyDFnyDPgSXN1BEPgpK4MJTFoLQgR6N3wy8xAv1bEGVzFH6VdGYpBVTqr77tC6UbcbIpPR1z3LhsY1moOlDydlx080PaBJybAeCmtTM4R7uBG1oU322cTE15kpe/Ezpgn/warCf6ZgkobTpe1vRJEjfnS+AnsBKsD09DFBf5IjWl7S4IHviKl5c74fewK3QH2yv51QNzSor9fLzwAtdiPu5oYoz0Ai80SRyXh1JJ+qI0FnMxZo6Eh8F9xQ8RL9Gdfe3SxQkyiNTYCbnPE9t9npwopc9WmEjzWeZeHo3OtRfjdwtt7FTQqfJ9KxbK9LuHm+JFfgswppX34AUw3keA++8wGAz+6mHc/wwakRswej0YrhryZp+C+wr6zqb6lA65L6xX6Nhf0fUP+unJzxd09bJxnWirzjO4I+RZGnmt0JDjWaCg74lutYJelfEwzYmHghufPyt3K/R+M3R/gq2hJ/hl56Y0O7ip66g/QBQXikGseAlZtCX1+T9u8Lbdr4I10Z8D8avc/lYtboo6hSxEL2ThjCVI94a94QCIoj9EcYxR5kDhRmO7XWFx2Asuh8WgNfFyejH8GOxXSVywTxQKnAMX+tQULzPGU+xHD3S7Q7yw6EPHeSA4pm+BG0cS/emlwxhbHjzEozyK4iqIMWg7b9eM1+B5BTgX3SB/B9kW0e8eIFFK8xxtJievr7xMROmD4gfgZhxFnzkWfabvcnmOzEu5opY+gqfzkERfrg7fryn68rwMHgDjcFoR+/tiobO90H0b8pgxvS047ihXovgwKivyA9GXfOy+sXKo44eml6vSYXgH+k9q9qvxvABmreWH8NwZtoTtYStYD7zw/AwGQaNyG4ZjWzF+lfIbW7HpLMX/oSOzQWmP1N9LwSw1uvPUf4dCFNuRKB9EBXkvROtmevey0pxmJpXJUZQMLZTaZ/vp2JK4/3jRde6juKel+IllnTqv4+z4G+AmZ4DmC5Vsy/9Jlhvj43AnvAwzw6qwPkR7VC0/b7ohKE7WPC2pz//5J8nBn2eLqb+h9SAykHLZg8w5uaKTpX9Ff96CdLj5XAyWg7SpkJxI3PTG1TRuACXZDOXt8Ay4ubmxNiIuzv3A+rID/BGeBr+uPgH7tTh8HaK8FhVTKf973mu8zZu939hT3w30jZcPY/Nr4EXHC4dyGjwCL5hBfljDtHF8FgyEsZDa8MB307e9XPTHMFgQ9oe+Nb7L03aeAv36McwJ9q00V1Par5/y3vPgUPArPYl9OgLmBtfhu6Afe8L3YXNQfgJeRPzVQHE9ezDp11xcnydCf7CttWAvmB9yGUTGDXdaEefvVlgXZgmdvoL8kXAfOOZNYH+I8gqKv4FtNSJ3YWQcLhGMjfkb4CAYB/bHedgaolyPwr06Hai7BYNlyZ8BT8BIMFY9RF8D58dD9w0YDWOgStzXhsJDsAxMDyWxjVtKBZ1Q55jeA+ctF33p3ngq3AnOZz/YAEqiP2coFKT9Jy9akMyvwDU4AlaAf8BgaI+cR6VvwqKhsrHjXnYzOL99wJiNsY2q5Ze6D01M63IIA3gbnEA3RJ9txYWyBiirg/nYxrYWNiA6P9Y13zOru36FzXqZzZRI7lh4b3t89hTtrJZ1cOlCuyUfqHPzcXHFcjc1ZUYwaGO5+bFwG3hIPQgGcLR7Gp0bepKDSaT4yG1zG217g5tjbmP6csgvJGRbNtPTeUZbD9CVNcjkQtLRLuU/oWw46JOk85nm5E+k3WQ8LLTNbUy/A/eCvrsb9E+0Mf8LUPaBUrkHzu1wAzwJsT/WGQxrQVulGxWuhfjeYeiWLDTmeI8q2Kf6H1HmwfVuhY0Hei59yLwAqb7P5F/TtpeXpbQHhL8EJHG+o1+Mq5WSQfbUT+mATu359BKVixv4EMhtTP8WZoMo/4si2vqx0DcznIn0lRDt8vy/65T7IeEaTHICibyuadd/vld5cBo30a5ePs2BMZvvJWRbLkj16pbKxlDvL7AvlOIK9QTZmJTzW2rHvak/tFcci/EZ23ZPc27aK5dT0b7l7Y4in8Z6eCjTLvk4r1OVHo6951KUXVFU1cn1PwwV9UPs73vojKeSnIQyby+mq9a7dudB/hFnOtY3H9cfqonEy16pnms/ynIo4jpyL7kwGpLfE96E2PZu2k7nP5nYSSdzKHw10zeaHImhG8j9tQpebBavpdPDjeufKdPK8yHK/WLOxYF8L1d0onRbfeZG7QQ5ziQjSDycMnWe3rIvgnF1bGagzINjSMGmKzqDbnNwwXSBXAwa59LDvbPIoXTkrxWdMZZ7wIyh3DkZD24IynxwR0tq4n9mJbs2bAnrgP6Jcg6K34ObqXH5LERZEEU/2AKWh9gf++I6GwhTWhyzX5XngusmivHhJWmWWEDe8Rk32iS5k8TR8HJS8MxjPrdNJq53N94bkmIaerp2joBr6vTZeIriYXMWXAAfxsI6eX35GBwLz9Sxi0XW8+D/CQwKhceHfCPZhTH6Dnj4GO+9oEpuoeDFisLX0V9RUdYZ1SmWb6Nz7sO5pLJc53l3U66opefiOVtBfzM6fdKaeJhPjjjnF9ZpoLTeNf8THAyu/WlSPASinIZiL7gO3oqFFXkX8GWwN1xas3HT7wseFLlcScbDshG5HqNoa2D9CKavNZCeteyER5V+gsFkJkqbdyNNusHfD3+A3eFuyMVg0o/1LjV+wR0GHlZuulFSwHoT/yP4HgPcr+tGxHf/AvoHYw/n0kKNcWQ+zrtNedsvbQzGShTHEOfQg9RN+0hoZCyO303kINgNPOAfhJ3Ai/t90IgMx+hk+CkY6/rcw8o2z4fh0Ig8ipEHpBtHe0Tf5V9PqQ3nJM5BKvMC5fgd71NJWef5DmXXwj5gPX2WyyVknIMb4ZO8oJA2tveDeKFyvo2lXKrGYAyUYsn6eSxVxVy0S+8sxZzvyWPO9p+Fn8EJ0Ij/BmLnoeD61Je5xDFblr8zXTqvQK//jZO3oJ54YXIu9oCr4VPIJfYhL2skvQVGx7Vi6FlROgTHoHf9tVfqzWl727SeayifZ3XGX4qnB0gfCPX2GC/o7tPHQpS5UfihEOUlFIdCvHRGu3i22NfYX8dQiifbegN+DsZhvXOE4hZ5jn+9BBnnjVy4rFT1bsuU2N/PtOVf1vS7/s9FH5TWaBf0s+eGtXSLz6Ljkt2tJB6DdWBFWBVspCvMB6PAhfYyPAlPwx3wCiRxUu+DVyFtijrhHHAAafGSrJQHKfHg7w75QjU9BzhxI+BiyBeuzhkJU1Ic80XgodmaOH43RkWfPQ9PQPILyYnEce8JW8EysAh4iI4G/a2vH4K5wD4sDLl/bDuXu8g8DKtBb1gaeoEB4zw4H/pvGFjXtiWKC/00SPUsnw7sVy6O8WwwVtKh59wbD3Hjs9+3gX34CBTj0s1knJkg6o6De2B5WAUWBfuk6FPj0PmR+8EYyWUsmRPAjXhN0B89QD+m/rog7YM+sd93QCoj2SLqH4G1QL8uAfrVzeY/4JiMD9vQ//pWH7ZX3qaih9ZI8CBT7Kf+rrcRuVZ/DY7B8S4Li0OaR+fQNW0/H4eB4Duq5CoKHMc6sDo45tlBcT6HwjNwEzgHUW5HYTzb9ySOx3mLMgZFf1gMkv+NjztBHydxjOdCV0h2zsNdkHxFcoLcTWpOSLb2xXflsZLaH47+cHA864K+04eO1Tl+DxzzU6CPfZYkvdMYVXyna2ekmSC241xcCyuB7+wO6Z2O13JxjMZ0lANR7JopXV/Om3FoW7OC7c0IrqEeUJI1UM4DVTHm+32X/k7i/F6fMu18utbPhnkhzdMspF1LKU+yzWK/nGvnTvHp2DxPFOf9b6DNhrAY6H/j0z7p83/CizAH/BGsI4p+Lc2pZcaoF5q1YQWYDoxD59M4NbYHQy4vkTkTtFXsr7bGU5W8RsHJMABWgVXB+U1zZP3h4Pr0vLkHSqKfLwDnM4n7xp0pU/HUN441xbpm1rvNRBD7ega4hyQfGpfu3VEeQ3EaGAfJ1nXU4jMd04gkR8yFsS+1A++DkxAPM1Qt4sT40vwdpt2U2xKMs2Fvh6O8i0Jn+R5t0uBItryzre+xXlukC8YGbv7eqvpOjv1pqzi2+cEF7Wbkovs3JDHA7UMK9KTXL/qnSlyEC4HtJzHAXbDOaZW48aUFkdt4Gcrn1PmyX3HufYdxE31mmwZ70lvPMWibt0t2EtE3ksairx3DWGhUnMsFwEu49RV9+jLk/lZfT/TrgmB7SRyzbYxPisl46hfXlO0nX9mcfXa+U9/V1RPXseNNPrNd17Tz32gbmLaI8+yYU1xY33aM1SrR1liKEuPIcmPJMecxbn/dYI2PJKW1kOy0zf1lHeNNcrHvtmns1RPjZGFIbbo2x0Fra9z3OfZUj2SLv70Q1Ytzx+Y+MB9Y13FZ58VanscksiKa+0HfJfEw2AmsZ3v2xzEbB64hLy1bwW6Q+3sY+c3gWSjJKSj3hXxOXYPLwFhor1TtI47dddVe0Sf5GrUd/Wr8leLf+TbGXcNvgu9P4lyk9tK8qjMmtEs6kpOI7ab6Ke6MA+vl/dAPnnFRjGtpRHyX8ZPG7Xtcp29Aa+J+kY/DPvvefP3FNowp+9xIPWNNW9vNJfkw1xljxm201WfaN6XpgaYHmh5oeuBL5oHzGY+HSc4j5L201JONKPRgyOsNqlXoxfNo8PKyDWwJJ4KX4dzew/JqaErTA00PND3Q9EDTA00PND0wWR64jdr5JcO0X9QXgL8klmRtlI+Cvw6kuv5adRooXmLU++vbGBgNtpls8+cK6JvS9MAX6oH0k/MX+tLmy5oeaHqg6YGmB6aoB26n9Q3CG/yp/vvQF/zz2FAYB/7y0g389aYr5PIYmZPBP3usVCuYm6dUycUUPFFV2NQ3PdD0QNMDTQ80PdD0QNMDjXrA/1biIsh/NYlp/zTkf4uS/yKT21xGWbrgLELaPyPl5aX0MGy8ODWl6YGmB5oeaHqg6YGmB5oe6BAPeLHYFm6C0uWjpBuOrX+W+ibk/5Gv/5Gxl5VSnaQ7nXIvPk1pemCqeCD+l8JTpRPNlzY90PRA0wNND0wRD7jHi38y8s9Ky4C/zORiuf8rOf/7Gf/XK+mC4jMXL0g9YXVYHLzw+L8MGgxD4HmIbaNqStMDX4wH/h8QMuZa3mXfhwAAAABJRU5ErkJggg==" parent="170" vertex="1">
                    <mxGeometry x="65" y="21" width="325" height="20" as="geometry"/>
                </mxCell>
                <mxCell id="175" style="edgeStyle=orthogonalEdgeStyle;rounded=0;orthogonalLoop=1;jettySize=auto;html=1;exitX=0.5;exitY=1;exitDx=0;exitDy=0;fontFamily=Helvetica;fontSize=15;fontColor=#595959;strokeColor=#595959;strokeWidth=2;" parent="170" source="171" target="171" edge="1">
                    <mxGeometry relative="1" as="geometry"/>
                </mxCell>
                <mxCell id="171" value="&lt;p style=&quot;margin-top: 0pt ; margin-bottom: 0pt ; margin-left: 0in ; direction: ltr ; unicode-bidi: embed ; word-break: normal ; font-size: 11px&quot;&gt;&lt;b&gt;SAP Integration Suite&lt;/b&gt;&lt;/p&gt;" style="rounded=0;whiteSpace=wrap;html=1;strokeColor=#B3B3B3;strokeWidth=2;fillColor=none;align=left;verticalAlign=top;fontSize=11;fontFamily=Arial;container=1;recursiveResize=0;collapsible=0;fontColor=#595959;" parent="170" vertex="1">
                    <mxGeometry x="78" y="117" width="269" height="141" as="geometry"/>
                </mxCell>
                <mxCell id="172" style="edgeStyle=none;rounded=0;orthogonalLoop=1;jettySize=auto;html=1;entryX=0;entryY=0.5;entryDx=0;entryDy=0;dashed=1;startArrow=classic;startFill=1;endArrow=classic;endFill=1;strokeColor=#C0399F;strokeWidth=1;fontSize=16;" parent="171" edge="1">
                    <mxGeometry relative="1" as="geometry">
                        <mxPoint x="377" y="77" as="sourcePoint"/>
                        <mxPoint x="377" y="77" as="targetPoint"/>
                    </mxGeometry>
                </mxCell>
                <mxCell id="275" value="" style="group" parent="171" vertex="1" connectable="0">
                    <mxGeometry x="136" y="25" width="160" height="102" as="geometry"/>
                </mxCell>
                <mxCell id="282" value="" style="group" parent="275" vertex="1" connectable="0">
                    <mxGeometry x="-17" y="22" width="99" height="67.5" as="geometry"/>
                </mxCell>
                <mxCell id="281" value="&lt;b&gt;API Management&lt;/b&gt;" style="text;html=1;align=center;verticalAlign=middle;resizable=0;points=[];;autosize=1;fontSize=11;fontFamily=Arial;fontColor=#074D92;strokeWidth=2;" parent="282" vertex="1">
                    <mxGeometry y="50.5" width="99" height="17" as="geometry"/>
                </mxCell>
                <mxCell id="290" value="" style="shape=image;verticalLabelPosition=bottom;verticalAlign=top;imageAspect=0;aspect=fixed;image=data:image/png,iVBORw0KGgoAAAANSUhEUgAAAdMAAAHTCAYAAAB8/vKtAAAACXBIWXMAAFxGAABcRgEUlENBAAAgAElEQVR4nO2dTW9cWXrfb/cM6JowMTW2EcdxJuQESAwYiMjeOEDAQNWbLCn2JxD1AQiylll1CcieRfADiFxl5TRJIIssApEAd0HQJDNjBBMbTSJOZiaY8XShrTHD7haDIz1XfVWqYt265znnnpffDyhoXqRbt+7L+Z/n/YO7u7sCAAAAmvMh1w4AAMAOxBQAAMASxBQAAMASxBQAAMASxBQAAMASxBQAAMASxBQAAMASxBQAAMASxBQAAMASxBQAAMASxBQAAMASxBQAAMASxBQAAMASxBQAAMASxBQAAMASxBQAAMASxBQAAMASxBQAAMASxBQAAMASxBQAAMASxBQAAMASxBQAAMASxBQAAMASxBQAAMASxBQAAMASxBQAAMASxBQAAMASxBQAAMASxBQAAMASxBQAAMASxBQAAMASxBQAAMCS73MBAfzTWdvrjvnSB0VRrMxwMl8WRXE+5n+/ujnevOK2Avjjg7u7Oy43gCWdtb0VEcMl+RQijA8q/3mhpet8IcJbiPh+WRXim+PNk5bOCyAZEFOAmog1WYrlSsWSbEsktTmV451UxBYrF6AGiCnACCKaKxXRTEkwm2KE9ko+RmzPb443v3TzVQDxgZhC1lSEs/ws535NZmAo1uuJ/HmOFQu5gphCNnTW9oylWYpnF+F0wnVFYE9ujjfHJUgBJAdiCslSEc/ys8jdboXTiriS7ARJgphCMnTW9kxC0DriGTxHWK6QGogpRI2UpKzLB7dtfFyLsB7eHG8e5n4xIF4QU4iOztreesUCxfpMC2O1Hoq4ki0M0YCYQhRUBHSdMpVsMM0m9kVYyRKGoEFMIVgQUKhghHWAxQqhgphCUEgMdBsBhXs4ElHd5yJBKCCm0DpSwrIuIkoMFOoylPjqgKxgaBvEFFpD3LgbRVE85i6AJdfiBt7HDQxtgJiCV8QK3ZAPVii44EBElQYR4A3EFLwgPXCNgD7hioMnLsQFTGwVnIOYglM6a3sbEgulocJ3VOeLlthYUdUZqiWP7E4xKYbiAh7gAgZXIKagjrT1287QlVudB1pURpa1OoC7Mri8kEYXRWUe61Jm98i4gPvUrYI2iCmoURHR7YTLWqpzPU0G6ZcpxOYqgtutDD1PeY7rkViqxFVBBcQUrJGkon5i8dBylFg5TuwqR2tGNkjVea9LibmQT8VSRVTBCsQUGpOQiA4rA65PZMg1sbV7EEu2m9BQdUQVrEBMYWYSENFyUkk5Boz4mSViwVZnx8YqrogqNAIxhdpEHBMtO+Ugnp5IQFwRVZgJxBSmEqmInpYCSqu59hFvRrcyOi+W54jsX6gFYgr3InWi/QjKJ6rWJ5NFAkeaeJQTgWIozdkVUeW5grEgpjAWWewGgbvnhpVB0ocBnA80QJKZNiIQ1qEI6iCAc4HAQEzhHcQdNwi4+TwCmjCRCKtJYNsgngpVEFN4TSUu+mmgV+SoIqK42jIggtm2pyKqxFMBMYW3o9AGAVoC5VitQxasvJHY/XqgHpNnN8eb/QDOA1oEMc2YgF26jNCCsQQ8wg/Xb+YgppnSWdvblizdUNxnDHeGmRBrdSOw9oZHIqo8w5mBmGaGxKEGAS1Ap9JwnGQiaESAHbmGIqg80xmBmGZEZ22vH1CC0YGIKA0VQIUAm4uQoJQRiGkGiDW6H0DN6FDOY8ACAy4JqNkItamZgJgmTiDW6FBcywNiSeCTgESVWGriIKaJInGk/ZZjo4goBEEgokosNWEQ0wSRhWPQYtwIEYUgCURU6fObIIhpQkgCxn6LdaOIKERBAKJ6IVYqCXiJgJgmgiQZHba4ODCqCqIjgHrrHslJaYCYJoAsCDst/RLS/yFqAiipITkpARDTiGnZrUv7NEiKlps/mPdpHbdvvCCmkdKiW5e6OUialmf5Pr053tznCYsPxDRCWszWNXHRbdxRkAMtxlN5zyIEMY2MztqeEdEtz2d9IS83Ll3ICgmlDFpw/Zp3rougxgNiGgnyUh96bsIwlDIXZjVC1ojrd99zWGUogkocNQIQ0whoqbcuWboAI7TUnpM4agQgpoEjO+JDj3EbEowA7qGlze3uzfHmNvclXBDTgJFEo+cezxBrFKAmLVip1KMGDGIaKJ21vX2PSQ9YowANaMFKJTEpUBDTwGghexBrFMASz1n2NHgIEMQ0IERITzzucp+RqQugg+f8BjJ9A+PD3C9AKHgWUrOz/QghBdBD6rCXJLbpGiPYJ5JXAQGAZRoAnlsDksQA4BjPwyconQkAxLRlREhPPLmGGPcE4AnPm2QEtWVw87aIRyEt3boIKYAnJJ654snt+1xKdaAlsExbwqOQnkrmH25dgJbwWJN6cHO8SRy1BRDTFvAopHRNAQgEj9m+CGoL4Ob1jGTffe74hRpKDAUhBQgEyfbtSuMFlzyRpi/gESxTj3hqD0j9GUDASBmcEbvHjs8SC9UjiKknxLX7ueNvo9UYQCR46pqEoHoCN68HKjFSlxwgpADxIGGYp45PGJevJ7BMHeMp2YjdJ0CkeEpMIhnRMYipQzwJKcXaAJHDWhE/uHkdwcsBAHWpNHhwmen7nF6+7sAydYBk6507bCNGxi5AgngaeMEm3AGIqTIeXgaEFCBhZA0xMdRHDn/lR6whuiCmiiCkAKCFZOE+cXRBWUuUIWaqy8ChkJpYygoPP0AeSIb+gaMfW85DfcDjpANiqoTjXWTZjOHK+w8DgNZAUOMBMVVAMuRcCynNGAAyxLGgLkt8FixBTC2RgmtX/XYRUgBwLaiP6JJkD2JqQWWSvgsQUgB4i2NBNW0H6ZBkAdm8DXGcuYuQAsBYHOdnfCyj4mBGsEybc+hISE3K+jpCCgDjcGyhHorHDWYEMW2AjE5yUVA9JGsXAKYhgnrk4EKZDN99MnxnBzGdEcncdTGDkCJqAJiFDUe9fJdleDnMAGI6A+L+GDg6PEIKALWRUFDXkaA+7qzt9bkb9SEBqSaOm9fTeBoAGuF4bSIhqSZYpvXZR0gBIDTEQl2XUJE2h8RP64GY1kDqrx47OPQBQgoAtkiIqOvgQi7QIakeiOkUJE664+DQB5KRBwBgjQjqUwdX8hHx0+kgpvdQmSuojUkYoNsIAKginq5nDq7qp9I6FSaAmN6PizjpkO5GAOCKm+PNvqOmDsRP7+H7wZ5Zy0g9qXacFCGFVpnfujTWxdLI50GDbl6n8ueVfIyL8cuXuw/J/AwD4/laUe7StiAGxnrMF8YVlMaMobO2tySLw4LyocncBW/Mb12uSFJKVxZWF9no47iQ98d8Tl7uPqR+ugXEirxysI71bo43XdXbRwtiOobO2t6Jg3aBuzfHm8RJwRnzW5dLYjWUAqq9iDZlKEMhDkVcaZfpCUmg/Fz528z9XKHt6bsgpiNI1tqnyoc9vTneJHgP6lQEdMPR4AUXXIi78BBhdY+ErLRnLl/cHG/SEL8CYlrB0S7uWnZxxElBhfmtywcioNsRCegkTivCyjviCEdj255JslP2FIjpu3TW9s4dLE4f0XMXNBArtC9CGooLV4uhiOoAa1Ufh/OXWd8ExFRw5N4lUA/WSAauqy5cIWLKOvbJDNZFPG8nyhsx3L0CYurOvXt0c7xJCjk0RkS072h2bgwYF3AfUdXDUfw0e3dvgZi+wUH2LnFSaIy4cwcZWaLTOBBRxf2rgKP46Y9zz+7NvgOSNLHX3vmvI6QwKyaxaH7r0ojoFwjpO5iF/4v5rcu+JF+BHdsOZqBmXz+ftWXqqDkDLg+Ymfmty3VZkFJLLNLGeH22X+4+ZJKJBY5CW1nniOQupofKFgD1pDATYmntY4nOzJGpraWcpjnildOciGUyspdy9cpl6+btrO2tKy9gQymcB6iFWKNXCGkjzDW7kmsIDRAr8lTx2i1IrD9LshRTqbnSvun93APwUA+JjRpr9DPculaYa/eZxJmhGRtiCGjxJNdRbblaptvKTb9PqSeFOkim7omDbMqc2ZrfujyXawszIAaAdo5HlmthdmIqSUeazRlw70ItpG7URZetugwl1vhM2Rq5kGOeKh93Fsw1PZdrDDPgwN27LPHYrMjRMsW9C96Z37o0G64XLbh1jdD1TNu3l7sPH7zcfbjuYKKMEbKll7sPu+Y7zHeJuGqXX0zD/KYXcq1hNrTdvf3cBolnlc0rvvwXiockexemIvFRn27dcirL/mi2q8QXtxx977OXuw/fcRm2ONVm9+XuQ0YezoCD7N6sxk7mJqaaLjZm+sFUPArp1Ebxkvn62QzHfCpW7Czn//Tl7sOxBfwyrHzbY6P+g5e7D7FSZ8BBN7hsOiNl4+aVnpSaO+MBQgr34UlIr8WNa9ys2/cI6dKMXWp6RhRFjA5m+HcDEc33eLn78FyOtyRu4OsZjtuEJ3IPoD7am49srn8Wlqn47s8VM3iZlAD34kFIr6Vfba3Fan7rchaL4z2LbsbfY9zM3ToNFSS+2VfOrh8FC3UGHEzQ+vjmeDP5YQW5WKbapTDEYmAijoV0KLHJpRmEdJb+06fjhEf+t7oZn8t1yy3kN6w4yDCugoU6A9IOVdNrkEWpTPJiKlappvgd5LDLgmY4FtIDcefWrgusDBSvw7XEMyexPkOG7lbdMhVjwcpvWpHSHRcgqLOhackvS5gtaXKwTLcVkx2GWKUwCYdCakTuY2MdNuhFO5jh+V+/7/jy/81SQjGTeJl4r5TufOwonvpErHSYghgMmhub5Id/JC2m0qBB8+XpM1oNxiGxPxdCumsstiYDssUyrNv317iOz6f9Jfk7dd+pRTM2rebfrX7HiVipsyQ+1WWHOtTabCu63hdTt06TTkBSHoJ7fXO8SbsyeA8RLc365aLsrGUzamyGpCMTJ52pXnp+67LuxKWhuKYbbUJF+GaxruswlASpqZuH3FFORkp6DU3WMhWrVNNSYDcL7yExSe3ZmhdijdoI6cYMSUdNnu267l6rSSKSoNRV7qZkzumQQeO1GCi63JO2TlN282r66E9JOoIJHCpbTQdiNdnWMNd9/p81+a5K/LQOT2ya0IsF2VXuH7voYBOUHBLW0lxLk42dJimmWKXgA2nNp9kIZLdhktE7iFVapxTs2tJqPJxB4KwWUcn47SrHUR+RkDSdm+PNfUXPQLLWaaqWqebu54BORzCKtObT7HH7VLGXbN3nf9tWuH1ZpyUNOjJNY2dSxyZ4B9VEzhQvbXJiKnWlWlbpMIeUbpgNibVp1ixO7Gfb4NzqWqWnNjHZEnER79b86yrvkgNBpf50ChLm0nKzJ2mdpmiZau6g6L8L49hXjJOqCalQd5HSjoPVSUZa10r6URbU5SYlPBlC7PQekhJT5W5Hw1wnxsNkZqzdnIaqkMq51S2FUUuoE1dxnXdlQTP/QFlQP8Xdez9inWpd7+Ss09QsU81uRwMaNEAVZffuM2WLtJhhI+nCKhjUtE5VE36UBZXN83Q0nx3ENGC0bg5WKYxDa2DCwSz9desgyT11LOYLTau0RKzTOpuDxbo9e2dgWynb9BHdke5Hwl5am5dHnbU97WehNZIRU3EZaE2GwSqFdxCx0rCqLhyNA6t7TJebxLrHVv39IuRdpdZ3fZo5TEVzI5hMaVJKlimxUnBJXyGEMJRF3wV1nv+hA9fyWySzt05zdLVEpMp3f6l0bRcZZnE/ytbpY+kLED1JiKm4CrSK57FK4R3EKtUot7p3KktTpOa1jtD7KAGp8x0LU0a9NUI6JfUUDrWNdToVrNMRUrFMiZWCSzQWjmcuYpVCCC7e10jtap1erupiKt8/UKiHXMA6vR+xTrVGtG1IJUbURC+myq0D97FKoYqSVXqhnXBUMmPika+a6TrNILTKi8Yxy8zVSWCdTkdrc+bEU+GbFCxTzWQGrFIYRUMEXWaI1l2EfD7btdzJ4p5WRzYNtpalak1siih3RYq+iUP080w7a3tXWuUKN8ebvDzwFrFMfmN5RY48ZNDWyRf4pCgKn16XOtN0XF+bfcu14frl7kNmGN9DZ23PbIg+UzrcxzFP54paTJVv5Ec3x5sMC4a3SIs5rcHIECfa7R6TA4PmDbG7ebUu/ClCCmPAUwE8A9PRctE+iTkRKVoxlcQjrSQGYqXwDhLP02oCAvHySGN0XOIYl75Gw4wi5s1LzJapVvLC9c3xJhP3YRQsEijhWbgHqYDQcoUjpi2gVQeGVQrvIIlHLks3IC4Q0+loraPLnbW9KKf3RCmmcrG1XHAkF8Ao0de8gSqLjGe7H2nioFUmE+XmJVbLVMsqPaBJA4wBMYVRsE6no2WdRvn+xSqmWhcbqxTeARcvTCCZUWGukNyTOq0kp7EoZY9REZ2YykXWGAB+HXOBMDiDRRPGsUxWby20kjkRUw9oXWQSj2AciClMgmdjOtm6enMWU8phYBzES2ESiOkUFBORFmJz9UYlpoou3iO56QBvkXgpjRpgEohpPbRyURBTh2CVgktYLOE+Fomb1iLLuOn3AziHWdC4uEPEFCZgU0t44XEqy0oND43P86nDoxp/R6tOcRpLFh4Ic+3xat2DKTfsrO0dKMwBfu3qjaVDXTRiqujiPaS2FCZgY5l2X+4+9PJczW9dXtV4F7ydTx3mty6njqd6ufvQi2dgfuvSfM+Lhv98hc14LQ4VxLQQAyqK6x2TmxcXL7imqWV64Vm4pllVw5CEVLgI4izeiPaJRWN2OiHVQKxJjeb30bh6YxJTjV3rkKb2MA5JPmrq+fBWryxW1TRCHCc4Vdxr/jYtml4jYqb10Vhrjas3ilyGKMRUsRcvQgqTsLE4fIpXnXmPzOadTtMN0LLPk4ycrBKRYrFMcfGCa2wsDp/iVUf0Q8wJqCNePgdDN75nZPTWQ9HVi2WqiEoWLy5euIfGC+TL3YehWaaxtsn0GY+0ychFTOujseaasWzBX/PgxbSztvdAybWCkMJ9NLWKfCfWkACjgOUGyKcFHTta627w1mkMlqmWi5em9nAfTUUqRJdqiHWQKb1/bGjqo3Xfg4+bxiCmWjsSLFNwgW8xneruern7MNamAr5FKphynVSRmv4jhZ+HZaqAxkU8pVEDOMJ35mzKvYN9u09ZE/ygYZ0uSFVHsAQtphJ0piQGfIDrDupCD+fZyKJEJnTLVOuhJV4K09BoVQkAI8iErmuF6xL0JiYHMTUlMRSxA7QL72DeaFindYYltEYOYoqLF6BlAuwVDH5R8Q6G3FowWDFVjJfi4gUAaBetdRgxbQDxUoBEoAVf3kg1hUYpUrCJgiGLqcZFu5bgN8DUZ4Ur5BTEFDQMm2At05CHg2tcNKzSGsyt9h7I5mVFav1W7qn5O5f6PPPn1e3ZTiqJJVeJ13CCHiRTNcOsx1uWxzD1pkshGkkhi6lGP17EdAwinl2p2+rOKCLvZNTNrfbMH6eS6HWSkLjWhfrUeGmaHUoyVTM046b7vk9+GkGKqWLGFmJaYW61Z8RzoyiKx8qHflQuTHOrPeMuHRhxvT3bicnF3nSB9N215zphCxqRShgTN+2s7V0oGEpBbmBDjZlqXKwh8dI3Vujcam97brVnrsVnDoR0FLPQ7xRF8cXcam9/brUXS6ysqUXt+/dNfabnty5jtZa9eTUsrxGi3xwNAwcxnQHipQrMrfb6svjutGTNPIlQVGclRCsxxBFhoSWO2FwjYqbN0bh2QTZvCFVMNRbebB/4udVeVyzRTwNpk1eKal/itSHSePM1v3XpUyjqWEXM25wO/XXbQat5Q3DWaahiSvJRA8SlaxKBXgRqMRlxP59b7YXoprFx3fn8PXU2iSFe3zoC7/Odbbxhf7n7MHuvV1Mk9DZUOBRiOg3F5KOsLFMRqHMPMVFbjMh/buK4IZ3Uy92HNs9LaC92iC710K5R0/PREILc0Vibg3vGQ7RMtZo1ZJMkMLfaMxm6n0eW5bkjsdSQXJJNO7T4dBnWWYhCFNM699nnBrip94t4qT1JNm8IUUyJl87A3GrPlKE8j+aE38XEUk8CEtSmz82ixwzaOpvEEBM0poqXr2b4ljFuxNQejWuIm7cGGhcpiwfeWHYKHUXaZjkgQbV5brzslOvG60Iqj6nZl/fUw6mUIKbtolGyaDohBZVol6qYJp8gIEL6JIBT0SAUQbVZKDcUz2MadfoIh+QGqyOmPsMyNmsMYmqJ4nzpoKzTEDsgaZRyJN2sQepHUxHSkmXZBLX2ghirb37rsuk/X57fuuzrnpEVG/Nbl6Hs3OsI+wOP16/pRmNomagG33GqEI5YCclwCkpMtTJ5U+58JMlGnwZwKi5YNhb37dmOTyvvXV5987Piw+//i4b/OqT7sqxUYuaLR6EW41egJEaPK4X7HZSbNzTLVCP5yGfsxStS/jJI9fcJT+ZWe+e3ZzvOf2el4f9K+ef3fvSvFj78h3/q+qshThBTPTQMnqAyelMU0yStUln49x13NDqVBeP1onF7tvN28ZB2gOWnFB9Xlo8pm1GfQGM6Q1WFc1wp0d1XPy8KxBTGg5jqcaLgycEyvQeNeFmqLt6+I/EyAmpcq/eONJIJMO9cWxHYDflo17ju2zwPYsWvzCr8r776RfG9pl8KKXNNvFQVjYSzoMIYH9zd3QVwGm/orO2dKPjRP7k53jzUOqcQEIvqhfKpHBVFsa01Jk1iuX1lUX12e7YzNSllnLvWxoL//p8+Lj74we81/eeQJgcvdx+2F8tPkM7anob4/DiUHJkULdMUOx9pxg9NWcVG1YWrgbFspS9wX7H2dVsSkkYt4m5FNMe6a2149au/LL73oz/TPCTET1Ib9EDQmM27FIo3MjQxtY4H3hxvJhXXEItPy51xJELqZMMhx90WUT1UuJ/m3w/keKV4Onft3H15XRSIKXyHKYlBTPW5UhLTIAimaUOII3UCQav2zrhM110JaRWxelcset1WeSztEp/4ipHc3f5tcffVL3x8FcQBQuqGpBreh9QBSSMzK6myGLFKNVyYT+vEHjUR12xXSVC98+rXfxnjaYMbUi9HawuNjX0wGb0hiWmIky7aRkMAd6dl6rpCrOBuzfZ3QfHq1/+zuPv6t9/Edt6gDlm87kiq4X1qYppMvFSSbGyt0qPbs51W54aKoK7HOAfy7lc/C7HdJvglpBaRqZFUsmiIje7hDbZp+EPPzdcnIs0XoluUvv3lT4vi1be3AZwKtMOQeKlTNLJwsUzHQMOGd1m3/PfOsnabIO0B44ppf3tbvPrlT8IpxAbf7PuasZojSvWhLjvCzURqCUhJiKm4eG0ektPbs50Qd9QRWqc/+Z3i7tXfBXAq4B8Sj6A2xITCxNYqDVK0TMnM3GpPY/SSP15bpz+9/fAf/csfWHyncRd2XSSyzG9dmmflsxp/1VsHHxmlVqfv6g9dWH4yeu7cMufAXK+kRzkGwoVtyZuZNhZCf4Gk3LwJNWywmYZwod3dSJmYrFMj/Luvvvr5v7c8zoL0GlZHmgnUSe564nG+aR3RPnLoQh0oJO+ReOSHZNzoIVmmwfi+A8Bmpxa0a0qsU402YtqcijXz+jM6sWZ+6/KfWLZJNMPD9x1Zh/s1z23D9fMxv3VZtzbayeZCvt92cP4uVinMCm7ewJB4qQ0xZB8eKvbvbcKFiObJOOGcQF/EyGbTZ6zDk5e7D7WFZFDzem572GzVseictOeb37rUmPc7xCr1yrlC2CeIHgUplcZE2WlnDDYPxkVIGbz34FPwzXNxUBRFryiKj2/Pdj64PdtZuT3bMdnO+3VnpopLUkOIBrLoqyFWVJ1M6UWx3JzQplUqLuwTBQ9Xnwxer2hc6yDENAjL1ASQFQ6Tygtg82BEETMWV6+LQ1+MuGpVr8fL3Yf9GQRjEmaxPzGCquxK3K+5w9925WKdwaJTtY4VhfTi5e5DMnihEbh5w8NGTGNqe2ab1Xs94qr1tZHYUJgtaxb9w/mty66WFWRcx5JFO03ol+V7Va/XDJuMUwfxyH2lIQitdguDuEFMw8NGTGNKmrARkY/bylg2IjS/dXkk02xsWBYLVU1QxeLbqfH3+pYZ45OOqfn3amGSuhTuRSFJR0mNb4yEZPoe004wLWJ6MGN+iTaUeg2XgqpVsrJf87weacZOZ7BKrzUFS4TUNnO3EC8HSUftoLGRDKKlYEpimv2uMpLko+gRS1JLjNQEdcYkqb7Gd8oxan+n7fdVvldLSA0bJB1FTRBj2EIR02Bm0gHUQUo7dpUulqaFOqhpnS4qxQj7NRN/rjVKgsw1MuVFikL6DPcuaBCKmAbT+R9gBvqKJVmloFq9CzNap5/Ob102jtHLudatF7a2SitZu1rtKE0yFO5dUIGYaULMrfZi2pRE740Q4dKc1fo2KcnyvPozDGS3sRbr/tsLW6tUhPtKKWu3kHtm2wMb4C2IaXjYxG5iEqgkvBFS5qHZCMG4TF/Mb13aumDr/vtHTb5LynDqCpvVb5Hz+1y55ahmFjUAYhogNlmu2uUOLkmmBEjip9pdKHbmty4Pm8ZR5Zzqzo/dmcW9LJZznakwhbhSG8UkJT56WLPcZxaeupjgA3mDmIaHzW45CmtvbrW3ZNNF6PZsJ7h6Wumcc6B8WFM/eSVj1powi0VYS7jl78zSDrKR1S6/+UqphrRKz0FvZADENEBysEytRswpnocqMhFGW1CNa/OzJlaqWF/Pav71xZox0Fna9j2btduRSYgSa/QzB5OkDmgXCK5ATMPDRkwX5lZ7MSRV2Jxj0O45EVQXgl9aqbPGHwczJCM9lvrNscj/VzdOejFrpqzEYc8dWKOFz+HokCeIaWBI44W6i984ghZTcfHaLJYxxLq6jgR1QeKbV3U7GDVoMPFk3LEbNEmo/Z3m+8xvkjisi7nGCCk4BzENE5si8iciWKFiu6gFX2AvAuZKUAtxyT6vK6qSAFTX3VvIsd8et4GQPquT4FMR0ecOh8UjpOAFGt2HiW2Hl75yuYYKc6u9B5ZlEtd154+2jQjqiuIiWOEAACAASURBVHLbu1FKUe2LO3d/UrmHjI9bn8FNa45byKZglvO/txGCNInYkOfAhRVaBSEFb2CZhont8OwngTZwGFguoNG1fXOUlDTKopSPGEt1/56mD7M26H8+o5BObIRghFwSi75w6M6t0kNIwSehiCnF0xUkbnpkeZig0v8lMcrWQouypEEWdSfT0EdYkGv8QlzAg6qwiuvV5czO9dIylhrRdRH3LyU710Vi0ShDqSMlaxe8EoqblwLq97Gd07g8t9rbvz3baX13LjFcWyG8bmuGqQZmcRdRsbXO67IofXO35rcuh2LVl58DB67np8V3Gbldxf65szCUzkasJ+CdlNy8ISfdzMzt2c6hZVZvIe7eVsVU4qSHCgISvaUhzQJcJiZNYkE2ZjvSls9FxrdxCb8QF24bQmq6PS0hpNAWiGnYaAjI87YEVYT0RKE5+TBWF+8osth3i29u2rSyfVjGPjHZw/TazZcgPFYkIIXNvtJEEiOoXi07SYDSEFLDIKXB51//t+fF1xf/4cff/vV/vSnuXv02gFOKFeO5+ZgxalGTzPhNxDRgREC0FoqtudXeiY8aVEk20hLSYQou3hHMJmnx1S9/0vnmJ3/+9+7+7m9+FdTZxYEZzL7CYO/oiX4UY0koYhpc4/JQuD3bmaUd3DRMLOt8brXnJKPTCPXcak+7r2o/JatUrv3bxLK7278tvvmLoz/ASq1NaY1u49aFkAgim/fmePOqs7Zne5g2kh58sSHJHRq8bkkni7qxeg9txUpcutsOMkQvZDORBHKdxo4TM1bqq1/9rPje0r/55YcP/ukfpvKbFXntocClC2MIYlNFB6QIMCUhc6u9XSl10GJRMjAHYk2az0ldYRVh6IrQa7hzx5FM0X0lq3ky394W3/7Vf/nDV3N/v/jeP/+3//uDzsIft3vWwWBKefqzTqCBKNCImQaRwY2YxkNZv6ctXGWh/2urcm61dy1u9/MxO74l+fjwAvRiaR1Yk/26/Wdfu35/+h//+IN/8Ecvv7f4r3/1we/8rqu+taFjyl02ENGkSSZmGpKYXtgKRWdtb+XmeDPJOjNjMUqJyyzzJJuwKJ823eZHibl3t5s04Lj76ufz3/zkz+dfi+qP/uyvP/jB7/2JmzMMjgPpM0xyEURDSNm8Gn7vZHY54xBLLfV+oxeJuXcnxknr8lpU/+LoT775H/9pV4RGo1wqNIby235s2i8ipNmQjJuX0pjIkM5ITxP9ecbF3E0le7dWnLQ+p//vP/+7benzuyTPgO9OSi64lr7FSyKiuHTzwtrLdnO8SQLSCOcKrsVujJNFZuX2bGd/bvV13/TnUZ34/byeOJJSGYwIqUa8851pLFISYmKwpon8iljy6w5ngury7de/fjX8X8NXv/zv/+zut3+zLRtEyIzO2l5SnsSQxJSasRlITFBfu3ZTSjiaW+31FePOE631yiSY7aCF9eu/+z+vvvr5jQjo7xdF8fvy/3QVrXeICw0X72kovzg1MU2mNVUdEhHUi5Rcu8UbIe1Kw3cNamc1jwjrkghV+fEqrndf//aXd1/94uXdVz//o1e/ufpB8e3tP57wVyfNXgWIitDcvLYknYA0DhHUcw9Zvi4wCSfbiQmpZpy0cVazxB73ywEBIq4rlc+SUpnVRfHt7Tevfv1Xf3D39W9/9+7l//3h3Ve/MP973cYTZlTg0u3ZDrHS/NDYSAXz3KRWZ5ri5JipGMulMjPUxwBmW4YioklMghlBY9xcIYk5alnNIq5Xo0JvhnhXPDpLU96hLyub3vOynZ9sIH5jcXrdVKYCgXcQ01FujjdPFFoK5lrcXjbFX5daVF8DqJtwKvHR5CwR5Tipl2QsEUSrpD2pgbapE0dM80TDMg3Gq5VcaYxp3BDAabSGWHtL4kINCWNpfXJ7ttNNVEg146RPI0zGshFk4qbQlGDek9DEVCMzK7u46SjGUrg92zEW6o8DENVrEYelVEsglOOkB5G6v21+/6I0t4C80PDiYJk6hF2uYCzAiqjueu6cc1ER0dRdeFpx0gvJxo0OM4zB8px5bzNCq8Y0pPaxoSUgnSjsVrK3TEcRt+rrkgkZ3F1+tOOqFyIs+7lkZyrGSYcSS445s/nU4lp0ExwCD5PR8ERozXlWITQxpdbUMeJqfe2Sq4xR6zYslTiVmMW5jG/LqrxBNiZacdLtBJpWHFqIaQxZ6KCHxjod1HoTmphqLCaIaU1k8T6vWgRSYnNviZGCSy96KqVIGsQaJx3F6rkwSVw8W9mgUcYY1OYzNDHV2GksGH98KM2PY0OsSwrop6MWJ5W4dvRIvfPQ4rqs59BbG16jYfQEtcYHlYB0c7yptYhjnYIz5lZ7A6XuQe80sE8ESmSgDhprdFAbrxCzeTXKYxBTcILESbeUjp1i8wqbEpllKTOChJFMXg2vTlDvTohiqnGBEFNQRzlOupto3a2ttZCapQ7vo7I+K3oyVUBMAeqjGSeNsp50GmJp25Qs4OpNH417HMzotZIQxVTDD64RzwJ4i3KcNHXBIG4K95FcWUwRqJiqpDvn3qMX9FCOk3ppYN8ytq0Fs5z+lBEaa3NwNdnBiamUtGi0vWOHC9Yox0mfZVJHSdwUxiLJRxrTvRDTmtC8AVqn0sBeI056enu208/hrorlfWFxCDbC6aKVfBTcpjRUMdW4UIgp2EI9aXOIm8I4NO6tzUbNGSlbpstakwkgP2TI+hOlH97NIE46ik3cdEHmw0J6aNzXIHtYpyymBTtcaIIMANCaYNJLoIH9zDCSDSagMWEJMa2LFONqjNfhhYSZkDjpvlKc9Oj2bCfnsWI2tYAkISWGYoVFkGIaWqP7KucKWV+IaYJUJtuU93flnjm2pYVknqerGlaiVpzUbAaTaGBvgc18YtNacJJ1e1L58zxDF3qsqKzHISYfGT64u7sL4DTep7O2ZzrE7Cgc6odMkIkbEc+uWCsrlpusoQjrocxgfSuuEid9rnSxPsrRvVtF3OWfe/iqaxHWw0RbNCZBZ23vUGFu7enN8WaQRlLIlqnW7qNrmQwBLSDuViOe28odrRbEWnptMc2t9q7FrXuuGCd9mruQFjoj2eqyKMliT+T7zPu+z2zU4Eg2+agIOAHJmPIkIWWIsUKldd+VWImuW0OahfjToig+U1r0Uxn0rYVvQVsQYX0xt9q7Em8DtIzESzXer2A3SMGKqaDRzBgxjQBjic6t9owIfSGt+1xbMy64EEsavnPPt1meZjZKzxHVINBKKENMG6LS9L6ztkevz4CZW+31xRLVqutsg6HMJ80+Pi8bo75sjDRKIWwpRfVc4rjgH5VmDSHnv+QgpgXWaZiYhc0scOJmjdESrbJNnPT1Pe1KXOvTAE5nFBMy+FzCCOAJaZ6jsakKOgYetJgqpkBTsxYYc6u9bXk5UhiXR5z0uzF1L5QambtkCyvVK1rGDGJqyZHCMbBMA0JiozsJWKOFDPrOOh4nbt1zxTF1PjCbuBMZrwduST5eWkQiphoXcKGztoegtkxl0Y05Nlolxwb27yDW3VWkHgazmfuM5CTnaLwjp6H3C8hFTIvcF722kbrRVNy6JSbhKLiJ/74QIT1JwMPwXMIOoEwOJTElwYup1Jtq9OlFTFsiUSG9juEFd0VCQlqyg6A6QcvqD77xTgyWaaG0aC0qNlqGmiQqpIUk2ZzI78uKBIW0ZAeXrzoaRsxQsYmPM2IRU61dCS+Kf7Qax4fIcm6tKiubo9SEtOQ5SUk6iPGikdkdxTsWhZjeHG9qXUxeEo9I4X4qyUaTeCTZybmQspCW7FM2o4KW8RJFOCXkRvejHClMHHjt6o3BZRA7UrzvsnC/jFmel82vq43NZTF8IFNmVqQ8ylX9o2mwfpJ6ranUkbryMlyUk3xkVN57iV3yTC3J/Vx3eD8XZPgBgmqHlvEShWUa7Ai2UTpre1rjsXZvjjdJNHCIuAI15tGOMpRFbr9JtyER2A35aFtX5txWUs3uFSF7oXzY8n4Omlw36f1b3k8Xwrp7e7bDWtEAcfFqjN87ujnejMKjGEvMtFDcneDqdU9feXEzi+4zY5WYxa1p2z7z72RxXJLjDRXPsbRmkkM2R9q/rXo/G21AzL+7Pdvp357tmPv5iVi3mmzh7m1MNlm8JdGIqRTsarwsZPU6RBYfzU44u7Lo9rWayJvjmOOJqO5qHFN4lGg26Lbi5uhCBqer3c/izT01g8HNs/dUeZOUfZvIhmTR9ahKTJZpofhg47pxh1YTcbMgfiKWi5POJyKq22LVaC3A/ZTKZeS3aL0vByZ27XIggMStl5TakBqWKZeZjc7anlY820yJiSZsEpuY4uoNGImraUyHuJZF14uLR76nq+X5SGyztq04NN3LiDrZJJl3vKd0yL7ScXJBa32NyisQlZjKLkVjwVuQhCbQRWPRuZBEHq8Z1/J9WoKahJgqWqUHbQwDuD3bGYjb15ZFrNN6yLi1rLJ4S2KzTAtFNyLWqSKSWWlrlbY6YFu+d13B5buQyOKrYZWetjlVR9y+GoKKdVqPdSVPxmlMLt4iUjHV2q087qztLSkdC3QWm/W2B2xLZqnGhKEUrFNbEbwOYdMqgmrr8l2UMAbcj9ZzH13iV3RiKlm9WskFuG70sF00n1WbLrSJCPozy1NYFms9SkQ4bJNIWvMyjCIuX9t1g/XiHqRKQqupR3RtOmO0TAt69YaF9DK1ce1cS6lKMMj52E4rijmUYPtuHIWyOaqwYenCJzR0P1pW6VHos0vHEaWY3hxv7iuVMiySiKSC7SITqkvU9tmIefG1dWkGd0/FSrbZtC3QBH88yolHUdb2xmqZFlinQWGz8F77KoGZFbGsTi0OoVEm5B1pvGHj4j0Ita2iuHttPA6I6Xi0Eo+GioNNvBKzmGpl9T4iEak5Ehe0WXhDz5K02iVHmrRie85a76YrbM6PJKTxaL3H0XacilZMZfKLbUyrhLT35ti2Zgx6FyqZoDYhhdzE9KLtjOwa2CzYizkOhL+Pztqe5kSm0DdiE4nZMi0UL/wT8fnD7NiI6VEo2Z5TsEmkidHrYXNPg7cs5Jmzcd/T2/tdtIyR6GpLq8QuppovLv16m2FjxcTSxNrGeo5RTG2sjFjuqc15IqaChMi0cgOiHioQtZhK+vSB0uEQU//EMqTd5jyjElPLGO8wAhdviY2Y4sX6Di2rdChVGtESu2VaKO5m6NfbjMa70gDrEMdiKRAuhla7xEYoYhFSg014Acv0O6v0idLhoh91F72Y3hxvnigOBSYRyR+aMyd9oJXsFjo2QhHN7EnLDRKW6Rs0jY9oE49KUrBMC8UbQRMHf8RkxRiiTYzwSHRda6AZkrCp2fEo+vcrCTFV7IhUYJ0CNCa2DRI0R2vObZGCVVokZJkWWKcAAO5RtkqvJVQXPYjpeLBOARKGcWpWaFqlyay1yYipcpkM1ql7YutbSwbndGJKzCGJqAHKVmn05TBVUrJMC+VdDtZpPRpnucbSlk3Os+lOPLasZZu4Z0wbDptzzTk2TKx0AkmJqWSEaQ0Oxzqth00WXiyLb04Lr01GbkwNKmzcvFlmLWtbpYhp+BA79YuNmMYSt8pp4U3+foqnwSbMkKtlqmqVxjgA/D6SE1PJDLNpYl3FWKe0Gbwfm8U3ltmQNucZ1cIrc0ibuqYXZSRf6Ng+d9nVHEu3o08VD5lMrLQkRcu00I6dMlHmXmzS2pdDX3zl/JYtDhFj2r/NBiCG0IiNmMbUf1gTzTX1IIUmDaMkKabK1ukCTfAno9BfN/RraysOMS68Nvc0aDGVzdFji0MkURM5C521vRXFHrxFquGzVC3TQvmGbYubA8Zjs3HZCDWrV87LRuwvIpnXOoqNYBhXb8iCarsuZCemynkoSVqlRcpi6sA6JRlpMjbzPkO2/G0TLmyuS2uIt8GmpKcf4gZJrFJbCyvKe9qUztreunJNeLLraMqWaaF845501vbomjIe2wXm09Bip3I+tiIf88Jrc+6LgW6QbJNeLiRBKyewSmuStJgqW6dFanVRWsgCYzsGLzTh2be0Sq8jT1TR2CAFs/mcW+1tK1hYyWWg3kdnba+vOI93mHruSeqWaaFsnS5TKjMR242GyewNYrMyt9rrKyy8UW+8bs92DhVmuB7OrfZab8wh57CjcKhsXLySI6K51iVXVzpK8mIq1qlWz96CUpmJHCq0zttqO3lFvt+2nm6YiBVj+xuMZb/fZvxUhFQjaeggMxfvQLFBQ3LdjsaRg2VaKFunC7h730eyVjWuy/O2BFW+97nCoQ4jzeIdZaCwQTI1uidtWKgVIdUQhWwSECU3xKZ8aJTkrdIiFzGVoPeu4iFJRhqPxuJbiKB6XbwkpqYhpEUqC6/iBqkUVG/vjLKQZmOVitdN06ti5pVmsRHJxTItZIHTnOCRVTJCHRQX30ISWA5duwjN8c33KMXUDM8SW3i1NkhG1F6YuLiHe2o2Rp8zc7MRmklHRU7XLhsxFTeD5o1dlGw3eJeBQuJKiXE1Xbly+8pxrxRdWsnFhmSDpPmcb5muUC7uqbFG51Z7J4obI8NuRlbpitwfLU5Tmlc6jQ/u7u7CPkNlOmt7V8o7r49ujjdznm/4HnOrPVPo/ZnyYY1A92/PdqxfTlnItXfghk8kCzY55lZ755Y9isdxLffBKsYs7uMN5ZZ3hZzfSiLx76l01va07/HHkgCaBTmKqXnxXige8uLmeDOmocheENepZhJDyVAyhw9nES4R+PKj5f6rcnR7thPLFJyZkRjk544O//aemjhnHfGS8ylFVFvkSz5W6D0dBeJl05wKYxo0ZDUPOjsxLd48OCfKLbKe5RJkr4vExc4dWH+jXIirdpx3YEUGVrtabEuysGAkFqnpQp3EpHu6JB/Nd3cSxr2bRU25uHc1N0pmc7SUQwZvlVzF1LyQXygfFnfvCMoZlSHzUS5jueZWe/sO3KmhcXp7tpNNtr4D927v5ngzu/LBnLJ53yKlMs+UD0t27wgiMKnv7p9mNt9yW6F1ZMhcRzS03hpx72oK6UWOQlrkKqbFG0HtK2adFtJqkGYOI0jC0NOgTkqPZxoJUTEhruxuooJq3JPrGSUcdZXjpEXOs5+zFVNBO0C+RTOH9xHB0WzpGAKmkD/LOLmIzYZy3XbbmN/SzcXL4KA5g2E3p+zdUbIWU7nxR8qHPaR37/vcnu1sOHCtt8Wu/J5sEdFJxULNSkiFgXJy4DD3mc+5W6aFgx32AvHT8YglF7vL92kuWZ7TSERQLyQTOxsh7aztuajJ3cgte3eU7MVUHgBtK+Mxo9rGIy7fjyN0EQ6l7pCNUoVKDDVGN/6RWKTZTIORMhjt3I6jm+PNbMbTTSLL0phxOKg9LSiXmYzUoR56qhm0xQyY38hsBNfMSB1qP5JSqGe5xbwl/HSinL1rNpkrUiGRNdlbphVcJFQQP52AsWiklq8XsJVqzqtnzhMhnc7t2c5AGmWcBnyaF1IXnGN8b+CggUkfIX0DlmkFiSVojeEqMS6QbOrWmjC32lsSiyakZgDGBbiNiDZD+h9rDpi2ZSi9nbMsX3O0tplG9lQvCIjpCJ21PRc9ZWk3WANpWN5v2fV7Kotutin+Wogrf1s+bYlqOclnkEv96CgSJ9XuRJZly8D7QExHELfslYOXP6sJCjZULFVXTelHKRutDzIrj/CCiOq6o0k9k7iWrPpsRbT4bj1z0SP7E5KO3gUxHUNnbc/FCLHXtWwkJNWnsgivO5pAc1SZQMMO2wPSr3lD7qn2At9oolDKOEqsJHQ1BsR0AtIaUHNQbiHJD11cI80QN3D5WZnRah3KDv1ExnzhJWiZyhi1bsPpPtzTe3C0hl1L9i5r2AiI6QQcpZEX7Op0EYGt0pX79hYW2XgQgX0gn9E5wV9WxrKd402YjKOEo4Jw1WQQ03twMOevxPSwpKkDAKjjcN0ikfIeqDO9B4lv9hwcekt2jgAAalQyd7U5RUjvBzGdgszm026Gb3jOhBkA0KIyCUY7A36Y04zXpiCm9dhQnn1acig7SQCAxjjM8TCsk3A0HcS0BvIgudiZmR3kSWdtb8nBsQEgH1y0CiwkTkrCUQ0Q05pI/NTF+LAFevgCQFM6a3v7jlpxEiedAcR0Bm6ON/cdjZpaFgsVQQWA2nTW9lz1tL4mTjobiOmM3Bxvbjgahrws3VsAAKYiFQGfOrhSQ+Kks4OYNqPraGzYI3HZAABMxGFTBsM2bU9nBzFtgOzYXJW1PEFQAWASjoV0V8JZMCOIaUMcJiQVCCoAjMOxkB7Rma05iKkFsoPbdXR4BBUA3uJYSC+knh4aQm9eBRwNFC85kKQnAMgUx0I6lEkwVzxfzcEy1cFVhm+BhQqQNx6EtIuQ2oOYKlBJSHLRcrBAUAHyxLGQFmTu6oGYKlFpOeiiZKZAUAHywoOQPiVzVw9ipspURiBpT24oMRNsNiioBkgXD0LKTGVlsEyVEZeJy4f0Ma0HAdJFWgS6FNIDhFQfLFNHeNhZXkjiABYqQCI4bFpfQnWAI7BMHSGxCFdNHQrp5XvOPFSA+DGeJg9CeuHYa5Y1WKaOEZeNi2bUJWVqOxl5ABHieLB3CZ4sx2CZOkbmAboY21ZiEp0+F7cyAEREJWERIY0cxNQDEqNwKaiG52IFA0AEIKRpgZvXIx5iIoWI9jYvD0C4eEhQLBBSvyCmnvEkqLxEAIHSWdsbFEWx5fjsWAM8g5i2gCdBJTEJICAk0cgMxXjk+KwQ0hYgZtoCnmKoJCYBBILER88R0nTBMm0RT+6egjgqQHvIhnbgsMVoCULaIohpy3hKRCjK4b+4fQH8IG7dgYeQToGQtg9iGgAeBXUoFiqTIgAcIm7dfcdlLyW0CAwAxDQQPApqgdsXwB0e3boFQhoOiGlAeBjfVgW3L4Aint26BWPUwgIxDQzPgmro3RxvDqK5QAAB0lnb64pbd9HT2THYOzAQ0wDx1Pi6yqlYqVcxXi+ANvEwzKIKeQ+BgpgGiscC7xLzkvaxUgHq4TnJqKARS9ggpoHjqVtSFaxUgCl4tkYLyXFY570MF8Q0AjpreybJYMfjmWKlAoyhBWvUcCQbXLLvAwYxjQRJcDj0mJhUYKUCvEHCLn1PHcuqkLEbCfTmjYSb402TkNQVd48vTLz2C+akQs7IRvbcs5AOJWMXIY0ELNPIkB2ycTM99nzm12KlnkR/EQFq0FnbW5K60TbetXUSjeICMY2UFhIgSo4kNR/XLySLvF/bnsMqhYRW1omPxgdiGjEtxVELcUGZHfuAlx5SorO2ty7Ptq/mC1We3RxvElKJFMQ0clqoR61yLVm/FJBD1EiW7qCl92go1ighlIhBTBOhRbdvIUlR2ywGEBsSF+17ruWugls3ERDThGjR7VtyKpYqogpBIx6d7RY3oAVu3bRATBOjxWzfKgciqiQpQVBURLSN5KISMuMTBDFNFOma1G9xwSgQVQiFQES0oJtRuiCmCSPxoEPPrc/GgahCKwQkokMR0UOehDRBTDOg5eSkKkdSToN7C5wiG8mNAES0IMkoDxDTTGipQfckTkVU2aWDKgFk51ZhYERGIKaZEZCVWpR1qsYVza4dbJBM9n5LdaLjoFNYZiCmGSK79/2AFp6hnM+AxQfqIvHQdRHRNjoWjYPYaKYgphkTSMbvKGZHv89iBJOQkMW2CGlIz+6uuHXxsmQIYpo5srsfBBJjqnItmchYq1C1QrcDiftXoQMYIKbwBok5DQJcqApJWNontpof0nh+PUArtCDBCKogpvAOgbp+qxyIqOIGThRx426IgIYSCx3lQKxRNnfwGsQU3kNcakZQtwK+OkNxAyOsCRCJgBb0n4ZJIKYwkQCzfifxVliLojjBWoiDiAS0YNwgTAMxhakEHk8dh8kIPhGrleSlQBCPRzfgGOg4hpIEx3QXuBfEFGrTWdvbCKymrw5lVvAJVqt/xPpcFxEN3cNRZSgbyAHPDNQBMYWZiVRUSy5KYUVc9RHx7FY+MVifo5BcBDODmEJjIhfVklJcz0VccQvXRNy2VfGMyfIcB9ONoDGIKViTiKiWDEthlT+vbo43z8M4tfYYEc4V+aRwvwtEFDRATEGNxER1FFMScSUfI7RfpiiyFdE0n6XKf47RXXsfZUx0HxEFDRBTUEdEdSMBt18drkVgjbB+WfnzKsRFuiKWhViZ1T9zuF8kFoETEFNwhpTUmI5KjzO/yhcisEVFbIsJ/30c5v9/UON7Vkb+XvW/p2hdzgJ1ouAUxBScI80ftsVazXlBB/8ciRVKxyJwCmIK3gh0/iSkB/NxwTuIKbSCuIA3Ahz9BvFyKglFuHLBO4gptIpYq2XCUiztCiEcsEIhCBBTCIbIGp9DuxyJFcrEIAgCxBSCJPCh0NAODImHYEFMIXgQ1qy5qAgoblwIFsQUogJhzYKjymxaBBSiADGFaJGM4HK8F8lL8TKsjMnDhQtRgphCEkhjiKq4YrWGzWlFPLMfJADxg5hCkkQ8lDpVmCMLSYOYQhaIS7hbGSOG5eqW08ooO8QTkgcxhSypuIXLEWNYr825EOF8/aEPLuQIYgogiGu4nOPZZdLKWE4rI+cQTgABMQW4h5Fh2Q9EZB8knj08OqP1JNT5rAChgJgCNERcxdVPdfB2yFbtqfx5JZ+3Q83JrAVoBmIK4BhJfiopxbfK6FDvJoy6W0uBLDknCQjAHYgpAACAJR9yAQEAAOxATAEAACxBTAEAACxBTAEAACxBTAEAACxBTAEAACxBTAEAACxBTAEAACxBTAEAACxBTAEAACxBTAEAACxBTAEAACxBTAEAACxBTAEAACxBTAEAACxBTAEAACxBTAEAACxBTAEAACxBTAEAACxBTAEAACxBTAEAACxBTAEAACxBTAEAACxBTAEAACxBTAEAACxBTAEAACxBTAEAACxBTAEAACxBTAEAACxBTAEAACxBTAEAWodiwAAAABFJREFUACxBTAEAAGwoiuL/A9tY8xnLIQnxAAAAAElFTkSuQmCC" parent="282" vertex="1">
                    <mxGeometry x="23" y="5" width="49.5" height="49.5" as="geometry"/>
                </mxCell>
                <mxCell id="291" value="" style="shape=image;verticalLabelPosition=bottom;verticalAlign=top;imageAspect=0;aspect=fixed;image=data:image/png,iVBORw0KGgoAAAANSUhEUgAAAdMAAAHTCAYAAAB8/vKtAAAACXBIWXMAAFxGAABcRgEUlENBAAAgAElEQVR4nO3dT04jybbH8eTqDix5QN0VFL0C3HOkojbgoldQ1AKQ6QHjco0ZlJEXULCCBjbQIDFvs4KGFbz2AIkZT0EfV2fRYNIZJyJPRHw/Eur73u1rjP/kLyPixIm1h4eHCgAAtPcfXjsAAPwQpgAAeCJMAQDwRJgCAOCJMAUAwBNhCgCAJ8IUAABPhCkAAJ4IUwAAPBGmAAB4IkwBAPBEmAIA4IkwBQDAE2EKAIAnwhQAAE+EKQAAnghTAAA8EaYAAHgiTAEA8ESYAgDgiTAFAMATYQoAgCfCFAAAT4QpAACeCFMAADwRpgAAeCJMAQDwRJgCAOCJMAUAwBNhCgCAJ8IUAABPhCkAAJ7+ywsIxNcbTref+aVvqqoarPBk/qqqavbM///m/nzvhrcViGft4eGBlxvw1BtOBxKGG/JTSTC+qf3n9Y5e52sJ3krC9696EN+f71109LyAbBCmQEMymlyE5aA2kuwqJLVdyuNd1MKWUS7QAGEKPCGhOaiFZk6B2ZYL2hv5cWE7uz/f+yvMrwLSQ5iiaLXgXPxslv6arGAuo9cL+eeMUSxKRZiiGL3h1I00F+G5TXAGcVsL2Iv7873nCqSA7BCmyFYtPBc/b3m3O3FZC1eKnZAlwhTZ6A2nriBoh/A074yRK3JDmCJpsiVlR36Ytk3PrQTr6f353mnpLwbSRZgiOb3hdKc2AmX0mRc3aj2VcKVaGMkgTJGEWoDusE2lGK7ZxLEEK1XCMI0whVkEKGpcsE4YscIqwhSmyBroPgGKJc4kVI95kWAFYYrOyRaWHQlR1kDR1FzWVydUBaNrhCk6I9O4u1VVfeBdgKdbmQY+ZhoYXSBMEZWMQnflh1EoQjiRUKVBBKIhTBGF9MB1AfqRVxyRXMsUMGurCI4wRVC94XRX1kJpqPCP+vmiCz6jqPoZqgvv/J5iVuYyBTxhChihEKZQJ2399gucyq2fB1rVjizr9ADu2sHllTS6qGrnsW4U9h65KeAx+1ahjTCFmlqI7me8raV+rqerIP0rh7W5WuBu1w49z/kc1zMZqbKuChWEKbxJUdE4s/XQxVFii+PEbkoczcgNUv28143MppAvZaRKqMILYYrWMgrRee2A6ws55Jq1tSVkJLud0aHqhCq8EKZYWQYhujipZHEMGOtnnmQEWz87NtVwJVTRCmGKxhJeE110yiE8I8kgXAlVrIQwxasSDdHLRYDSaq57MpuxXTs6L5XPEdW/aIQwxVKyT3ScwPaJ+uiTk0WMkyYeixOBUtiacyShyucKzyJM8Sy52E2MT8/NawdJnxp4PmhBipl2EwjWuQTqxMBzgTGEKX4g03ETw83nCdCMJRKsroBtl/VU1BGmeFRbF/1s9BU5q4UoU20FSOBs20sJVdZTQZji+1FoE4MjgcWxWqdcsMoma/c7RmdMvtyf740NPA90iDAtmOEpXY7QwrMMH+HH1G/hCNNC9YbTfanStTJ9xuHOWImMVneNtTc8k1DlM1wYwrQwsg41MXQBupSG4xQToRWDHbnmEqh8pgtCmBakN5yODRUYnUiI0lABKgw2F6FAqSCEaQFkNHpsYM/oXJ7HhAsMQjLUbIS9qYUgTDNnZDQ6l6nlCWtJiMlQqLKWmjnCNFOyjnTc8dooIQoTjIQqa6kZI0wzJBeOSYfrRoQoTDISqvT5zRBhmhEpwDjucN8oIYokGAjVaxmlUoCXCcI0E1JkdNrhxYGjqpAcA/utf6U4KQ+EaQbkgvC1o7+E8n8kzcCWGoqTMkCYJqzjaV3apyErHTd/cN+nHaZ900WYJqrDaV32zSFrHZ/l++n+fO+YT1h6CNMEdVit69ZF95mOQgk6XE/le5YgwjQxveHUhego8rO+li83U7ooiiylTDqY+nXfuW0CNR2EaSLkS30auQnDXLa5cFYjiiZTv8eRl1XmEqisoyaAME1AR711qdIFnuioPSfrqAkgTI2TO+LTiOs2FBgBS3R0c3t0f763z/tiF2FqmBQafYv4DBmNAg11MEplP6phhKlRveH0OGLRA6NRoIUORqkUJhlFmBrTQfUgo1HAU+Qqexo8GESYGiJBehHxLvcLlbqAjsj1DVT6GvOf0l8AKyIHqbuz/ZkgBfTIPuwNWdsMzQX2hdRVwABGpgZEbg1IEQMQWOTDJ9g6YwBh2jEJ0otIU0Mc9wREEvkmmUDtGNO8HYoYpItpXYIUiETWMweRpn2/yVYddISRaUciBumlVP4xrQt0JOKe1JP78z3WUTtAmHYgYpDSNQUwImK1L4HaAaZ5I5Pquz8Cf6HmsoZCkAJGSLXvtjReCOmjNH1BRIxMI4rUHpD9Z4Bhsg3Ohd2HwM+SEWpEhGkkMrX7R+DfRqsxIBGRuiYRqJEwzRtBbY00pBOCFEiHLMN8CvyEmfKNhJFpYJGKjbj7BBIVqTCJYsTACNOAIgUpm7WBxHGtSB/TvIHw5QDQVK3BQ8hK32/08g2HkWkAUq03C9hGjIpdIEORDrzgJjwAwlRZhC8DQQpkTK4hbg31XcC/8meuIboIU0UEKQAtUoX7MdALyrVEGWumuiYBg9StpQz48ANlkAr9k0B/7OI81Dd8nHQQpkoC30UumjHcRP/DAHSGQE0HYapAKuRCBynNGIACBQ7UTVmfhSfC1JNsuA7Vb5cgBRA6UN/RJckfYeqhdpJ+CAQpgO8CB6prO0iHJA9U87YUuHKXIAXwrMD1Ge/lqDisiJFpe6eBgtSVrO8QpACeE3iEeiozblgRYdqCHJ0UYkP1nKpdAK+RQD0L8EK5Ct9jKnxXR5iuSCp3Q5xByCZqAKvYDdTLd1MOL8cKCNMVyPTHJNDDE6QAGpOloO1AgfqhN5yOeTeaowCpocDN62k8DaCVwNcmCpIaYmTa3DFBCsAaGaHuyFKRtlPWT5shTBuQ/VcfAjz0CUEKwJcsEW0HeCHX6ZDUDGH6Clkn/RrgoU+kIg8AvEmgfgrwSr5j/fR1hOkStXMFtbmCAbqNAFAlM11fAryqn6V1Kl5AmC4XYp10TncjAKHcn++NAzV1YP10if+afWYdk/2k2uukBKlxa1sH7mIxkJ83tXWogawfNXUp/56bevtLWk/ePFwd0pADMezLZ1azS9u6DDB2eAf/ja0xz+gNpxtyEVzl4tkElbvGrG0dDCQwt+XiE6Jiu24uwfr483B1yN5iBCGjyJsA17Ff78/3Qu23TxZh+ozecHoRoF3g0f35HuukBqxtHezI3fVOgAvNqm5lXf6YYIU2KaD8Q/lh3Q3hgLanPyJMn5Cqtc/KD3t5f77H4n2H1rYONmTqa9dAgL7kVqbRjpkOhhZZstI+c/n6/nyPhvg1hGlNoLu4W7mLY520A2tbB+4mZhzoYIKQXAHJhNEqNAQ6tu2LFDsVryJMf9QbTmcBjlX7mZ678SUcok+5QqZdRqrwEfD8Za5vgjAVgaZ3WaiPTKZzjzMI0afcSHX/4eqQGQ60IjNvF8rLHEz3CvaZ/vMh0w7SM4I0rrWtg7FUYecWpJVM0d2sbR1QxIZWZASp/fnZpDvS3xiZhqneZZ00IhmNngaYwrKKqV+0Fmj99KfSq3uLH5lKE3vtkcwOQRqHbHMJsdZtmfu8zta2DujtjDb2A5yBWvz++aLDVJozaE9RfGFBPg6Z1v3N8FaXkNzf/G1t66D4ixhWIzf62jdi72RgUqyip3l7w+mpcstA9pNGIiGiPVWVKjftu0NxElYh4ad5IpZr5rBR6qxcsSPT3nC6oxyk8wB3e3gGQfovbtr3QvoKA41IgeSl4qvlZkuKLboscmQqe65myn1Y2QYTgYEgXXbxedPx2u3jQQo0ekBTgfqQv78/37so7U0oNUy195QyvRtBxCBdNKOfyc/NKgEl1cUbteb52xHXdQlUrCTAdG+Re0+LC1O5E/tT8SFp+hyBFBtp7wWuu5aKxCAnucjpNDuyFBDjZJoN1lDRVIDtgcXN1JUYptpFR0zvBiZbQLQbdVcSOsfSAzfazZAE637gU2uuZYRKoOJVAaZ7iytGKipMe8Opm277XfEhmd4NTIJHuwXaXMLstMuwkYKhffkJEaqXD1eHfD7RSIDp3qKOnSytmldzBEn1bhzHykHzRaZAj7setbnf/3B1OJb11S/ymdL0bm3rgFkTNBKgunckI94iFBOmcqafZqXlhHXSsGSdVOs9cxeJn1x4WZv6rIWqG4WfKT/8SLpEAU1oDxCKaSpSxDRvgK0wnJQQmEzvap0t+0XCKgkSfpoj8sciOXr5ookAux2K2CpTysh0X7mCkpM7wtO4o3Uh8ktKQVr9PVI9lalfrSm3dXqnoik58PtW8QUrYqkh+zCVUalm+J2UuCE5Jqne9Z3eXey3PE3rr/+bTP1uy1qqhncc34YVaE73bsoyW9ZKGJlqVkrOGZWGJRWuvney2TQukFH1J6WHG0tDCWApGTBort9nf+Zp1mEqlWSa4TfmaLXgfG9+susA5CqPq6r6WaHat+jeqVjZvmKF+dvcR6e5j0zHiqPSW5ozhFXbd9lWtq305G/aVri4fVjbOmDvKV4luxU0r3lZj06zDVMZlWr2cWVPaXi+o9L9nHvSKgZq9lNuUDNRLEbKenSa7daY3nCq2RSdTkcRrG0d/OURpkcPV4dFrGfL1pnfPB/mlzbFWTKqHUi18aDBSTmLiuTFoQEzmvCnRQJQq52nm+HLct0+yzAN0Mz+Jxo0hOXZf/f64eqwqH2/Cv2KG71mUrC0Iz+ajdDPpE3kKftf7esNpzPFBiqf7s/3stuqles0r+Y01glBGoXPqLK4KXgpSjrxeIjNl9ZO3dq120aztnUwk5vSr8pBWslhE+5x/3S/x90ccLi5aaqFnBm+PvmNTGVf6f8pPRzHq0Xg2e0oqe5G2iTw2o4YfmiEL6PQceDTbJaZyxrdMaNVe5SPactudJrjyFTzDor+u3G0HVnelhykYtejIMk1ctiQn2MZhX7sKEgr+b2fZbQ6ZqRqjuZ3LbvvbVZhqtztaM6evGjaNmIvPUgXFb4+r8OpFAZpVr5rcKF6Q9cmO6SRg8/SQl12lb25jUw1ux1NaNAQnkzxtumbfCvrhsV7uDr0OTprs8OR6Gvc8/q6tnVwQecmMzRvYAlTw7TeHEal8bR9z4oflT6R8wjOrdPNpIIZHZJlL63R6bvecJrNlsNswlSmDLROhmFUGk+bKV5GpU/IdO+RqSely41Sv8naLrqleSObzU1gTiNT1koTI1N3bW6AuKA+b6zYS9Wqj7KVhuKkjiiPTj9IX4DkZRGmMlWgtaGYUWk8bad4CNNnuGPbCrkRdN/1CwK1U4xOn8hlZMpaaZrahOk1exCXKuXzS6B2SEanWke07cpOjKQlH6bKDe2PGZVG1SZMGZUuIaNTrSk46wjUbmnduK17bI8zI4eRqWaFH6PSSOQC2Ga9dOXm7AXq4obj8snPdaTfu8lnohuy77Ttlqynkq/OT76dYG84vVGq4nU9eCm9j6TlySeuipf9hg2sbR1ofS+eupUG9fVTYF6czZEis4HMQuwEek7OycPVId/fyHrDqcYJRgvvJaCT9N9Un3j1zxupth1G6XHQTJtTXpL9onVgrHhs1rWMdlc+4UX+/RsZPe5Lk45d+dFsFuGqfC/YMhXX/fneaW84dTdYGtfh3ZS/46lP82rdibrzSjljMa42Ycp71Nyp5zaZuay9/uSOanNdljQKv9x+WDl31o1Yvyhv5ZnQKakTWlO0H1MuREo2TKXw6IPSwzEqja/NRY8wbUimXtuuJbrmDxtu2jRU5bR7fnJIwYZis4l1CtQ64XvjVpfsVH3KI1Ot6i938jsFDPG12RdMmK5m1ZvEMxmJ7i9bB9UkoepGqu+VLsjvaDsYl+yA0LqJIUw7oLXRl1FpZG2n4mJd4HMhLQabVNW6isz3D1eHO13t4X24OryQUapGFfCE7TLRaV1HN3vDaZsloM4lGabyYmsVHjEtFF+bMI211SI3yy5yrnDkF3dAuIRZp+RmaVthn+x65o3/zZEmDlrbZJIcnaY6MtX6opzQpKETbcKU96kFqW59On3q/u9PbpvRw9WhqSUOmfbdVeius8/oNDqt0WmSDRxSDVOtF5tRaTeouIxr8TmfSwXtRgJbSHY9ZyMYnUYmtSe3Cr/1rWx7TEpyYSovssb+tNuUNwgDK5jUKnTHKaw916Z8fYqSCNP4tGY6CNMItF5kCo+6k2SBQapcUVHMCl0t8nx9vu/rVPZGV+xUb8lhynaY7rCWhUakMMqnICn5BuopUSxEWk9tqjepMFWc4j2TNx2Affse070fKESKTms9PqkwTa03L6NSmNQfzTbk87ktBVY+h9VfSj/bi7ujQfFFcm66d23rwE0ffm75EDsUG0Z1qtQXmpFpQBov7pwwhRYXov3RzF2o/6yq6qu0uPQJUuednNH7rT+a/dUfzZI/nkrBxGN02ubcXLQk2w01ztRNaqo3mTBVnOI9ZW9pksxtp+mPZrvS4lDrcPrnuM/85/5oNuuPZsUWbnn2GmbdNL7iqnpTGpkyxVu2UOdgtiJB+k35GLFl3Gj3ouRA9agUXec0mbhkz6lGr2XCNACNqZo5Te27JYeCJ31hqwVpbOslB6r0Gm7bFICOSPFpXGvdVG8S0/RJhKliL16CtANuVLC2dTBe2zq4kVP5W72Xa1sHnX+pJMi6CNKF0o8Za9toZeSKuuRzSKjGUdRUbyojU6Z4E7S2dTBY2zpYFOd8tjZV25KFZh+bBRcl+XQtW5fP4WOoKj4nPENxqpeRqSKVKl6meOOQkai76P2hXJzT6YiiP5ptS6WtBaW2ytM40/YxVNe2DmYWZjsyp3HNdceymV8aMh+mveH0jcJWg4pRaXhu+qw2Eg0ROl2vFVpqTbfeH82Kq1KVdVMt7rryu+xhRRha113zNz0pjEy1Lhg0tQ9obetgXxoNhNwm0jVrX+hSt3xonZu5MJJRKj2j9Wldd81/1lMIU60LGCPTAGQ0eiENC0JvE+nsYtcfzd4YXPMtdbtHiFagj1uPpNocSmRPv+/ZtBUjUx0aL+IljRr0yYXnJuI6YpdrphZHLVbWb2PTnOqtczeDv1GcpE5jdLouuzrMMt2bVxad2RJjkFxw2vZKbSu1LQ0nK46iLBU4WRYqTBdccZI7+5Xj23ScysyVr50I731r1hvdaw3tWS9VInv0Jh2tjWoUosV0fHc0aPzZk+0uhOkr3LFsa1sHoX/NR/c7CFR/7oSu3nB6qzAwMj3Va32aV6vrkdm7mZRIkF50EKRzGeX9kvYrCEXvldbilvko1enwpzE7aPpGs4QwZYpXQS1IY40Ovwfow9XhGzdCeLg65L3EIzc6fbg6dNN+PymdUPISAlWHyuyg5daCZqd5FddLmeL1FDlI3Wjj9OHqkAsYXvVwdejWpHdlDX9XmlloV5W7QP3r4eqw1EYZGrSuw9tWr+mWR6aslxoQKUhdgH6qqup/brRBkGJVLlQfrg7Hsl3oi1Ibuzq3F5X105ZkN8W1wkOZrei1XICk8aLdusVvhccp2XGgIJ1LIdOxjC4Ab3Lu6Vi6Gu0rV5x/c80dlLswlUTjptzsNG/uI1NGpR7kgvRB+WHnMnJwWw/GBClCcKEqI9WflUZEC6ecOtOa1n5Tk81KLIepxmiIMG1JprRGyg97UgtRmmggODeKfLg6HMgNnIa3hR+B50Nz3dQck2GqWLFFmLbgNqwrHzXm9pi9l4pcQhTRySj1vdJa6gfaDq4u93VTqyNTjRdrznppa8eKFZFuNDpwWxk6+DuA7+QzuK0UqMdM97aicR0gTFfAemlH5PQXrc3RnxiNwhIpHtpQGCG5m016+K5Oo3jLZPMGq9W8GgvMVNytSKZ3NS4Q7s5/m6rHatAfrfQSJHsKTH80Gyj0Tr65OxoEn01yN3dyKPjMcy+72y5zzOd8JVrNGwbWOttZDVOKj7oxUZjeJUj/odHc26z+aLYtjRJ2tJYF+qPZrXQtm4QMVgnUHblO+Dz3SQrHg1khfXrnCp+XgbUBk7lpXsXiIy7mK5A7dd9tMDkHqcX1d80tH431R7ON/mjmQuh36dOs2XHorVSR/9kfzSZyjmwQ8jn1vd68k+8OmtO4PpibxbG4ZqrVrIF1utX4Tu9mPSKVUZJ2Vx1f0QO+P5otjsGKsW7lQnUmU8hByOf1V8/HZu10NRqzhuZuYCyGKeulkcmdte/FcbeAqV1rSwdRG//3RzM3pftbgN63y7iR6kXgQHVTtZceD/FO6g3QjMZ1wlxFb64jU8J0Nb531l8KOdHF2t8Y7flImGnuPV6FC+/TkFO+svbrM/PA6LQ5jRkV1wnJ1NakXMOU4qOG5I7aZ1R6KRvis3d3NDiWBhQWnNwdDWIuZWjuPW4jaOchaWvp8zneYd9pM4pVuKZGpxbDVOMLS7OG5nwuIHO5oy+JhWO45jGfh0zvxjrHdpkPUkEchEz3tr1ZWpeqZjTjM62+QJi+RKuSl85HK/G5AExKa1R/dzQ4DXwYdRO7kUellmYeQt+8eY1OFZ9H7jSuG0zzLqGxiK9xx1ME2WfXdibgtpTp3afujga7HQbqJwn0KGStVOOQfi0fQz64nKXbdnT6ganexjTC1FRFb45hyqi0OZ876aILLjoI1LkEaewTS8xtQQg51St8PtvsOW1Go66FkekSGnPghGlzbcP0Vu7giyaB+kuEoiQ32zLoIEgroy0OQ6+VnXpU9jLV24zGMoWFdfzvrIWpxp0G22IakL2lbad42QYg3JTr3dHABc6nqqrOFBs7uIA+codb3x0NtmP0rH2BxRM6go5I5GCGtlPpjEwb0KrotXRQuLXevBpfXDofNePzpe90v6VrZycjgB35zPhUgM9lysn9HLct7JFR43Ht+S37kp8uec7v744GqW/ter/iv/97oOfh47Tl+uxbt27KSUmN3Cqsx29YmY20Fqbe22Luz/fYY9pM2zA96epCISE1Vi5CWZeexO7na380c6PBsU+1rIwiX/yC90ezZRfq5DvprHozsOLJOlG4JiRrWwdtG7IP2OveyI1SmJpgZprXHalj4GmUpO3r3clFQvY6zkJXc0o/2JvARS7LOgmVtm/XsrafdaZ6m8mq4b2lNVONdRC2xTQgXY/azgJEn+KVIP0WsQOP+z2/y+9Vd3c0mC0pWnonI3B0r22Y8v41ozHDZaai11KY8gGMp+1rfR17ircWpF34FnCEyujUvrYjJ65lzWTV8D63MGWdopkkpnhlhNZVc/WFUA3Wl21zIUxtIEzDyqpIy2JvXoTXNhxiV8113Vy9kt+vvhVICpxeavrwVs4NRYc8ZmEsdYyyTON6wsj0GTRsiKftnXO0sktpYxfjAOomRoxOi0UdRiBKPdS7vtn+LrcCJMK0mbZhGnNaxlqYqD8f2ULyUiHSBwqRgHQwzYvGHq4OY24ItDbNSSESoO/a9xG1ThvzldU0Lw0bsmJt3SnU2syyrUaEKXKXTRGSpTA1M/eNbsl6qTVBwl26JZ298F+/jXBCCgAF1toJAlXL9fPLFbfubFsocJIbh2Vr/cf90ey1WoAbKQ67kIYQWs9tu836en80Y4YITc0UvocmagtyClPvuXckzQVJ4y0s/dFs3FWYSmXwvkzjvjbifdvg33m3aLPYH83c92Dic1ybhKjP62OlChv2aUzzmghTE9O8SgvInNIQ2NrWAf2TPcn+UTeS/Bxo6nhTOjddrLqdx4WojCp/Nx6IMQvh+MyjEap5y9R2C5Gpk+1T0x/N3Gjxt0j1Ae+kYf+rYeBaNvZHs1kCIboQM0zbvFehD4uHQYRpmdqGKXfpLUmQhj7x5ikXBBcv7VeVEL2R3sebkZ9bW7exDkqXA/TbYL97c/bO32uJAiSsgiYCLfRHs/0OgnRhXbbffL8RksMDxom2vYvZq7ntzSNh2pzG8pyJm/ycwpQKwuYuZM1uVUWPTGUq1F3MT5seHl470LxLm1JwddMyROfyz663r81facGojTBNg4nlJyvTvKzFxdX2y156leamTIm6tcjjhntAx0b2UH+W575KkLrw+iIzEhY6Uu02vYlR0naalxv7AlkJU9biInq4OrypjTZWsrZ1wGkmf4fjRzlA3AXr/pLK2RRfr+8h6rYbuQCTPsJfOnxOJ3dHg2gH00vlettpcEamBaIAqVxtF/4J0x+5C+7Xqqr+rz+andaPTpP/nFJnL1eF+qkeovX/UvbxvnRsXEguSGO3Vmz7+27lZhWFoQCpXBctp20J05d9kNNebmVtL5WCLfd8x00aPbhQk7XjGNPXc3leXRwQ3/ZzzhRvoRiZlqvtl36dqd5XvZU1yq4qeJt6HIneHQ02VumYJOE2CDxKdY896CJI5fPddoqXMC0UI9NCPVwdXqxtHcxbji72XzntpAvbUrHalMUG8vMVp9/ftNwf2ngk+hLZ67krr/mOvJ6+hYQ3EkaNq6UD2fd4WGvfC0RCmJbtQqYmV/XOFWgEPN+0zYX0XYRq459qPXVDTHHO7o4GjUNeqol/X/F3fFmlh/FrJFQnkfd/BiONGtp+js4erg5pa1oopnnL5nMXHWzvpObJJ4rmLjjujgb7d0eDN1Ko89LRaZYxDbmcz+eaUWnBCNOynbbdIuNGtB7t1pqw1t/0h4B3U6R3R4MdGa1+oR9r+jxHpRVhWjbCtGAyJeVzAQg5tWdtBPXs6ySjVbf+6Cp3f+lo6wg8rW0dvPHsrnTCFG/ZCFP4BOLm2tZBqOnemG3jmnj1psM1FZD9kP+rqupXE88aTfn2Krb2eUVkhGnhpIjo0uNV+BzinFPpuOPzvDSdrHJSiXQMyqIgpwQyvTvy+FMvXXV86a9j6ayEKdMj3fK98B/LNJm2rhvEV4vGAQaeBwJY2zrYUFjr5PMBM2GazZl2KXq4Ojz1LKDZDDHNZaAfbCXN1WkPlyG5ATz13KBsURwAABnOSURBVObEqBSPcprm5axNP769T111b4hA7aofbCXdgajQzNeFwqHojErxiDDFI7m79l2j/BgoUHcjj1DnEqQUlWRKPqe+QXrGqNQEE+8BBUio0ziZI1SguhHAzxGKki6lJyxBmiE3tbu2dTBT6Js892w7iL9lc/wmYYrv5OgojRGgC9RT7aIk1xlJ2u29l6lfrUYJ11VVHbkGDO7xWSPNkxQbaUztOmOOWlMRonCxE1Z68/KhNOLh6nAsp2b4XnBcz1/XTH9Xu4evFCZ9n9rpj2aDll/KG2PB+a4/mj0YeB7Zke0vvsVGC67oiK1P+IGJML0/37vpDae+DxO6yXlJ3HTvHwp/76YE6jjkxcdoL99KRrwaoyBNRW1Dk9mRsec+0ro5Z/qaY+IzzTQv/kVGklodfNxI4Ova1sFFiOYOxpkLecM3HupkhmWmGKTODm0DVWlcE0x8pglTPEtGkppbUtzMwR+uOEnWrkpgrdIzxVNuVuamdN3NW1VVv3m2CHzqV6p31WWzZmopTK99H6A3nJY28gltX+N9ecJVUf4poZr7++VzKk8IWVcou5GohOjvAZZ9TlgnxTKWwlRj6iSbuxwLZDprO0CgVhKqbqQ6W9s62M9xtOp69Bo6NPs6xwYU7oZsbetgsrZ1cCMj0RC1E24/qca2MfxbNtO8Vqp5YZQLVKmEvFGqhHzKFeh8lXXVW5kanWU0CphIQZfmdGMr/dHsjQR80lyFuBQBbQf6TNZdK+2/xvO837/78z0KkJ7QuLsIeVh1sWoj1NBTlm9lxPo1o9d6YCFIF5XVLlANPBdfu7L1KkaQblNwFEZvOM1qJjG3aV4EIhW+G4GmfLMkwWVpajWnQA3thCANTmOK18oxjdmFKQVIAQVeQ83RRYTR06oI1Ne5YqNdghSryG2alwtEYO4C83B1OOjwJJck9EezSYcNG15rs0igvuwTxUbRaCzLmelglts+U06OiUQuOJ+Mbf0woT+a7bzSKOBaXjvtfZ/XctrNhjz+MgTqj9wNyM8PV4cccJAWM2Fqppr3/nzvQqGloIVCj2K4C4+cwKFxnFUW+qPZxiv7Oedy4Pjj6yZhNvC8S3ePNav3GXan3vRHj5M935b87xaBur2o8pXns6iU9bk5/Uue12kCXZfcLMs+07rRaYxMzbxnaw8Pdvpq94ZTjSfz8/35XjEt06xw/Xerqvqs9XQerg7XUnwd+qPZ7JUbi6jnpPZHs91XArWqbf/YVzia7Dlu1DfW+rulMYPGflL3vHbpatSN3nCq8T6+dwMxC3+PtWlejcospq064E6bcUeYWaqui63BOulR7HNS5fc1mfL9I1CQVjJj9M3daMgJP12by1GDA4K0Uxo3RGZGpjn25mWvaUfc+Y4PV4eL80aLCtUm66R3R4NODpNuGKgxLKaVuzx15URCdMy0bne09phamoW0FqYad4mMTDvm7vZLCtWG66SdHttlKFDXZa045gh1LiH6k2x54fzk7mm8/69VrUdlLUzZa5qRWqj+LBez7Cp/a40Zlu0n3bVwCLmxQI1RSXwtRwluEKLmaFynTb2f1nrzagzZCVNjpHvS49496au6LSM1aw0N2miyTmqmC5JU+W5oFou1tF7rW6zpVm5ujuVzB5s0tjGaen+thanGnca6m4+30vwYP5J9fI9TotJAf/ET4rSPoKRSdlnRTmfrpK+wUlfwsT+ajT1H7YvDER5/GH0mQ2PQY+oabypM78/3bhT2mlbyRlGlZ5xUUn5/n+QYto0UishkzW/ZyTadr5M+R0allm5c3A3JeMX/zUT+NzOKiJKlEaamrvEWj2C7VPiyE6YJklHFjfX3Ttb6jlNYJ32GtZHyzqph+nB1mN25rCWRSl6NJR5T3y+LW2M0XiDWTRFSUuukT1j7btA5qzwqn0E3k2nplSNMgRU0WCe9NLpOumBubdpIIwfEo7GMY27LncVp3guFSkPudvEvsl7osyb71ytTkibXST3drniD+6bF94+94WXJbltMZTRMVcqde8PpgB69qDVu349wk7WzaBifkeO7o0HjNU3XNL+qqt8zew2gSyNMzV3bzU3zypYWjc39tBUsnLStm0mj99BB+uXuaEDRG7CEFB9pnO5FmDZE8wZ4kabzv0U8lm+Ds0GBV2kVH5m7cbUaphovFGFaqP5odvxK0/kQPnLYNvAqjRnDa4svc84j002tkwmQjv5oFupMziY2X2l4D5ROI0xN1sLkHKYV66ZlkWrdVbvpaPsggQ7g3zS2ZhGmTclmXI3jdQjTsoyNNM8fM90L/MjtsFB6SQjTFWm8YIRpISS8uprefWo9wGkoQOpUrscWi48q42Gq8YKxbloOa80SCFPgR1l2Plqw2LRhQevuY1vON0QEsm65LZ2GBm2729wdDVb94lmbhdh0o+UMmzh0Tlo6+pyH6ZaRZndHA5q6xJVt8VFlOUxd9yKl49gI0wjkAhejy9BLNA4b1sbpRWHsahSy9EezWzm04JibnrBkvVSjnsHs98nyyLRSOo6NddOApEn5Mf2Qs7UhLQKbSml62zX0+CoFY7uGT/rJgdYyDGHa0oVCmLp10w1rx/XkQEaj3xL9Uy5XmUouuOfsR0OFXaG4EdNv/dHs5O5owFp3GCrNGqTdrEmWC5Aq5XVTKEo8SEum0fdam5V1sI/SPQuKpAhUY3+p6SUT02GqWAKd27FYnZIG8gRpmqwVcMyNrVcSqPq0BjOEqaczhcdgZKpEqnW52KTL2gXJ4gXyo9wwQkf266VVImGq8QKu94ZTAlWHlS5DaMdakY3Vop9julip0QjTS8vrpVVBYVox1etPRqW5F6NkTfZWWtn4fnt3NLA6y0EXKwUlbIlZMB+mbr+pUp9ewtQfDdzzYOV97PpQgtfwefendUNifttSCiPTSumu5K1io+VSMVWeARmdfun4LzkzPCpdeCuzMWhPYxAzl0GVaamEqdZdCdM2fmjMkIm7o4EbFZ509NdcJ/Rd5AayJRm8vFV4qCSaaSQRpvfne1ovJlO9La3YBQcJkAYFsQPVrdduJ9S+j5Fpe1o3TEm05ExlZFopbZFhqheokUD9RakuYRnXLOKL6zpFH9xiaA1ekhiZWm8nWOde0A8Kj7NLYUFU7gI6lh6+bDUwyPWk7Y9mF3Lx0z6s4Fb2JU8UQ3S/xWdpIH14EYHiFO+Z9S0xC6mFqUbXnR3CND6Dx10NJECayvpGQILuuLa/ciBTnG2mOW8WP3dHA/We2G0+S/0Rp61FVkwV70IyYeruTnrD6bXCXfPjVG8K1WEIal2pX2h2JFg5Og4+iuh6VJfSmmml2MaOkWl+LE4FcVIRitMbTneUpnivUzrtK7UwpaoXL7F2BzsPMcUJJEDr+ppUD/CkwlTuUq4VHsr16mXPaV7oOQt0TI5bK6qKdyGlAqSFiWIhEqefZMKNAvuj2aWhddAiPlvSIeh7kdLd0cB7huDJnuYZW2mSsqPUi/cypSneKtEw1arq/dAbTjdSe8OwlOvq87uBl+hSI1Qsk8AbP7156Y9mc7mRGK8SglJBPHnuIAW5Sdo3WBGOf9OqR0nuZjS1NdNK9hxpNHCoaC+YFwmwo47/qHnun6v+aLYrNy3PzQK4UcnIjShlb3GTxxtIsdZLJxK53/OH/F4YJXtLtfYoJ7dMklyYCnr14ll3R4N9pXX1tnZzLjySQ7ObzAy5as7T184Elf/+ouHU4DfaWpqmNSpNplFDXZJhen++dywjAF9vKUTK0nYHgeo+j59cN6HMX9vJCv/u2wYX2MmKa2zUORikXHiU5Huc6si0YnSKl7i1urujwSDilO+1NG/P+kIvo9JV9w++9v1a9bD5t02njxGVVuHRXPFgk6hSDtNV7pCXeecKkcI8RXRJpnx/Cngyyq2MRgeFFMe0CbEXzwT1mLJlqtcerYPek70hTbGa95FrB9gbTm+VOm2MGaHmSdYvd/uj2b7cPW94Xozd47ngvKC6tLEN5W5QHJhgSG84dd8njetwpThIii7ZMBUTpZMgPvaG0/0UF73RTK2RO+Lje5U3rVFpcntL61Ke5q2UL4706wWWa3Ohmy8Zwbcd2dOE3whZItNqlJL0zW7SYSojSa31MMIUWO60RRX9i8UkMluw6p7x29wbYiRGa1Q6l10ayUp9ZFop3s3QrxdYQsJvlYvnvMFN6v6KAc1NrxEyKl21GvslyS/BJB+m9+d7F4p7CrXusoAs3R0NJg1ng+ayXWjpeqkUiDUNyC8F7ONNiebgI9nCo4UcRqaV4htBEwfgFXdHA/cd+bRkRHkpQdpoTVT25/4s/7vnuKr9X+6OBtzsGiFNGjQ7HiXfNSz1at5Hbq69N5yu2knlJWOqPoHlJACPZa/oYqvRjWwZWvnCKMG7LQ0ZtmvbXy5YIzVpX+l6W+UwKq1yCVPh3pDPCo/zODpNfTEciEGCTi3sJFTZv2uY8qj0VpbqkpfLNG+lfHfDdBIAPE9zVJrNtTabMFXeJsPaKQA8oTwqTX47TF1OI9NK+S6H0SkA/Ii10hdkFaZSEaZ1cDijUwAQ2qNSwtQ+1k4BQJ/qqDS3XuhrDw8PBp6Grt5weqHYL/LX+/O9rO6g2pAtEL+n98wBL1/Y3/q929Gfig/5Uw57S+tyHJlW2munMr0BAKXSvKae5BakVa5hKvuWXuqmsqp1+oF+308IlCa7i/6qesPpQLEHb5Xr8lmuI9NK+Q3bl2mO0mn1QAZSQQMJ3TqULEelVc5hGmB0Wvy6CedIojC3TfsL56o3nO4o1p9UOV9Hcx6ZVspv3MfecLrd4N/LWfGFWCgKLUUZlTaWdZgqj06r0sNEGphrdZkCLMtuH+SqesOpG4y8VXq4JmfbJi33kWmlPDrd7A2npRcjjVc8zBlI0eS1s1hzJjUimte67PaVPpV9mMroVHM0VfRWmRUPcwZSdMne0krrSMuqlFF+CSPTSnl0ul769I+cZXlk4KkA2lzF+k7Jr6rUhnxQfMjsR6VVrh2QniOHh48UH/J9LufwtdUfzdwI9Wuazx74Fxek24VP776R7UBaa6XuvNIithWWMjKtAqz1FV/pd3c0cDco790XxsDTAXy4toGDkoNUaBYdVSVtKSxmZFr9fdelPZL6cn++V/rayqP+aLYb4IsIhObqKcZSC1A06XT0h+JrcHl/vlfMdsKiwrT6+wNzo3zB//n+fI8uKaI/mrkvpPsCuX/SNQoWzaQByQUj0X/0hlP3umwqPmRRS2H/NfAcYttVPv3kWIIDf0/9zmjBBqRF9pRqBulJaTUlJa2ZPgrQyGFTPogAkByZ3v2s+Lyzb9DwnOLCVOwqP95n+UACQGq0iynHJWyFearIMJX+kF+UH7b46l4AaQkwvXt9f75X5D78UkemlVTham7p2JS9rABgnjRn0JzerUrujlZsmArt6d4RJ8sAsE6aM2jPph2V3Mim6DCVN/5M+WFPS+7dCyAJE+UtgvPSz3wufWRayehUszPSOuunAKzqDafumvdR+entllh0VFd8mMoHQHu69wNHtQGwRnYdaNd2nN2f752W/mYXH6bV34F6qrz31PnKdhkAVtTWSbWOVqtK3VP6HML0H9rTvRXrpwAMmShvg6lkT2nxfY0rwvQf8oHQvsN6y/opgK4FWie9LHVP6XMI05r7873jANW9H2g3CKArgdZJ56Ufov4UYfpvIaZ7P7P/FEBsssx0qrxOWlG9+2+E6ROBqnsrWT+lIAlATKcBzhimevcZhOkz5INypPywj/tPKUgCEIO0N32n/KtuAw02kkeYvsytc14rP+YmBUkAQpOCo1GAX8P07gsI0xcEnO79QEN8AKHIctK3AA//peTeu68hTJe4P9+bVVX1a4CHHsmdIwCokSANEXiXctIWXkCYvkL2UWlvl3G+UeELQEugDkcV22CaIUyb2VU++3SBCl8A3iRILwJ0OHJ2WCd9HWHagHyQQtyZuTvIi95wuhHgsQGUI0SrwIp10uYI04Zk/fRTgIdep4cvgLZ6w+lxgFaBFeukqyFMVyDtBk8CPPSmjFAJVACNSavSEEF6yzrpagjTFd2f7+0G2H9aSaDSVQRAI7Ij4HOAV2vOOunqCNN2tgP073XeyZQNALxIgjTEXlJnX5a1sALCtAW5Ywu1reUjgQrgJYGD9EiWs7AiwrSlgAVJFYEK4DmBg9Q1sNc+07kYhKkHuYPTboi/QKAC+C5wkF7TwN7P2sPDQ8rP34TecOoKhz4Eei4nUvQEoFCBg9TVfwzuz/du+Hy1x8hUR6gK34oRKlC2CEG6TZD6I0wV1AqSQrQcrAhUoEyBg7SiclcPYaqk1nIwxJaZikAFyhIhSD9RuauHNVNltSOQtE9uWDjjgF4gbxGC9IjKXV2MTJXJlEnID+kHWg8C+ZIWgSGD9IQg1cfINJAId5bXUjjACBXIRMCm9QvsDgiEkWkgshYRqqlDJb18Z5yHCqTPzTRFCNLrwLNmRWNkGphM2YRoRr2wKG2nIg9IUOCDvReYyQqMkWlgch5giGPbFlyh0x8yrQwgIbWCRYI0cYRpBLJGETJQnW8yCgaQAII0L0zzRhRhTaSS0N7nywPYFaFAsSJI4yJMI4sUqHyJAKN6w+mkqqpR4GfHNSAywrQDkQKVwiTAECk0codivAv8rAjSDrBm2oFIa6gUJgFGyProjCDNFyPTDkWa7qlYRwW6Ize0k4AtRhcI0g4Rph2LVIhQLQ7/ZdoXiEOmdScRlnQqgrR7hKkBEQN1LiNUTooAApJp3ePA214WaBFoAGFqRMRArZj2BcKJOK1bEaR2EKaGRDi+rY5pX0BR5GndimPUbCFMjYkcqM6v9+d7k2ReIMCg3nC6LdO6byM9Ow72NoYwNShS4+u6Sxml3qT4egFdinCYRR11D0YRpkZF3OC94L6kY0apQDORi4wqGrHYRpgaF6lbUh2jVOAVkUejldQ47PC9tIswTUBvOHVFBl8jPlNGqcAzOhiNOmdyg0v1vWGEaSKkwOE0YmFSxSgV+Jssu4wjdSyro2I3EfTmTcT9+Z4rSNqW6Z5Y3Hrtn5yTipLJjewscpDOpWKXIE0EI9PEyB2ym2b6EPmZ38oo9SL5FxFooDecbsi+0S6+azsUGqWFME1UBwUQC2dSms/UL7Il36/9yMsqlSyt7LA+mh7CNGEdraNWMgXl7tgnfOmRk95wuiOf7VjNF+q+3J/vsaSSKMI0cR3sR627lapfNpAjaVKlO+noezSX0ShLKAkjTDPR4bRvJUVR+1wMkBpZFx1H3stdx7RuJgjTjHQ47btwKSNVQhWmyYzOfoc3oBXTunkhTDPTYbVv3YmEKkVKMKUWol0UFy1QGZ8hwjRT0jVp3OEFoyJUYYWREK3oZpQvwjRjsh50Grn12XMIVXTCUIjOJURP+STkiTAtQMfFSXVnsp2G6S0EJTeSuwZCtKLIqAyEaSE6atD9kksJVe7SocpAdW4dB0YUhDAtjKFRarXYp+qmorlrhw+pZB93tE/0OXQKKwxhWiC5ez82dOGZy/OZcPFBU7IeuiMh2kXHouewNloowrRgRip+n3J39MdcjPASWbLYlyC19Nk9kmldZlkKRJgWTu7uJ0bWmOpupRKZ0Srqo9B9I+v+dXQAA2GKv8ma08TghaqSgqVj1lbLI43ndwyOQisKjFBHmOIHRqd+604kVJkGzpRM4+5KgFpZC33qREaj3NzhEWGKf5EpNReoI8OvzlymgQnWDCQSoBX9p/ESwhQvMlj1+5LvwVpV1QWjhTQkFKAVxw3iNYQpXmV8PfU5riL4QkatFC8ZITMe24bXQJ8zlyI4TnfBUoQpGusNp7vG9vQ1sagKvmDUGp+MPnckRK3PcNTN5QZywmcGTRCmWFmiobpwvQhWwlWfhOd27SeF0edTFBdhZYQpWks8VBcW4TqTcGVauCGZtq2HZ0ojz+dwuhFaI0zhLZNQXZgvglX+eXN/vjez8dS68yQ4B/KTw/tdEaLQQJhCTWah+pTbEnEjPy5o/8oxZGuh6X42av85xenaZRZroseEKDQQplAnobqbwbRfE7cSsC5Y/6r988biRboWlpWMMuv/LOH9orAIQRCmCEa21LiOSh8Kf5WvJWCrWthWL/zfz3H//ZsGv2fw5N+r/985ji5XwT5RBEWYIjhp/rAvo9WSL+iI70xGoXQsQlCEKaIxev4k8sP5uIiOMEUnZAp41+DRb0jXpRQUMZWL6AhTdEpGq4uCpVTaFcIORqEwgTCFGYk1Pke3zmQUyolBMIEwhUnGD4VGNzgkHmYRpjCPYC3adS1AmcaFWYQpkkKwFuGsdjYtAYokEKZIllQEL473ongpXfPaMXlM4SJJhCmyII0h6uHKqNW2y1p4Fn+QANJHmCJLCR9KnSvOkUXWCFMUQaaEt2vHiDFyDeuydpQd4YnsEaYoUm1aeHHEGKPX9q4lOB9/6IOLEhGmgJCp4cU5ntuctPKsy9qRcwQnIAhTYIknh2W/kZB9k3n18NMzWi+sns8KWEGYAi3JVHH9p37wtuVR7aX880Z+vh9qTmUt0A5hCgQmxU8Li/Cte3qodxtPp1sXAbkwowgICIcwBQDA0394AQEA8EOYAgDgiTAFAMATYQoAgCfCFAAAT4QpAACeCFMAADwRpgAAeCJMAQDwRJgCAOCJMAUAwBNhCgCAJ8IUAABPhCkAAJ4IUwAAPBGmAAB4IkwBAPBEmAIA4IkwBQDAE2EKAIAnwhQAAE+EKQAAnghTAAA8EaYAAHgiTAEA8ESYAgDgiTAFAMATYQoAgCfCFAAAT4QpAACeCFMAADwRpgAA+Kiq6v8BKmMR/YqSCfUAAAAASUVORK5CYII=" parent="171" vertex="1">
                    <mxGeometry x="3" y="21" width="50" height="50" as="geometry"/>
                </mxCell>
                <mxCell id="276" value="&lt;p style=&quot;margin-top: 0pt ; margin-bottom: 0pt ; margin-left: 0in ; direction: ltr ; unicode-bidi: embed ; word-break: normal ; font-size: 11px&quot;&gt;&lt;span style=&quot;font-weight: bold ; font-size: 11px&quot;&gt;&lt;font style=&quot;font-size: 11px&quot;&gt;SAP BTP, Kyma runtime&lt;/font&gt;&lt;/span&gt;&lt;/p&gt;" style="rounded=0;whiteSpace=wrap;html=1;strokeColor=#074D92;strokeWidth=2;fillColor=none;align=left;verticalAlign=top;fontSize=11;fontFamily=Arial;container=1;recursiveResize=0;collapsible=0;fontColor=#595959;" parent="170" vertex="1">
                    <mxGeometry x="401" y="88.5" width="180" height="198" as="geometry"/>
                </mxCell>
                <mxCell id="278" value="&lt;p style=&quot;margin-top: 0pt ; margin-bottom: 0pt ; margin-left: 0in ; direction: ltr ; unicode-bidi: embed ; word-break: normal ; font-size: 11px&quot;&gt;CAP Application (/apiReceiver)&lt;/p&gt;" style="rounded=0;whiteSpace=wrap;html=1;strokeColor=#053B70;strokeWidth=2;fillColor=none;align=left;verticalAlign=top;fontStyle=1;fontSize=11;fontFamily=Arial;dashed=1;dashPattern=1 1;fontColor=#595959;" parent="276" vertex="1">
                    <mxGeometry x="35" y="79.5" width="110" height="79" as="geometry"/>
                </mxCell>
                <mxCell id="292" value="" style="shape=image;verticalLabelPosition=bottom;verticalAlign=top;imageAspect=0;aspect=fixed;image=data:image/png,iVBORw0KGgoAAAANSUhEUgAAAdMAAAHTCAYAAAB8/vKtAAAACXBIWXMAAFxGAABcRgEUlENBAAAgAElEQVR4nO3dQW5byZbn/5sPDwbRGsi1Ars2YCnnBqwEakzprcDyAgRSKzC9AlHgAiwtoJCSgBqnBGieklCTmnRK0x50mYV2g6V61W6E81zntZISyRsn4p6I+H4AI1///90yTUn83RNx4sQPX758qQAAQHt/4b0DAMAPYQoAgCfCFAAAT4QpAACeCFMAADwRpgAAeCJMAQDwRJgCAOCJMAUAwBNhCgCAJ8IUAABPhCkAAJ4IUwAAPBGmAAB4IkwBAPBEmAIA4IkwBQDAE2EKAIAnwhQAAE+EKQAAnghTAAA8EaYAAHgiTAEA8ESYAgDgiTAFAMATYQoAgCfCFAAAT4QpAACeCFMAADwRpgAAeCJMAQDwRJgCAODpr7yBQHy9/mRrzl/6vKqqzRVezKeqqq7m/H+/nZ3t3fJtBeL54cuXL7zdgKdef7IpYfhS/lQSjM8b/3u9o/f5WoK3kvD91Azi2dneeUevC8gGYQosSarJOiw3G5VkVyGp7UK+3nkjbKlygSUQpsADEpqbjdDMKTDbckF7K39c2F7NzvY+hfmrgPQQpihaIzjrPxulvycrmEr1ei7/vaKKRakIUxSj15+4SrMOzy2CM4i7RsCez8725jVIAdkhTJGtRnjWf17w3e7ERSNcaXZClghTZKPXn7iGoB3C07xTKlfkhjBF0uRIyo78Ydk2PXcSrCezs72T0t8MpIswRXJ6/clOowKl+syLq1pPJFzpFkYyCFMkoRGgOxxTKYYbNnEkwUqXMEwjTGEWAYoGF6xjKlZYRZjCFNkDHRKgeMKphOoRbxKsIEzROTnCsiMhyh4oljWV/dUxXcHoGmGKzsgy7m5VVdt8F+DpTpaBj1gGRhcIU0QlVeiu/KEKRQjHEqoMiEA0hCmikBm4LkDf8o4jkmtZAmZvFcERpgiq15/syl4oAxX+0LxftOZTRTXvUK298XuJWZnKEvCYJWCEQphCnYz1Gxa4lNu8D7RqXFnW6QXcjYvLKxl0UTXuY31Z2PfILQGPOLcKbYQp1DRCdJjxsZbmvZ6ug/RTDntzjcDdalx6nvM9rqdSqbKvChWEKbxJU9Eos/3Q+iqx+jqx2xKrGXlAat73+jKzJeQLqVQJVXghTNFaRiE6bVxwfS6XXLO39gSpZLcyulSdUIUXwhQryyBE65tK6mvA2D/zJBVs8+7YVMOVUEUrhCmWlvCeaD0ph/CMJINwJVSxEsIUCyUaohd1gDJqrnuymrHVuDovlZ8jun+xFMIUT5JzoqMEjk80q09uFjFOhnjUNwKlcDTnUEKVnyvMRZhiLvmwGxtfnps2LpI+MfB60II0M+0mEKxTCdSxgdcCYwhTfEeW48aGh88ToBlLJFhdA9su+6loIkzxVWNf9L3Rd+S0EaIstRUggbttLyRU2U8FYYpvV6GNDVYC9bVaJ3xglU327neMrph8mJ3tjQy8DnSIMC2Y4SVdrtDCXIav8GPpt3CEaaF6/clQunStLJ9xuTNWItXqrrHxhqcSqvwMF4YwLYzsQ40NfQBdyMBxmonQisGJXFMJVH6mC0KYFqTXn4wMNRgdS4gyUAEqDA4XoUGpIIRpAaQaPTJwZnQqr2PMBwxCMjRshLOphSBMM2ekGp3K0vKYvSTEZChU2UvNHGGaKdlHOup4b5QQhQlGQpW91IwRphmSD45xh/tGhChMMhKqzPnNEGGaEWnAOOrw3CghiiQYCNVrqVJpwMsEYZoJaTI66fDDgauqkBwD5633aU7KA2GaAflAOOjoX0L7P5Jm4EgNzUkZIEwT1vGyLuPTkJWOhz+436cdln3TRZgmqsNlXc7NIWsd3+X7bna2d8RPWHoI0wR12K3r9kWHLEehBB3up/J7liDCNDG9/sSF6CDyq76WX26WdFEU2UoZd7D0637ntgjUdBCmiZBf6pPIQximcsyFuxpRNFn6PYq8rTKVQGUfNQGEaQI6mq1Lly7wQEfjOdlHTQBhapw8EZ9E3LehwQh4QkcPt4ezs70h3xe7CFPDpNHoY8RXSDUKLKmDKpXzqIYRpkb1+pOjiE0PVKNACx1UqTQmGUWYGtNB9yDVKOApcpc9Ax4MIkwNkSA9j/iU+4FOXUBH5P4GOn2N+Uvpb4AVkYPUPdn+SJACeuQc9kvZ2wzNBfa59FXAACpTAyKPBqSJAQgs8uUTHJ0xgDDtmATpeaSlIa57AiKJ/JBMoHaMZd4ORQzSelmXIAUikf3MzUjLvh/lqA46QmXakYhBeiGdfyzrAh2JeCb1eHa2xz5qBwjTDkQMUqamAEZE7PYlUDvAMm9k0n33a+BfqKnsoRCkgBHS7bslgxdCeitDXxARlWlEkcYDcv4MMEyOwbmw2w78KqlQIyJMI5Gl3V8D/22MGgMSEWlqEoEaCcu8ETT2SEM6JkiBdMg2zLvAL5gl30ioTAOL1GzE0yeQqEiNSTQjBkaYBhQpSDmsDSSOz4r0scwbCL8cAJbVGPAQstP3I7N8w6EyDUC69a4CjhGjYxfIUKQLL3gID4AwVRbhl4EgBTImnyFuD/VNwH/lj3yG6CJMFRGkALRIF+7bQG8onyXK2DPVNQ4YpG4vZZMffqAM0qF/HOgfW9+H+pwfJx2EqZLAT5H1MIbb6P8wAJ0hUNNBmCqQDrnQQcowBqBAgQN1Q/Zn4Ykw9SQHrkPN2yVIAYQO1DdMSfJHmHpo3KQfAkEK4JvAgerGDjIhyQPdvC0F7twlSAHMFbg/4ye5Kg4rojJt7yRQkLqW9R2CFMA8gSvUE1lxw4oI0xbk6qQQB6qndO0CWEQC9TTAG+U6fI/o8F0dYboi6dwNcQchh6gBrGI30CzfDbm8HCsgTFcgyx/jQF+eIAWwNNkK2goUqNu9/mTEd2N5NCAtKfDwegZPA2gl8GcTDUlLojJd3hFBCsAaqVB3ZKtI2wn7p8shTJcg56+2A3zpY4IUgC/ZItoK8EauMyFpOYTpArJPehDgSx9LRx4AeJNAfRfgnXzD/ulihOkTGvcKanMNA0wbAaBKVro+BHhX38voVDyCMH1aiH3SKdONAIQyO9sbBRrqwP7pEwjTR8h5Uu19UoIUQAzDAEdm1jl/+jiOxszR609eSqv5uvKXpnMXQBRSRd4G+Bzbn53thTpvnywq0/mOAvwAHhKkAGJpDHXQNpKCAw2E6QPStaY9d/didrZHwxGAqAJ1+HJcZg7CtEGOwbxX/rJ3cqAaAKKTFTHthqQNjst8jzD9XohlWK5TA9C1EA1J77mu7Q+EqZCnLO37SfcZXg+ga/JAvxtg5CB9IIIwDbe8e0rHGwAr5MFeu3eD5V5BmP5OO/Tu5CkQAMwItH/qlnuL7+4tPkxliL129y77pACsCrF/Wvxyb9FhKk9T2ksUH9gnBWBVY/9U0xspTIpVemU6Vh7OcCFzMQHALHng31d+faOSZ/cWG6a9/mRHefbulH1SAKmQBskLxZe7HqD/JBlFhqk8PWl/00ezs71b5a8JACFpH5d5W+pVbaVWpkPlq9UuOAYDIDVSAGhvTRX5WVhcmErTkeaZUpZ3ASQrwHLvRonNSCVWpizvAsD3tJd7i2tGKipMZS1fs+mI5V0AyQuw3LseYPnYtNIqU83gY3kXQDYCLPcOSpqMVEyY9vqTXeVB9mOWdwFkRrtAKGYy0g9fvnwx8DLCkrX7K8UO3uvZ2R5XDwHIjgyu12zS/Gl2tnee+09KKZWp9lGYosdmAciXTHG7U/wHFtFXkn2YSlWqGX7HJTxlASia5nLvhmyzZa2EynSoOH93SlUKIHdSMJwq/jOz7+zNOkylk0wz/EZcrQagEEPFs6cvcq9Os25A6vUnrpPsrdKXu5ud7RV/AW5q1gY3rlHMnS9+Lv9Nzpf/87/u//5v//Is0W+Ba/xzD6Dn95cHbI8kRrkZKevP0GzDVKrS3xS/ZBEdaTlYG9w8lz0f7cazTnz5z/+4+/u//nPy/w6pck7cCs/95QHHyhIQ4CTEu9nZXpbHZXJe5tVco78gSNOwNrjZkV/+gxyCNDPrslL027PX+9z7mwDZ1tL8XmX7fc8yTKUq1VrerZh0lIa1wY1rwf+ZEE3C+2ev96+evd4v9jLpVEglea30crPdO821MtV8+jlm0pF9a4Mb9ws/KP19SIybSHZOoCZBtZEzxzcouzCVNX6tqnRa2rDmFK0NbobKKxGI52ug8n7bJttcWnN7s6xOc6xMNZ+gmL9r3Nrg5qXsjyJdG+yhJoG90ydkFabK046mpd4Yn5hiBmlnbvjs9T5HzwyT6vRY6RVmV53mVplqTjsaM6DBNuncfVP6+5CJ4u6/TJTm94gwNUzrm0NVmga+R3l5++z1fpKDNUoh215a1embXn+Szfc7mzCVJQOtIxFUpcatDW5GHIHJEg9I9mlWp9nMOs+pMmWvtBDSdMSFA3lyzUic6zZMuTrdlrkAycsiTGWpYEPpy1GV2jdS3BuHPWPOnppHdfrAX029mvbYKy3E2uBmy/NMqdZZuXj+a3ZfVVWKR7Q2Wz701M1IrD4Y5arTXn/irmjbVniFu26gfupFTPJhqjw68Iiq1Dyfh52Lz4evEm14+CcDr2E1z17v78h4xzYGz17vjxmIb9pYKUzdw9NO6sfccljm1dxfoSo1bG1ws+u5nM9eXET3lwcnnisBnCE2THkqUvLHogjTPzCD1zC5Vs3nYefD58NXfH/j81mqfSPVLezSKkBepH5MJukw7fUnO5rHYZS+DsLwaTpiL7wj95cH7jq8Q4+/ne+bYbOzPbf6cKf0CpNeOUq9MtV68919pVdKXwvK5CiMz40ww8+Hr9gL785IHmjaeMHcXvO0vj9vZSRskpINU2k80tj8rnj6Nc9n78w1HbH31qH7ywPfC6aZ22ubq07bPiw9lGx1mnJlqrWXcidLFTBIYf4uVY0B95cHY48Lppnba5icgNB6YCVMO6B1Bo2q1Daf78/x58NX3JVph8/vLHN7bdP6HN3o9SebKb4BSYapvNlajUcsARrlOX93yqF/W+4vD9yDzanHi+LB1yg5CaF1TCbJ6jTVylTrQ/KYIQ02KczfHdN0ZNLQY3+Nub22aT3sJHkcKtUw1XqzqUrt8jkKc/f58BV7bAbJRCOfD13m9hqleEzmhRx7TEpyYSpvssaQ8zuZ4AFjFObvUr3YNvb40KUZyTatZk7CNAKtN5n9F7t85+/ykGSYwlGZAUdlzCp2qbfkMOU4jEHM3y3D/eXBEXN786PYiLSe2lJvUmGquMR7yhxee5i/Wxzm9uZJ60GHMA2IqjRvQ+bvlkPm9h57/IP5fttU5L5piWE6JUztkaMw7z1eGPN30+RzVIa5vQbJcUOfh6RaUku9yYSp4hLvCWdLTWL+boGY25ut4qrTlCpTlngzJUdhmL9bKJnby1GZjMiZU43h94RpABpzOacMtTfJp6pk/m4efLqwmdtrk8Zn7Xoql4YnEaaKs3gJUmOYv4tKZ24v1ak9RS31plKZssSbITkKw/xd1HyPynDG2BDFpV4qU0UqXbws8ZozZv4uajK394PHG8LcXns0PnPdtWzmm8zMh2mvP3nuORGnRpAawvxdPMK3GYllf1u0PnfNV6cpVKZaS7w0qdjiU1UyfzdTCkdl3nNUxhSt31Pz+6YphKnWEwmVqREyf9fnKAxVacaY25sPOdPv01hWozJVoPEmXjCowQbm72JJPtXpG47KmKJRna7LqQ6zTIepbDpzJCYvzN/FQnJUxmckHdWpHUUckbFemWo9XbK/ZgDzd7Ei5vZmQG7oattU1mR6taGEMHVHYq4Uvg78MX8XS5NmJJ+ViCFHZczQqE59+iyCKyFMWeI1gPm7aOP+8mDkeVSGbQEbVFYHLY8WNBumivulLPHawPxdtMXc3vRp/f4Spi2wX5oJ5u/ChzQj+RyVYVWjY3Ka4lrhVZjt6LUcphpv2p1sfqMjqc3fdcvR8oe9Nlt8qlPm9tqgUdiYrUz/auA1PEbjTaMq7V5q83d/qf/H2uCm/p+uOnZNbLfyx/1cXdFZHI+b2/vs9f4Hj25wN7f3RJqa0A33ezPw/JvdedOXFosky5WpxjxewrRDGc3fXZfmqbfyYe4C99/XBjdXa4Obsfw7Ed7Y46gMc3u7l/W+qckwVezYIky7lfv83Q150v5lbXDzSYI1y7mwbtlblr87+/dJVekTiMzt7VDu+6ZWl3k13qwp+6XdKXD+7roE62BtcOOaZUYpdiDLXvGW/A66/z68telDlw09bm6v7H+2/dk6SuV+zEydK6w6EqYrYL80YfKB7POBm/r83TdSrSYRqlJt7sgDjMb2Smij5t72ir7O7ZUOYcSnMUDH5PAGq3umGksxTD3qztDzKEwuB+3rUD23uPzrVg/cvm9VVb9VVXWQSJAytzdtWsMbzFWnVsOU5qNEMX93LheqV3LetlOy9zlye7xVVX1MJUDnGDG3Nz2y9db2+9ZEmC6i2HxEZdoNn6ryOuP5u25P9X2XVarsY9/Kw07b40omuKMyzO1NlsZns7mVHouVqdawBs6TRSZHRLY9/tYSji7UVWq066TWBjebspz7MfUQbWJub7KyHN5gMUzZL00X83eX4z7If3ZHaUL/RbK0/GvCy7mL+DyAubm9pi+czpTG5zPLvEvQeJMI08jWBje+TUcl7mG5YzQnIUYXuqVkqUZ99q/Nu788OPGc20t1Gp9Gp76bhGRqmT7XMKX5KCKFozDjxI/C+HDL4ueagSpLyFcZV6MPMbc3IYr3S5uqTi2GqcaeDsMa4kpt/q41LvRu3d6m7+uSFYKfc9obXUSakQ49vsSIZqTofFYTaoTpY7Q6eZl8FI8EgM/8Xeal/m5dKtTWHxBrg5sjOS9aIq+jMvwcRqfxGc0y7xM0mo80nniwPJ89Jzd/94T3+ptWgSpnR088H2qSxtze5GiEqamO3hzDlKo0kgLn78bgAvVXeW8Xkr3Wc88jSVlwc3s9B6nTjBSPRl8LlekTNNbACdMIFJqODgtuOlrGx0WB2gjSUhqNluFTnW67ub3xXmrRNOYAmPq5txamGk8aHIuJI9ejMP9QVdW7qqpOO34d06d+lgnS+WRur8/3jrm9EWh19LqLwq38m3KsTJl8FFjO83fd63IjDT8fvnLHS/6xqqp9jyk7bbkg3fp8+GruB47sqd5GDtI7uX4thbAZes7tpRkpDo3fK8L0Ed7t/LOzPc6YhlfE/F23DP358JU7A+t+YX+K1Nx2t0SQnkc8+uL2IN+598AdYUphaV5hbi9HZeLQ+FkyE6Zm7jO1eKUO/iyF+buy19j8Jfv6gOUzrlD+325JVT4K1Dl7LUE6t2qPHKTqd7HK63ch9emxhwVFY2lwa7MVsd74f49wrhTuJiVM59B4EuRYTHgpzN992GX8dUl6bXBTNfYiz+v/rrLkLJXZrszVHSteVOz2+XYNBOmdLMO3OrIkDxubjT/P57xHF6GPNbijMrJc+3PLL+Hm9o7vLw/owQhHY6vHzAqCpTDljJdxmczfXZcP928f8GuDm2sJqqNlKyb5v7cllfqRx/vifHhqCpT8HSeBg3QqYx1X+h5JI5R7fTvyX5/3QZWb2/vs9f6FxwPP2OLtJBnJauC9pT1TjTBlvzSQzOfvukaegZzvdGP9xssOTpBKe1Oac1blAuynBUHqquxfAgepC5zNVYLUvS4ZFPHvUv29tRSkDT7bCsztDSurZlGLs3lhUynzd180gvVqmeEJ0gHs/n0/rjA0wC3rvnxq2VtWAj6u9OpX48J8//Phq61lHnTkJhr3oPFJXpf5QRGyTMvcXps0Hq6pTOdgYINRBc/f3ZDhCbdLhurV58NXmws+vN2e5N/c0Zun9mojzNm9lmp0YderhKh7Pb/Jg0ZqQ/SZ22uQ0gx1Mz+LlsJU4+mPMA2j9Pm7L1YMVffh+7cHH+BTWQrefOr9kDm7V4Hn7LrpU5uLqtEHIZrs3F+Z2+uzMsLcXizEMi+exPzd79SheiVNQY+SwNyS/cgPsqQ7WlCNbgUexjCVqnhhpbU2uBlJg0gWw/PvLw/GzO01yed78pXWbWO+LHXzei/zMrBBF/N3H+XC7pe1wc3xU9Oc6o7fZb6ghJfPVKlF3PLyzqJuZaXuZKuG0szVxte5vTKuEHqyaUKyVJkWc5lxQnKdv6vlrVzqvdP267n9aFnWDRmk9f7ooiAdS9jkGKTM7UVQLPNiLjl879N4YXb+rjL3EPiz21uUSn4psjfqwuvXwDN2j2V/9Knl5TrQBwFfhxU+P9PM7dWncdbUxH52TmHqvfaO7/gchUlm/q6it8te7C370LcRwsstsy+6xm23pNtnZG5vmzPBNY7K6NJ44CZMa0obyNwWoySF+btGbUigLtN0FXpb492iRiOpjD8WuMUy9rixZL2A7Qu0wDIv5vHpXIw1f9eqden4ffQ9lKr9XcDX/+6plQFZYj4vZFn3TxSOygyevd7nYg58hzDFd2TqTtslvxKajpY1cIH12D6qhN1PHsME5qmPvjwVpC9lWVdrQH+S7i8PjjwvxuCojI5sLhIgTPFN5vN3u/BGln3n7unU17opBWp9ofhTAyE25cOriP3RJfjO7W3dxY1vNLbnTKwS5BSmnP/yNypk/m5MLriuHmtMapxF9QnU6VMXild/7IPHvFTcPJnbe+zxOsc0I5lg4ntgJUz5geyYVE8+e2gcGXjc+lOdvp6BukyQxrh5JlVD5vZCg5UwZTO/ez5VZQ7zd0Nbl5to5nb6tgzUuyWDNOTNM0lTaEYiTPEVe6ao+ez/cOfj8j4uCNSXS56ZXjjViCBdjsztbX1Uhr1TVIQpqj/209ouAeY6fzekpwL1k1SoTwXqtVSkT001GhOkK/F5ICRMQZjiq7ZDMzgK017bQL1YIkiPSj1D2pbM7W17VIbr2UCYwksp83dD+SjB9yfufZWLxpvdpm4gxjJBmsW1aR1oW50WfWYXvyNM0da0wPm7Ibx9LFCr30PVfcAfLjlnlyD1IHN7D5P9B6BTlu4zRVrW3V5r4aMDtbhArR4LyyVm7D6X68F85injd+x/ohUqU/hgpJoeF6gnq1zjVv0RpOcEqb9nr/dHLe9y5cYqEKb4qu18zA2Z5Qsd2zLcYalAbQQp4wE9ySSjtj/LdLODMMVXPku1o1WrKTxpY5lGGObsqvO5v5etDhCm+HYUo+2xAO531FPf+vLk8nljzm6bJUk88Oz1/pZn4xbTv2AmTDle0T2fztzBY3NnsbRTd15x0VhG5uwG4fMweCxdwCiclTDN5k67VMkxF+53jO9OqtGdRWd25egLU40UPXu9v+t5TpRVGXyV0zIvU0j8+XwwvFkb3HCsYHluSfeDzNddVI0+dxeNc4ZUlzQd+TwEfqAqRY0wxTdyZtTrfkfezYWmMhjALemOlqhGt6RblCk7+oYey+VTft7NMNEARgMSHvK633FtcMOy13x1JepCdKkxjDKsnv3RAJ693ncP3+89vvJQrm+Dn2x6LZiAhO+4D3n5EG/7QTN0e3vcJPONayw6WWX0ojRzHXHsJSifhruL+8sDRmnqyOZYnZUw5YPXELf8KF2jbY5e1EdlSr3jdCrLTicSoktXL3Jed+hZMWEBOQpD0xFUmQjT2dneba8/8f0y7Cnpqo9gtPFWqtMSDrNfy8Og+7detf03y8NL23F2WI1PVXks17XBDhPL7SzzYi4XCmuDmwuPh5Sxwf2Q6xa/eJ8eHN26lT/uijTvI13SYDTiYTCOZ6/3hx4PLFOPkYOYT+MzwsTRSsIUT3HV0m8t3yE3t3e342va7hrLraaqCUI0PjkK47NEO6bpSF02e6aWunm9b17o9SdM4VEkTUQfPL7iuKO5vS44f/p8+KrunDURpHJedHdtcHMrS+gEaVw+83fv7i8P2CvFoyxVphpPfAxc1zf2OI9XNyNFXRpzDVQx/75FZJhF/YdjLh149np/03PoRakNdaGxzIsyyFGZoccYOze3d1zSURmpxl1wbhGgZvgMWLig6SgY79+N2dkeDUgPXCkse21xHZI+t+8p3aZtvz9H8r3Jkux/bjb+cD7UEIX5u1SlAfT6k6xWEnNb5kU4I4+jMl/n9i6aQRvD2uDmZcvRk5uNbYT6f29Sddqm0HTE/N1wNJZ4fS7nUJVbmNKAFIgclTn22Hcad3XvY2MYQttBFEiX71EY5u9iKZa6eTU2kWlACiu5ub2NQfHvCdKyMH/XPI2tHzOrBrkNuufmmIBkNJ7Pk/ow5lEZ6aJlUHy5fJuOmL9rH2H60OxsT6NxiMojMDl2ctfyb1mPtWwme6N8GBZK5u9ue/zrOVMankZlamblILsr2BjcEIVPd+NbWXoNbURFWjTm75bBxBnTymCYanRmsW8amEwU8vleBX3ql6VknwP6SBjzd5OhMQGMyjSgbM8zGuNTnb6Rc6uh8DNQKObvpkHrjOnsbI/K9BEaSytUphEYn9vLUn+5mL+bBo3f0ba9G0FYC1POmqZl7HFUZp3lNGhSmL/Lz2M8Gp/TpoZpWAtTjZKdMI1Ejsr4fAC9l65bQIPvUZjOJ3QVROP33swSb2UwTDWeNNZzm/lomdxX6tOMxPEVeGP+bnI0ih5Te9umwnR2tqdVtlOdxuWzz/Qm0lEZZEqh6eiQ+bvRaXxGmzq+ZLGbV+N4DGEakRyVOfb4G6lO4cP3KAxNRxHJyqHGGXD2TBfQeIMI0/hGnnN7af7Aypi/mySVz2fFlUwVhClUyFEZnwaQUcy5vciGz8/cNfN3O6GxrWPm6rWaxTDVWAfncuYOpDK3F3lQmL/Lakg3sjsWUxkNU5V2Z2b0dsbnA8rN7eX7hmUxfzdNGr/jpo7FVBbDdHa298lj762JDtEOfD58deK5BEN1ioUU5u/SdNQBaT7SuN2LMF0SwxvSZnluLxKnNH+XozDd0Go+Mreq8FcDr2Gec4UbBQjTjg3bklUAABFoSURBVLhmpLXBzWFVVYOWr8A1I53IhKWVyd4tlUe+mL+bLo0Vw2uL//qcK9MNJiF1yuuoDM0hmIf5u8nTCFNzS7xV5mFasW/aHeb2IhDm76ZN4w5TwnRZchhX43odwrRDMrfXZ0mGZiR8w/zdtCmesCBMV6TxhhGm3fOpTreZ24uK+bu5UPldtth8VBkPU5XhDeybdou5vVDCUZj0ZTn5qJZ7mFZUpyYwtxetMX83G9k2H1WWw3R2tkcTUiaY2wtPzN9NnOyXatwUY3ZqleXKtFIq6QlTAxTm9rJMVyDm72ZjR+kfQpi2pLVvyhELG3w+2AbM7S0S83fzoDKsQcbNmlRCmFZUpzYwtxerYP5uHqQJVON8qekHI9NhqtgCrbXEAH++c3v5XhaA+btZ0SpmCFNPpwpfg8rUCGlGOvR4NWOakYrgNX+XVQxTst8vrRIJU403cL3XnxCodjC3F4/SmL/LURhTNML0wvJ+aVVQmFYs9dqhMLd3yNzerDF/NxMlHImpmQ9TOW+qMaeXMDXEc27vOst4eVKYv8uqhS1a85DNPyClUJlWSk8lLxQHLUMHc3vxjdL8XbMTcgqlUcRMFYf4BJNKmGo9lXBrhCEyt9enwYzqNC8chcmIFC9tv59NSSzbJxGms7M9rTeTpV57hh7NSBvM7c2DwvzdEU1H5mgVL0kM3kilMq2Ujsiw1GsMc3shfOfvskphj1bxQmWqjKXefI2Z21su5u/mR3GJ99T6kZhaiWHKUq8xCkdlBhyVSZrP/N1T5u+aVEwXby2ZMJWnk7ZHKZpY6jVIYW4v12wlSGH+LlWpTUVMPWpKqTKtFD8w+QW0yef7wtzexDB/N0+9/mRHaYnX3RKTzPc3tTBlqTdjnw9fXfnO7S39PUwM83fzpPX5mtRqU1JhKk8pGku9blYvjUg2ec3tXRvc0IyUAObv5kmuWyuqi7eWWmVaKT6NUp0aJM1IPoHI3N40MH83TztKs3gvUlrirRINU61fou1ef8KHrkGfD1+NPef2Up0axvzdrGl9b5JrKEwuTKWrV2OAQ8WZU9N8finfMrfXJubv5ktOSWwo/QOTW3lIsTKtGOCQP+b2Zov5u/nSqkqTGdTQlGSYzs72jjyaVJpe0Ihkmu/cXr63hjB/N1/KjUdJnhlPtTKtqE7zpzC3d8zcXlOYv5svrcajqeLFJlGlHKZav1hvaEQyzXduL80qBjB/N3tay+/JTjJLNkzlsti2H7IPsQ9jlMLc3vcclTGB+buZ6vUn7kFJY+JRlXKvQ8qVaaX4xr+VNX8YxNzetDF/N3taxUhyZ0ubUg9TzQ9JfmFt853by1GZDjB/N2+yReZzZrgp6YfepMNU2qePlb4cYWqYwtxeqtNuMH83b1pV6VROaSQr9cq0UvyQZF6vfcztTYjC/F2OwhgmVanP97cp+YfdH758+WLgZfjp9SdXSpM37mZnezSrGLY2uHErCActX+E0xZnM/+9//8//8d+/XfxfAy9lVSOPJUA3f5elecN6/cnI89xw0z+mvF9aZRSmrqL8qPTl3qW+3JC7tcGN1sNTEr7853/c/f1f/1mrWzIVPzI20C5p2LxVOlvqJh4lf/FIDsu8mhORKo7JJIH97bwdE6TmDZWCtMplXzyLMBVa3xBGDBqnMLcXdnEUxjipSrW+R25rLYszxITpfFSn9vGBmyeajuzTrEqz+azNJkyVj8lQnRonc3s/lP4+ZOaO+bu2KVelyR+HacqpMq2Un3KoTu3zmdsLe3iAtY+90kdkFabSWq21l0Z1apzC3F7Ywfxd47SrUsLUPvZOCyJze2lGStuUqjQJqlVpiheAPyW7MJXOMJ+h6E2uOqXysc99EF+X/iYkbIemI9tk2pHWgIYqx/GeOVamlfbeKTfK2CbLvVsEanJcRfqO5d0kaH6mHqc+7WieLMNUuTrlgukENAKVJd80uAefrfvLA6aNGdfrT3xnLD+U5fZZrpVppfwNG8oyBwxzgfr58JUbS/aT4sMUdLlq9MP95cEmU46SodmHkmVVWuUcpgGqU5qREuEmJH0+fOWq1B/lLOqF4rhJrO5CzoD/7f7y4Pn95QG/S4no9Sc7iveVVjl/jmYx6P4xvf7EfaD+ovglf8pl9BUALNLrT1wVqXXJgqtKs+3aznmZV7s6rbioGEAp5Io1rSDNfuZy1mEqNJcVNjgqAyB30iOi+VmX3bnSh7IPU6lOtWb2VhyVAVCAseKAhuymHc1TQmVaKVen6yz3AsiV9JpsK/7zsq9Kq9wbkJp6/YkLwIHil6QZCUBWZNXtSnGv1N1XWsSxwlIq00qqU83jERw2B5AbzaajqqQjhcWEqSwzaH5jX0i3GwAkTyYdaa7eXeR0X+kiJVWmLlC17798Lz+AAJA67eArqtgoKkyF9qFhlnsBJE1W2TYU/w3HpfWUFBemAQY5bLDcCyBVsrqmeb1a9gMa5imxMq0CVKcs9wJIlfrybglHYR4qMkzl1oIPyl+W5V4ASQmwvHstvSnFKbUydYE6Um5G2pCzrABgngxn0FzerUq++7nYMBXay70D+QEFALNkOIP2atphyYNsig5T+cafKn/ZE2b3AjBurDycYVr6nc+lV6aVVKeak5HW2T8FYFWvP3GfeW+VX95uiU1HTcWHqfwAaC/3bnNVGwBr5NSBdm/H6exs76T0b3bxYVr9HqgnymdPnQOOywCworFPqnW1WlXqmdJ5CNM/aC/3VuyfAjBkrHwMppIzpe6oYfEIUyE/ENpPWC/YPwXQtUD7pBelnimdhzBtkBsOtLt7txk3CKArgfZJ3SreDt/UPxCmfxZiufc9508BxCbbTCfK+6QV3bt/Rpg+EKi7t5L9UxqSAMR0onyetKJ7dz7CdA75QTlU/rJfz5/SkAQgBhlv+kb5r7oLVGwkjzB9nNvnvFb+mhs0JAEITRqOBgH+GpZ3H0GYPiLgcu82A/EBhCLbSR8DfPkPJc/eXYQwfcLsbO+qqqr9AF96IE+OAKBGgjRE4F3ITVt4BGG6gJyj0j4u43ykwxeAlkATjiqOwSyHMF3OrvLdpzU6fAF4kyA9DzDhyNlhn3QxwnQJ8oMU4snMPUGe9/qTlwG+NoByhBgVWLFPujzCdEmyf/ouwJdeZ4YvgLZ6/clRgFGBFfukqyFMVyDjBo8DfOkNqVAJVABLk1GlIYL0jn3S1RCmK5qd7e0GOH9aSaAyVQTAUuREwPsA79aUfdLVEabtbAWY3+u8kSUbAHiUBGmIs6TOULa1sALCtAV5Ygt1rOUtgQrgMYGD9FC2s7AiwrSlgA1JFYEKYJ7AQeoG2Gvf6VwMwtSDPMFpD8SvEagAvgkcpNcMsPfzw5cvX1J+/Sb0+hPXOLQd6LUcS9MTgEIFDlLX/7E5O9u75eerPSpTHaE6fCsqVKBsEYJ0iyD1R5gqaDQkhRg5WBGoQJkCB2lF564ewlRJY+RgiCMzFYEKlCVCkL6jc1cPe6bKGlcgad/cUDvlgl4gbxGC9JDOXV1UpspkySTkD+k2oweBfMmIwJBBekyQ6qMyDSTCk+W1NA5QoQKZCDi0vsbpgECoTAORvYhQQx0qmeV7xX2oQPrcSlOEIL0OvGpWNCrTwGTJJsQw6lrd2k5HHpCgwBd711jJCozKNDC5DzDEtW011+j0qywrA0hIo2GRIE0cYRqB7FGEDFTno1TBABJAkOaFZd6IIuyJVBLaQ355ALsiNChWBGlchGlkkQKVXyLAqF5/Mq6qahD41fEZEBlh2oFIgUpjEmCINBq5SzHeBH5VBGkH2DPtQKQ9VBqTACNkf/SKIM0XlWmHIi33VOyjAt2RB9pxwBGjNYK0Q4RpxyI1IlT15b8s+wJxyLLuOMKWTkWQdo8wNSBioE6lQuWmCCAgWdY9CnzspcaIQAMIUyMiBmrFsi8QTsRl3YogtYMwNSTC9W1NLPsCiiIv61Zco2YLYWpM5EB19mdne+Nk3iDAoF5/siXLui8ivTou9jaGMDUo0uDrpgupUm9TfL+ALkW4zKKJvgejCFOjIh7wrrlf0hFVKrCcyE1GFYNYbCNMjYs0LamJKhVYIHI1WkmPww6/l3YRpgno9SeuyeAg4iulSgXm6KAadU7lAZfue8MI00RIg8NJxMakiioV+J1su4wiTSxromM3EczmTcTsbM81JG3Jck8sbr/2N+5JRcnkQfYqcpBOpWOXIE0ElWli5AnZLTNtR37ld1Klnif/JgJL6PUnL+XcaBe/azs0GqWFME1UBw0QtVNpzWfpF9mS369h5G2VSrZWdtgfTQ9hmrCO9lErWYJyT+xjfumRk15/siM/27GGLzR9mJ3tsaWSKMI0cR2cR226k65fDpAjadKlO+7o92gq1ShbKAkjTDPR4bJvJU1RQz4MkBrZFx1FPsvdxLJuJgjTjHS47Fu7kEqVUIVpsqIz7PABtGJZNy+EaWY67PZtOpZQpUkJpjRCtIvmohqd8RkiTDMlU5NGHX5gVIQqrDASohXTjPJFmGZM9oNOIo8+m4dQRScMhehUQvSEn4Q8EaYF6Lg5qelUjtOwvIWg5EFy10CIVjQZlYEwLURHA7ofcyGhylM6VBnozm3iwoiCEKaFMVSlVvU5VbcUzVM7fEgn+6ijc6LzMCmsMIRpgeTp/cjQB89UXs+YDx8sS/ZDdyREu5hYNA97o4UiTAtmpOP3IfdEf8SHER4jWxZDCVJLP7uHsqzLKkuBCNPCydP92MgeU9OddCJTraJZhQ6N7Ps3MQEMhCl+J3tOY4MfVJU0LB2xt1oeGTy/Y7AKrWgwQhNhiu8YXfptOpZQZRk4U7KMuysBamUv9KFjqUZ5uMNXhCn+RJbUXKAODL87U1kGJlgzkEiAVsyfxmMIUzzKYNfvY74Fa1VV51QLaUgoQCuuG8QihCkWMr6fOo/rCD6XqpXmJSNkxWPL8B7oPFNpguN2FzyJMMXSev3JrrEzfcuou4LPqVrjk+pzR0LU+gpH01QeIMf8zGAZhClWlmio1q7rYCVc9Ul4bjX+pFB9PkRzEVZGmKK1xEO1VofrlYQry8JLkmXbZnimVHnOw+1GaI0whbdMQrU2rYNV/ns7O9u7svHSuvMgODflTw7f74oQhQbCFGoyC9WH3JGIW/njgvZTjiHbCE3352Xjf6e4XPuUek/0iBCFBsIU6iRUdzNY9lvGnQSsC9ZPjf/eWvyQboRlJVVm878lfL9oLEIQhCmCkSM1bqLSduHv8rUEbNUI2+qR//M87v//8yX+ns0H//ea/+ccq8tVcE4UQRGmCE6GPwylWi35Ax3xnUoVysQiBEWYIhqj908iP9yPi+gIU3RCloB3DV79hnRdSEMRS7mIjjBFp6RarRuWUhlXCDuoQmECYQozEht8jm6dShXKjUEwgTCFScYvhUY3uCQeZhGmMI9gLdp1I0BZxoVZhCmSQrAW4bRxNy0BiiQQpkiWdATX13vRvJSuaeOaPJZwkSTCFFmQwRDNcKVqte2iEZ7FXySA9BGmyFLCl1LnintkkTXCFEWQJeGtxjViVK5hXTSusiM8kT3CFEVqLAvXV4xRvbZ3LcH59Q9zcFEiwhQQsjRc3+O5xU0rc100rpwjOAFBmAJPeHBZ9nMJ2eeZdw8/vKP13Or9rIAVhCnQkiwVN/80L962XNVeyH9v5c+3S83prAXaIUyBwKT5qVaHb9PDS73beLjcWgdk7YomICAcwhQAAE9/4Q0EAMAPYQoAgCfCFAAAT4QpAACeCFMAADwRpgAAeCJMAQDwRJgCAOCJMAUAwBNhCgCAJ8IUAABPhCkAAJ4IUwAAPBGmAAB4IkwBAPBEmAIA4IkwBQDAE2EKAIAnwhQAAE+EKQAAnghTAAA8EaYAAHgiTAEA8ESYAgDgiTAFAMATYQoAgCfCFAAAT4QpAACeCFMAADwRpgAAeCJMAQDwRJgCAOCjqqr/D9SDycgFQoXqAAAAAElFTkSuQmCC" parent="276" vertex="1">
                    <mxGeometry x="2" y="19" width="49" height="49" as="geometry"/>
                </mxCell>
                <mxCell id="289" style="edgeStyle=orthogonalEdgeStyle;rounded=0;orthogonalLoop=1;jettySize=auto;html=1;fontColor=#FFFFFF;strokeColor=#595959;endArrow=block;endFill=1;strokeWidth=2;labelBackgroundColor=#ffffff;endSize=3;startSize=3;jumpSize=3;exitX=0;exitY=0.5;exitDx=0;exitDy=0;" parent="170" source="278" edge="1">
                    <mxGeometry relative="1" as="geometry">
                        <mxPoint x="272" y="189" as="targetPoint"/>
                        <mxPoint x="837" y="252.5" as="sourcePoint"/>
                        <Array as="points">
                            <mxPoint x="302" y="208"/>
                            <mxPoint x="302" y="189"/>
                        </Array>
                    </mxGeometry>
                </mxCell>
                <mxCell id="176" style="edgeStyle=orthogonalEdgeStyle;rounded=0;orthogonalLoop=1;jettySize=auto;html=1;exitX=0.5;exitY=1;exitDx=0;exitDy=0;" parent="1" source="170" target="170" edge="1">
                    <mxGeometry relative="1" as="geometry"/>
                </mxCell>
                <mxCell id="233" value="&lt;p style=&quot;margin-top: 6pt ; margin-bottom: 0pt ; margin-left: 0in ; direction: ltr ; unicode-bidi: embed ; vertical-align: baseline ; word-break: normal ; font-size: 14px&quot;&gt;&lt;br&gt;&lt;/p&gt;" style="rounded=0;whiteSpace=wrap;html=1;align=left;fontStyle=1;verticalAlign=top;strokeColor=#595959;fillColor=none;strokeWidth=2;fontSize=14;fontFamily=Arial;container=1;recursiveResize=0;collapsible=0;fontColor=#595959;" parent="1" vertex="1">
                    <mxGeometry x="720" y="174" width="327" height="378" as="geometry"/>
                </mxCell>
                <mxCell id="178" value="" style="shape=image;verticalLabelPosition=bottom;verticalAlign=top;imageAspect=0;aspect=fixed;image=data:image/png,iVBORw0KGgoAAAANSUhEUgAAAQwAAABZCAYAAADLuBpjAAAAAXNSR0IArs4c6QAAAHhlWElmTU0AKgAAAAgABAEaAAUAAAABAAAAPgEbAAUAAAABAAAARgEoAAMAAAABAAIAAIdpAAQAAAABAAAATgAAAAAAAACWAAAAAQAAAJYAAAABAAOgAQADAAAAAQABAACgAgAEAAAAAQAAAQygAwAEAAAAAQAAAFkAAAAAvk4j2QAAAAlwSFlzAAAXEgAAFxIBZ5/SUgAALM5JREFUeAHtnQecVcW9x8/dTl2agIq4gKJoYiOC5mlEDSpGDdYYSyxRsTwf9lhiJFGjMUqsqCRGnsbow2iMJcaIEWOJSp4FOxZYUHpd6pa7931/c8+cPffuuW132eXJzH5mz5T//Oc///P//6eeuZ7nnOOA44DjgOOA44DjgOOA44DjgOOA44DjgOOA44DjgOOA44DjgOOA44DjgOOA44DjgOOA44DjgOOA44DjgOOA44DjgOOA44DjgOOA44DjgOPApsmB2KZJlqPKccBxIBcHEolE7JJLLhlWVFT0Q2D3Jr4Fzzriiwnf9utf//rvuXAUml+ST4HEsV7xgg1blRfVxnMamH7lxQnhXOTDpsdz1RcFb9Kemr+eyhP8xW7/zCub+4VX0rW3l1izzAtoCscVVl3h/Ki6c8HZfFu2C/WtLfNqJ+zvNdi01j4nTJhQsmrVqtLKysoEz6A9wktanPy61tRh8fv4DF9sPeCvJb8xjB8h7NLY2Di0pKSkF8I3e4899qg+7rjj4mEYF+5YDlx44YW9LrvssiuLi4vHl5WVlcTjcY93Zojq0qWLt3r16g+JdIzBWF8/aHif8qIzG0sTPbBchiojdVBkpdvGN/h8rPRN0fq0uB9NanOovE238N398sVFRd6GRGLtqiOHXO79+fPFE6Z7lTVF3tndy7wRXo1X373UluRZ43k23rgqmR7EfQKLLMF+sVxwNl/lGsFR19kr8tZ791P8rz6KVj2mTp1aPGPGjO+Wlpaesm7duloEwOBDUb0Ybs2aNdUkTMCnKLUByvMfwnNOeXn5yAYc+EwpjIHQC//NJLyHNxy6+OKL+1D3L6HjFLLLeN+Loe+KY4899r8fffRRZzTy5PnGBLviiit6YyAeRmZG19XVeciNZCWosra2VnGrSkF6WwTyGmHEvdg2ZZ43FiL6NCSShDWRlyQjPW6Ja4v0xkSspqKh4VrhrKv1OhWVe6NKSr2D67P0u5Z/vp2AgUmKbDygLy09HS4cFyh6LFyvEWwTgzFt2rSirl27fqNTp07H19fXBy8eRfXkUdwaevxnbr755jcszYU8L7jggi0xANeAq3dYqBSWUZLgkfee4hqJrF27dix1noltMT0WQtmX+m4aMGDAP3l+VkjdDnbjcIB3M5F3NHrDhmT3rHfHezLvU6OMiooKD0NSvjFqz8tgFBfFREe8AW1rQIjb0xUl+9WG8uKYqbisHD1q9BrjTAga22xSkH+LVC99cYt7+ww1wV8ahZeRCDuUuhNpmqO2yGAgSCciXL1ljMLOGg/wBxUuW7asGMM1WIZEtMjJcKg8aVsRdQbDcKXj/tF57M27O8a+T71HfJz3NA2q7iV9PvIygvBiUUk4Nm7cuBJGmJ2YuuxG0iiej9xwww2zlF+oy8tgFIr0aw2faci0kRrNCKAUhf3upZde2p9FrIWFVHPWWWeVIjAnWeXPVbZ3797xmpqaWTIY8pT1mLrIeCxGKOflKu/y24UD3+fdVGjNQk4GA/c88RN/85vfLFcEZzoXGQvkZkTPnj1P5B1q2jsMw0KwUcalRQaDAbZzmzoHEIoBCMShhdLZvXv3wzA2Q61w5SrPlIQBZOJJ/ESEchVlGwl/jr+AaVN1rvIuv104sCMKb6yEjAV+Le/3uZCxCIj4+c9/zhJg0SVMUc4HbpjkgLI1PFu8FuUMRsDeTTOAsuolV/Liv3fvvfeGl3jzIfhkygdzWQlYLifBYxHtSnqj4ZQdyZrGd1h1/x+MSVtPw3KR4vIjOMA7qQgnIxdrea9fhtPCYfIaNa2Ulyy11rkpSaEcbD3Pc9bIS9YKdx0vuNICIxi7zpo1ayTxV2xatie7HXsyQhhJZ2I6BXBq9WUFzy1yCc4dd9xRC+zn2fC7vI7hAO8vXQITpGUcMfCu0+E13WyWlm9rnMHIl1MWLncnbSELfurdouTqCZbgnyN8pkaP/jsfCMID8HkZDOCOxfdRWQREOGQAXmHk8GNtxWVywMUYypayAGpaypZsrKqqqkHTlUxlwunsyvRgUa0ftPegVzO9ISOkdcAsBtf8yZMnp6y+sl1b3L9//xQ5ZC2l3o5oyC/beuuttwJnJxb0ajk3Mp88u3sfrtojvYjRUX8USNuOXfFl0MGufGK16r/llluWphTII8JZh27g2VpnUoTPV87V7FAshc6F1JkXX84///zyzp0796PKnvgu8KZEtLEFugqci2699daVUeTY96E86lInEsOngBI3e/Gqw2YsXLhQQOKrgacOm6URa7HWt1gINZ0J7UiAW+8lFXFQoinQhKUprVlo3VFDjqTmu9kl6dfuuyRJCpcXJxqHd3pizpwJL3r9Y43e74uKvTENmeW+WRvaKqEUFYhv8C645iDvtrbAqRfH+sD5vLxbpMgIkTUYx4P/EV70Frxgs/hIfBqCe/r111+fdQFy/PjxA1GwPwG/p8piJDyU7UZw1VLPNdqOkwD5hmTMTTfd9BxxIywcCBoM/PWU7Y4gxoGpIO955sG3SWBJj3Ss3n8DOE2B9oHG/gB1I8xuvFmYWw8dq4h/gn+U9v4RXI34ovXr148B5DzS4/iE6kMxf8k28nRwHkB8PHh35FmmtpCn9ZSnVF645aQotPcYYL4P/3YgqSeotLtUQpoUQfP8JeCZQfhB2vs6z6yO94JtqjwVIG0zDwRXd8KaEjaCZx3xlfhPUPzrJk6c+A7pkcqmMxPA6F0eDC2DKVtJuU7EiwjLAKzFL4S+V4D7/W233fYJeYHDAA+jbZeS0A+4erxOdGqr2zhw1OLfxWt3JGx4DT2kDSdvK/GOp2SrHjrUfhkoaZdGKApfDl/m88zqwhVkBXSZPgcixaLNuVPBS53Fy30c5R2ngzj+C98dxR9ObVkNBmVGIwTbqwx4pGRSmAcwFj/KRSnK3p1yh6AkPSiToEwMQ6aeOXK9C8XqzOLqZcCfDYx69hIE346KbHWaWvUHt5R5OKOX53gu+eCDDzR6qaLsGMqpTALlUI94D6v7R0P7FGjRSMEIO3DiQ0+VE2IZHEYUexD8De39Nnkx6k7pgUkTqI5MVwEj5TkJ3L+l3A133XXXMmWmOwzQrhjIW6l/nwzt6Une1vidadPj0PEuPkUyfNqOoPx1wO3As1i04dJ5o7YNBs9I/I+ZSt7QrVs3GWczcqFsT/L3h8Yq2iIWJbtQn2jiGlXsyTO9GTahyOeBrVc7Z/ukAS8ifm1aWmQ0UggiIV1ikgMpr6vtmWJfPCcwYyj+ZCmfhEwvHeHpzfNAet4umWr+yU9+UoliHUy+TuWaEQtlXmTI+xFP9WxZHQZJ+RQ1B8eM8plIRKnLL7+cHbuedyHo16AQ/aC1xC9naIZeY7D0tG2AhmJGCAE20sPoY6ofXLuT+Dt8V+BNWVtA8DbMgqx2jl6ivftQToph6FVdtm7BWprAW4TvjhG8mIXcu+Bj0FNbnExBhjF1uJc2jbLtUZ7FZ59KE17qDOhRmhzKXgZt5wD7MH5nH08gORaH6JQTHmCKwdUbQ3UzZe+QwTGZyXxb1j5tlnlSXunpXuWLhDvCpcPG4GEkYHrZgKj0DBfvWA4g1Bpmv4MQTcdwGKESRQjb/jwGZaJOykbenuF8hH8yAtimo0kZLeq6EoE8FWEP6NMogPqk5F9B6+v46XidJF1Pe5SeVebAJcE9F7geaoPaTnmDU+UJF+uIOqOEfQk/AFxn/yh0AEf6ItL/jX+N8Gf4RtEkJwViGiS8PyD/p5oSmgz+waPO5P8I+JF2nUftIa51hmd5F1MAe4z428TrRQ8upT3g0DRrLDA3AV/hG2BjuH1c88h7Ey/ezMWbPCEC3tN0EbizMRrXKA3XCMwG6qvluZZ4+gKnpnEmj+e6NL+WeLM1FtI24JUXwIuH+biUxuZTYLOHycsOt55LCEgRwqctscmETS8rxSS8M0K9lxYL02uR8JN/IOlVKLNRNp4fcHrzeZ3iTIePiktB83EI2xjqOk+wUkI5X4G+pM4zEPp9gDkCfwyKcBBpB0D/FMo0olAZjRf56v16SbnAO5uyF/L8HmVPRIn/AL5F5557blfSJgHX0+eJVbrl1HMl6fuhADqDMpbngcCOxb+JDSYr6aQg4Dqf4f8BNo1RnRYlDwXWJPk0LCf+fcj6IfWfTfgU0rXuMob4kzzrdtppJ9FsHAo/EJq1XtQZWgxvfL7Mo+xplPkO6YeLN8CNIu0MfLXqsk5tIn6OjOJee+01g/xjKaMp117AvEFZQ6BYhSFcQf6V5I/guS/4jQeHplP7AfsPv35jUCmzGrhx+H0EqzLAjQV+nq0/2zPji8tWyOVtfA5Y4UYgXuBlzuI51BckCeHhAwcOfAIqtLYQuB49emhRTesXJk1CSJn/xvBswFfQawWwrQno+xTqOBP8nWzPpB6cut6BtqNYsJwdgX8haa8zZfo2bdOuSUbn4/pfcI9li/fLEODDhBOMbi4QP2zvjVLIkC6i7gupWzDpbi5rAzPJn4JBHKVyhK0CXQSw1lTUw/cA1wCeprzoQJlewuD+C/7ZBV91xWLkIoz2y3xjU8yXvKYAMBpdnISCDtJIQU4GGBxzqO9IpkEzgUkiN7neEh73sdCs9ytjOlh0yUNDL/LOAPfLPPVxoHG0vcaG9aSMFjG/YMHyw3C6wtRVwlrNCvFHOIHVMw7uj9gxeicdPp+4G2Hkw6UwTNCXhBM3Xpj5vlbjH5Hwyslo8MIPxA8O1wqMPvgZjnCOEIyEBIXTUPrxMFyusFXCLHAxaBkmGiys6iKuXZBTMhiLAN2vfvWr1/D+t8RBchCQUINLK/9npRkLwWj7TzJ7NO0MD4WIxh/j6HyUsTC4UZBq8N4I3Erbm4t+aP/ORRddNFRA5OvtBm+YuNKGMDoLzsMYZP4/pkZ1HHTTmRnT4y9evFijihPwBsJXUIV/FmEsDIz+gUNG4bfQJVzGwUsNOUYwyhjiJwUP4Q07n+5wUjicCkwO5Vus9y0uGKbIhTceB1CQOgTiSYaPRtAljPTQXVDa74fn3wi9Vu6PpEczXwpqGEr8cXo600PPmTOnTYhkB6FMSgZ+LdIZnOpFEfDJGLf3W1uJcOFeQPnfisLFPR66MEY9sVEEKQ/xRfg/RcGH01BIraW8AqxJBoeG/hXwcqQSSF+DX2rzZVCA34WFyN8zCtg3jCsqDNz2wOt7DZPtG/l/g+dV3mN4ZBFV/FHoWab2yIk26ND28DeigDsqzRmMQjmfnN4WWqpV8CjRFwjP0xJACZLfg/0Aw2EWBoUcQRtK3hg7usDACPaR22+/3Qylq6qq8qLBV9iMsBzy0bacjo0bGCkXCoHtaHwWpWg1d4QP3K9lIoB8GQydsQhAqHsxPAmG7UFGWoDpwjJgZ+GDHCkofkcl0HZtL2rXJcj3eX0YvH6aHZRnmdqMpZ2Z9GZn8c/SJtyENU2zH4UFeNMDjEC0XjOH9KaGeV5n4tukw1r86entEc/U8Pao29WRJwduvPHGlQjT01JMKZSMAoI5hB5tlFDo4BLpR9Dra+fCzJsR1lclrDzDAphnjZnBULpi8A6wQit6cEsxZjr00+q6hBeav8pEAfVtQV6w9qb2kbaIxcuVmcrYdKY4dcAvow4dVjLJMh7wTIudnqZKZE2Bv5/7o4MAhrTulDkEHv+ZtSBzqCx94Rk6tjYF/H9+WxaAP5hqhPPDYY1AgNfoJuAh8VLKBp1CGL6jws5gFMr5pJwVWqq18BKifyNMr0uQJeQSRtzp+oey9EKYT5QhkSIoD5jHtf6hfLl8pyQahmdzLKJpL1GnFcNgGxjR5LcvFy6VIQztGXGRp63PsNxK+XXNYLPtwwj0Mi6CSyEefMGQgqnQq/DxHHC+IV7b0YbaK/5q5Eb6vqQ/W1VVNQFjrROgxlEmHDZplNPx76YhjQ+b4ZHSBspK2sJtNcX0jjvKNSOmowhx9WbnAEPWagT2ORkLhF7TABmG0eedd552T3TXwUAJtG9QqoH5J0pkV/Y9hDt7BXnm0sNSbaq1oGgZ9YcXIfPEFg2GQmTUCLLq8WGF15pNWXpvH4UZsg0seYHc+1WlbB+xQPo8W6xH0btfDOwntNnw1eKU0VCdGI2fMso7VyM85YE/4HeIRcxmkt9s2PJZnjLGgeMdxqEvo/EMANsxEDCuHev8/11VWFTbsSXqQRGglxCg2TIYEkh0VDdkjUOwT5YhkVMe7h8I9WcKFOpy6T0GSQq7Am9Q+/Xqewl9P5JR0QulIxM87V5BXvjwkoxAf7Y3I3cywnhOO+20cujW7WGGf8pTO1D86jCcwnfeeed8dnx05Fx3oZ5GHe9otBFut28UdBZlgF9+oc1XXGH8lpwcrfDzMz54v5pm9QVnmIe18HtxeiG/3vTkdok7g9EubG6bStjxeBthecNiU0+H+y+E0mxxShEwHvqY6flMXz/asi19gl8fRJhbuYRDBoMeWLeCjaKX3+jyRP2fUae2XU0TpDwo1Rb4b+ZqU9++ffsAM8yWFTz4NFp7N0PZhNY1mKZMYUr3Leq6Gh7rVKUBV1kM7ADav6uP62OlWSfaqGsX3lNvm5bpyVRvCHj1kVtgMCi7GnyfZirTEekb/QV3RKM2ap3B69yotUQiZ9GuBmX5O5krrdASVs9k3qPS8NqOfBOf4tpqDYN1kVqE+iVfGUwdmh5R7zl8hj40pdKNEOFMxEx4MN8qveggrkXLY3NVh/JJ6b9tlVojBsLzUPjACGfCoePoHI66nvKT7CjM8gBadMdIDB58wGhkPsbLoNEUEdpGkp5zSxa4H4Knt3BaR/l50NjMmNm2W7hsTwtrn8Dqs/pgzSZb2ag8ZzCiuLIJp6GcLyBUn1nB0lNeAoHQNaIAL9Mjfp7ehKqqqvSkFsU1NcL9EzokzAaHFJD6t0TxHuKDtMGZEOtINyc9OazY/KOvTGXS0x988EGtNzyLEgZdOe3XbyYcD97T0uFtnHMU20HvFfhusMnwDHpF90P2IBm0b8fW6Vngify4j3tCAI99LJw8DWqf/xuUx+LzctIfSzco0PpLcO5taUl/slU7GphTocushSgfOrV28QxGanU6fIHx5JFTCqndGLOuvL/tC8QRgAfbU0GKC2TnQFMHkB1uI+VyX8JchO8FBOybKGogYBJg0qpZkX+hNVVL2KUE2RxH0GezKHgvMNepXsEjhKp/d2h6ldOJd5H2JFuwX4EvjmJuSfx7wJ/LU8r4QDb8ufKo506E/3iUapCMlRSBNK1N3IbCf4v4Axi0OcTrURD12qMIXwqt22s0JKd2wqu5wN5j6yPcA/9r8I6nDZNo07P4pSxaxoEtZtqwE/nj8KbN4NR0pg74TzCkYloCg3gvsMdT7xbiiegjfyvynua93QoNT5H3FbzR3Rb9oEP3ePwn4f54Q4rwUu5DvHjczFm4ZhlpCVwDkBg0aNBsm6xy8uC/GlqW8w7f4FyNjvdrFPRKPvdhuBGG5Wa+zw6cklgSEaTHecFLpaxhhyC/S96r4bRCw1ahspVDOfS14/3APIHwB72tFAnXHyW4FtreZrHvffLfR0jfJU2KOIj8OOGkZgi6Bc4X7EuhYQ04DQbVje9GffrSVdvP7+LfJvNtDNZknoGxUBloWg/ceHZE5loS4J3oaiB/J2i8k/IzWVR+Cbinef4T/NPJ28NfO7If2z1LXKMO0ybgdEnQ1fhGSxt4VUUv6PgFzxnExY+ZxGfyvA7Y/j7vZFyk0Fo8vTDqYl8hIk+PnI5plM52vC7DZcv4Ya2XPMmI6G1of5vwfSDrlhMhAM5g5MOldoDhxQa1EG6KBKlNAQTpTRR7Bi862N9H0HTo6K+sc2go28yF1zByoG9WNipBSouwXQyuv6BYEnIDJsGnx5JC6kap/qRvTbhUab7ilNFTN5O7ME0+XFS1QRrTrscQ/jOpQyMAky4cft2ipx95A8noYusWjT6sfjbhDAyavjZN53WRlEplVBa/G+VG8dTCZrkMKmUNHsIf0N5rwwvMGNMGyk4B9jL8WgwCj+R0wKdNo3p9vLcN9JbJ+Nj2skUr0M9JP4n2vaRIlAvzKio/lJaAvn/jp6ndtpzq03vCaeSj4+dr8ClnQEI4UoLNXlxKros050C6eDWHKChlxYoVWiwrpbcxPZaexDshSFnfDTB/xEhoyG3KIQSLSXsmU+VVVVXCWyIBVh16yiMoKQtgCFIxwlxh6REM8ZTzAbYODNcXKMGplLmetBqf9qA3s4IpBROdElrCc4A3Jx+XLFmiC2+oIpUm6EyhydaX/qyurn4UXAej4C9YeilrwEg3SgF+Y8xUh3pvwZJ3BOsWD6PcgcFVIWB1kjYmXIJVWeGRAdFTTnnCJTzkn8QI5X9NRuifjPbs2bM1/fgB5d5RmbBRFV/k5VSP+KInBugRcOrKxIzTSvLLqV8fABo6KCcDlLRKBmPqP+hbCq1XgXsWox/DC70PtU1ejjbLuOe1PJEXUCoJLtbGHNC9mW+yZfpbhEtnHCTxujo+6/cHvOy/IgQ3AduTcjrtOCPHHJTrWBPTOdbcCXgNx2WoJDSzCQZNIq7PxO+CHt3Jiaw16LrAV+fPn5+U8AAyGfB715/y8dsDwJ8E7H7g24ZcnXpUW9RzLafOT8D5NHP3x7kaz3yiPWrUqEYuBn4bo3M3ZY0DTsbJLCzyzOq0cwHAWyj+IeA+gLInULcuEOrLU7ItnLp8ZhHt0Idnj/A7sf+YPn16ZG/KnP59rhvUPRdHUlbz+oHg7MxTN1fpV9F138ZHwsPo5GnqrQMu0vm0PcMHgi9yK5mu6juK8juCR2stUnDxZj3xhbxHXfTzEO+v2e5WOnIMxFTg9Sm77kqRoq/Dz0qHC8c1ImVh9SDachGwWmDtQ70EY1oQXUj6dPi3IFwmU7hJUjJBkO4uAW5iTltfAtyE+esT4uSjzkVoN6IU4VyDQVg1adKk5K9Ab+Rm6tQlQ/ueKKguMYaExtX4lZmmatnI0RWEKFIlIwRNRVrdDhYau8CPSvjRDZwN8KiG0cWy9JFONppam8duUSdo0AGxcvGGBWzVn9HwpdeXt8EojXmT6hsT/evbeEieTlB6vBgKOS+3rCgR/5a9NZzPc+6jHz60QdPMvFqQjrVlcY3gyphmxmvb7tbwllHiSjkOdAwH8pqSsERSzOeQTJRiusfc2gwzkEWHpNNhx8qsiSaHsKYIKt+k2tbkmCXpUHr6vNXgKYqhn5So9X82nk+cYp07a95FHXzpzbk4U082PP6yFocFCHGi2jcyhiiTAv4wHuhntJa6IEwa18t7iWKm/Y18xhFusAs7DmwuHMjLYHjri1+qKWk4PlYSKysp5ldBcrk0CyLNbpEDD1fCsjBWVN+joXS+cGzbx1u6YLl3FcHbGrlBzdO2ulqRPitNaxn7CYYq1q5SibFwpMpiBWhSoYKM+vVeCSOcDwB1znHAccBxwHHAccBxwHHAccBxwHGg1RxoNnmIxPjQyuFsJP+IwXw3rzGRXJuwX9UlVwKaimmdQJMWPeVsPlMLP55M5ycizVSlKT2VFovH/MBKbK23quE6b1z3pYnnvUpWF06jjt2pga+e/Hr8KQex5nhMxT6cXUuxcJbOpnlTsrzNT5Ztag9nlKj7j7HvetNslns6DmwuHLAz+OztTXjbeSUVp/CdWyXLjNlh2zqXVU9v3dp6r2vj7aBe6q3j9F0P7zD+H+hFnmlsawJC+NT0Tvjl3kf8dwYjxBoX3Dw4kJ/BKC6q8xrqNni18UqPLQLbSW98FqGhMZYiY95qry6RXGzlhjpWJmtJ4SdkNj4FKTXIYGhVNNHuNaeQ4SKOAx3FgfwMhqGOnt4M1pMj9vYhOENd6dOF9iGm/exkRHs4FVmy2267deU7DDPE46ShYU74O4aIYi7JcaBNOaDTDM5t4hzQPRIjRoz4BacC53My7zN5vif4lG8DqjmSfdgmTr4j72vEAWcwCn2ZGQY9haIpBJ4LgPtxlPcYviPQ73HoOwBdNdeHI77dSTuzEFwO1nGgNRxwBqM13GuHsroNGwOxN4Zhe75BMF9N8g2AefKdgyg4kMtetm8HUlwVjgOpx58dP/LggFlByAOujUC23XbbCs6pH8doIhIj6eb3PCMzXaLjQBtzIFoK27gSh67lHGBkMZjSB/G1pEGij1zkrWP0EQPmmFNPPTXnVfa2jHs6DrSUA85gFMq5Jl0ttGSL4PlM+2h9Xq1piEYZGIsvQTSLp7Eg5Ct9EHcujG5RBa6Q40ABHHAGowBmtTfoySefrCviTuCiFFO1blnC/R1/N7skq+1Ig1FGBaOMnNfsGyTun+NAKzhQwDmMVtTydSrajmsY/fr1+y5GwlxeK+OA4WCg0fgGo4qnYOk5+F5iLWnYi+K9tfjJXZCfKi2T47KUIs5ydOHmLQYuZbpSy1wrwCjFdB7EjXXiglhzUI4bsUw65z50S5Tq0g8ZredXwdbqshrok1ETbcVs+2r8tVZ5SotymkJdeeWVfbjdStfdJVi4TWyxxRYaLa0JXyRzwQUX9KDOct2uzQ1YMQxknO1kwTRwi1UpN2MNgI4dKKeLf+cuWLDg3SlTpphVYFuv6oIn+i3WPtA9DB7pHk3xajFTvE+pfy5XJK6bPHlycr5nC7pnRg44g5GRNRky2ndK8iM7ivD1WRfEzuSw1gJub3qTvCFSAFFKWDdPH0rwtgyUm2SMhS7mvZmt2jEkrEcRU8B1v6QcuMwTOPO0/4BPoGwPEL8C2FNRvp+JBtJltcoxZhPJu97Cpz/HjRvXHcX/G2dIBpAX54eRytj9mUF4PD64ag58k8B7MDhroaGU9s3FeJ2FAfgK+i+DvpMxFH3EH8JL+VWz4yn/At443SwF7AGU188cjsY46NfXbbbKyPS/VVlZ+RCwU7nG7qsg0wUycsBNSTKypmMz9MM7CPhou9jpU/M2iqTvWOT0UwOmZ0SxdKlsV8HTA3O9UGankQDwvcDTg6d+L6QgD2bdeF3p19CF8lsR1jmRLVHOXjx1l2dGt9VWW+niXxktXROnMvoZQfmUzov26O5L/Sq9YHT2RHeMbkfa70i7EPg+unFbnrh+48MYTlXM6EQ/qnQPsFPJO5qk7oLTtrT1pMl6DAdmIrB/wQDvTdy5HBxwBiMHg5plt9OUBIX+IYoiJbG7ImtRolfsr3Qh6NPoJfUr7QGJwO9cU1OTU/DBqcsug5ujVUeUF0zY+zC6JPg+v1L97oXmSQEcCpr8mjmgKjXAfZviYL0tQ5tUt36xLYWztCvAq1kSMGWkjee5v+Iqbx1putHWlMfQbg3vppB/Er6zDK5g4U1w4zf5pqjw+LiGk/8AP0KU8/dZbZ2b67NJ2jZXDhTa7qZRbaEl84YfPnx4KUJ+lARdDmWQn0vwNZPAP26YXo2ePG8NBmEpxjZk7Wdhop4ohkYlX6Kgc3h+jP8Q3B/g3yP8vk3jOQ8fKL9oYApQhwJeF3W1PrCFuIK4KD7gB9LGvXl2hpY47VgOPYvwq/GB9SD8UwgZDaxu+ja8I2054UcZZZzJCONE2nALOHRbujEywk/+YJ7X6qBcIQ3Z3GBThoGbW+M31fbut99+ugp+B/W+1hF+b+7cue/YuJ4I+MMIvRY/Nc1QL6rfFNmHK+W3Ramrw7A2zKLoIqYt5xGP7Cy23HLL+EcffdSFXngCuNSjmx6aYbumPQ9OnDjxLourJU8WGVtSTGV03kTPldD0O5T+aeLL4NOWjBJ2gdaF/EziWPKPI1/THjOqID6H/LPhx3Mq7Ls/sr5xN2UeIj5C8PCyCHz/MXDgwMNJe8ICumcqB5zBSOXHJhFDCX4AIebHgxBqnbNYhdC/4P/WRUAjOwWvs9swkx50d39orR51NwCG4yMNBukJDEZdgKR5IMZ8Xh+0jVOWel8thIL/DZT0kubghaWw2Bljh6awQkDDA40C9ANI41kE/QNtsKMKjYqeZ+elHwbtStrfCzrNyALaSYqfyYLmtPQKMZyfY2CuBu+TwFTIwPDsSfmDgHUGI51hfjyyl8kA65LFgZSZdtuzhDn4YIT42wh7MDQmrJ/2ez69NikNsI/6Pa9RbuI98d/Rb2Ckw+cTp9w3qWsCOCpkLDBGMhYrCZ/Xhp/S58PFFBjRgXuCbdhnQ8YiaBLpg1D6vaX4choR4f4SZSyUIUebXsNIzKW9Jk6bxfMdGKHp4z7nIjjgRhgRTMmaVNDsOyumyEymAociuOotTT7CHEcJ/sXZhtlRBVCUPzEC+JlVcMFQZn+UYVuC+oWsvB3GSrsSN6BsQzj/YIb0UiZwXUL9bzGszxtXJkDwSqPz4WIAIxowWuLDi/wg0ZII3PoVt2HQOdDmyXDgn9XII+q3XAVH+moWYZdgjIbacuDpBe/7El9q09yziQPOYDTxosNDKKw+X9dvhXazxDB6qGWIPU2HpBiKd161apXNMk/gFxF4FaE/UFuHlJXB2AXB/xY98cdRvXEKglCEui6TwcIImSG9dhOo+x7OSmitJNl1h+DbK0hbVJUWP+ZF1cl3NDo6PxDDGRMP5PSkPZeSfq7So8qRrjnLdtY4C4a6dBClaxS8S0vb+3YMyYMDG1FtUPoRCOzOCLl6R0MMBkC/bXo9PeE1pMc4gZlCJHByfTRvlyNshuOU+x6K/xRJea0ychHPsdTzE6twGtKD4zXKT8TorBPutnD+GkY+XEyHWUv7I+ngRCisK+mhkUjYAT9U/CjEAV+CATHzmULKbS6wboSxCb1pBH5/BHZAWMgJa3twGylDOD1Mdnq6RhmkHYTya4ie02CwY7A9+O8UHnmtiaBs+gHjG9gV+TRcVweGdXYkUvsxosXkNTuwRpvswqjaZayJ+CindsoR1xkOG8Zm6tbp6B0kA7SZ/3MGo1ABSMpWoaVywl911VXboKD7AlhqhVmFrDBnQyCYcBkNsRmR9ODMwSF8d/Fhtm8l9IEb5XV6sq/K+fXVEb4LY/FMtnpbkZfPYnvenIbWBhR9TZge2qFFoCd46gwGj1R06XG/rAzGQvyCMC4XbuKAMxhNvOjQEMq9B4K6a1jxiVsFzos2etnAcChM+eM4in03hZPzlQgsfOB2I8n7alQipzqh4TnidxCN7NENIP9Qumb5lA12dyxc+Ll48eIK1mK0VhNOblUY3jUwhVqhkZGcjAHhYgzJLWyf/qtVyF3hFA7kY+lTCmz2kbaT84CVjAJ0enF/lLW3FF1OC44o1WOk74Lgj2CNYs+wV5o88HuRPhJ/FLDzrdIQl/LvwTmNEUFFaQGmIqcDryPUpvv1jcUcjMVV+WyhUr/WFOJSUDnRDs1DTCTDP0Y+g8kK2pkBTMl5c5qdkzponwvd/GB2crQlPuBHZ8HvslrAATfCaAHT2roIc/AqBH6/CLz38O2IjmzndBxC6oayPIeSnIYim5GGlAYlOonCzQ4uYSz2AP5ylFwfoRn8wNew7nENZxfyqhP45eBYR3ntLOjgkx4jLr/88p433nhj5NoJi5On0ladrBRsWzlISHwC3nn4bWmz2S2ijjM4UzGJ7eB8tkhjGO6SbNO3tiL2/zMeN8Io9O2lToULLd0Mnh0IvYPhCPduEnQ5lEoC/wnbmdqlyMvxbckalH0aPljEI6zh+RFsyQ4IIzn77LP7Ev8ZedtbxUX50ff4JNYtHgjDZgujpPPBoUNlBky4UNhtwHN11DcZHAr7MYAn2nZmw01eQZymzk+h42VLC3HxcRvouR/jmHXUo69bMXKncXL2yBw0bfbZboTRwSLA1mclyjpGRoK5uKFGYQT+CYxJ5DZiBpI1THgXXDNRml01JZECM7fviT+aPHNPhi6fYURzNjCHS6msA1ZTi0GMVCYTLiEcOSUgXaODlznIdT90fgyOWSjlDiE8MhrncnnxYLZqHwb2S2jqR76mTIdjZHShjQVvsyejouUYpD9R10F4s4DrT8sOo95hjDQehZa/cfaimmcDNGgdZSh5+0PEGBk6wje1GUFfU0TOYBT6YttY1hFabX0eZHtdhNYcOiLtL4WShsGpRolfQWF2tWVRDinwCcS1iNlIL3oIzwvx5mtOnsZBRxl1H0NEpyb91KYH+abl5DVCq3r/+zXtQEn/TPg/SO+lugSGESkH1xE6BEaeysnIaEVSdWqqonMOuY6uF8zp6urqp/l4bArtH0/95aJFNOGGkHYpvLmIeB3pGsqVkVZCWLSVQvMGwk0WVKWca8aB5pLRDIQElpLM0nMM8Pb2Ot6fYF+8wr8Um0OIUMQXWfzvKA83othUaJp6e4T1YEYAZhFQxoKw0MxAAfVRVUFu0qRJaxD8lxH8GpTBvDIpDHhHcIp036lTpxaDd29tufrpydfqv17K6TxDUZRXnp+fMvrg/o0/AK+ToOttnSIa2Bi0qH1lhEuptwiYhWT9J88FGkXxtF6wKTyljOBtvlAaFApkcvo4j1u5fk7+fdCyOkwPdGjOJVp0irMHXj/PYGkTShnK5JxQMeciOZCfwUgqSJEn5e0YH/NW1CRpVb/EbqNn+isTTjUcSs/m041MNthwni2nNBmsNnD0wN0R0hMQYmmD8RJywo+vXLky5X7KfKuj938L2Pd9PEbhpJz404877jj1oEYpbH2FPqXEuEButEi4ZMmSS2jDpeS9A75GGT2MkjF+qhu3Ej8VfzgG5glo0+nVoM2UK/INpWCNU1oYhnBePIeedbNnz/4vjMFZ4JhOuTqmIYYW7Tz5vDC7UIrj6oF7D/hbiYtG57JwIL8pSUnXF734+sO8RAN7fQwx4gxJi/1tr0Rx6jBOyiwXjydxx8yFLc1JaCRfwhTjV9klwnzjlAKUaPCFspSrkhL1XkPfr0x+Hz4KWupdDPT1eJUFDzkKyxX5T84gmbgdDXCA0cSLM5xJyB9PCXXMMrha+Q8l0RrFuSxOFjPfNvSrZ0XpP0DwW9Tb9erV63M+qjqdtZG+KIduxCrVFAIlldLKgPyOvBeoz+CXYvrNME/KNGjuH3ZSLOFRGvBx8jVSCNwULt+dMGHC3fTu/4OCDmNqtCNlKunV4/h5lJ2Jn8c6w/pR/Kg0vxN7LG3WUEr0yTJod2Z2gDAZuIS0X+HrRCNKv4HgJ2kwkVH/GoBHWMz8G+3ZgfaPBFBH7vuBS07G+EviH5L3IUfLv+DI+jLa0CKeRxLhEgvlgI7iJo/jFloyFT43Hia7OXsfweSCy5UvuvKBSaW/w2PiTU7+5AGTLx41OFd9ufKFo82cjFIWZNnyshRzWY4DjgOOA44DjgOOA44DjgOOA44DjgOOA44DjgOOA44DjgOOA44DjgOOA44DjgOOA44DjgOOA44DjgOOA44DjgOOAy3nwP8BF+4B9n+RnlsAAAAASUVORK5CYII=" parent="233" vertex="1">
                    <mxGeometry x="6" y="5" width="144.54" height="48" as="geometry"/>
                </mxCell>
                <mxCell id="279" value="" style="group" parent="233" vertex="1" connectable="0">
                    <mxGeometry x="17" y="69" width="293" height="132" as="geometry"/>
                </mxCell>
                <mxCell id="258" value="&lt;p style=&quot;margin-top: 0pt ; margin-bottom: 0pt ; margin-left: 0in ; direction: ltr ; unicode-bidi: embed ; word-break: normal ; font-size: 11px&quot;&gt;API Management&lt;/p&gt;" style="rounded=0;whiteSpace=wrap;html=1;strokeColor=#595959;strokeWidth=2;fillColor=none;align=left;verticalAlign=top;fontStyle=1;fontSize=11;fontFamily=Arial;dashed=1;dashPattern=1 1;fontColor=#595959;" parent="279" vertex="1">
                    <mxGeometry width="293" height="132" as="geometry"/>
                </mxCell>
                <mxCell id="263" value="&lt;p style=&quot;margin-top: 0pt ; margin-bottom: 0pt ; margin-left: 0in ; direction: ltr ; unicode-bidi: embed ; word-break: normal ; font-size: 11px&quot;&gt;OpenAPI Definition Endpoint&lt;/p&gt;" style="rounded=0;whiteSpace=wrap;html=1;strokeColor=#595959;strokeWidth=2;fillColor=none;align=left;verticalAlign=top;fontStyle=1;fontSize=11;fontFamily=Arial;dashed=1;dashPattern=1 1;fontColor=#595959;" parent="279" vertex="1">
                    <mxGeometry x="10" y="33" width="107" height="80" as="geometry"/>
                </mxCell>
                <mxCell id="264" value="&lt;p style=&quot;margin-top: 0pt ; margin-bottom: 0pt ; margin-left: 0in ; direction: ltr ; unicode-bidi: embed ; word-break: normal ; font-size: 11px&quot;&gt;Azure Managed Identity&lt;/p&gt;" style="rounded=0;whiteSpace=wrap;html=1;strokeColor=#595959;strokeWidth=2;fillColor=none;align=left;verticalAlign=top;fontStyle=1;fontSize=11;fontFamily=Arial;dashed=1;dashPattern=1 1;fontColor=#595959;" parent="279" vertex="1">
                    <mxGeometry x="143" y="33" width="116" height="81" as="geometry"/>
                </mxCell>
                <mxCell id="285" style="edgeStyle=orthogonalEdgeStyle;rounded=0;orthogonalLoop=1;jettySize=auto;html=1;fontColor=#FFFFFF;strokeColor=#595959;endArrow=block;endFill=1;strokeWidth=2;labelBackgroundColor=#ffffff;endSize=3;startSize=3;jumpSize=3;entryX=0.5;entryY=0;entryDx=0;entryDy=0;" parent="279" target="266" edge="1">
                    <mxGeometry relative="1" as="geometry">
                        <mxPoint x="217" y="186" as="targetPoint"/>
                        <mxPoint x="143" y="135" as="sourcePoint"/>
                        <Array as="points">
                            <mxPoint x="143" y="149"/>
                            <mxPoint x="198" y="149"/>
                        </Array>
                    </mxGeometry>
                </mxCell>
                <mxCell id="280" value="" style="group" parent="233" vertex="1" connectable="0">
                    <mxGeometry x="17" y="227" width="293" height="128" as="geometry"/>
                </mxCell>
                <mxCell id="259" value="&lt;p style=&quot;margin-top: 0pt ; margin-bottom: 0pt ; margin-left: 0in ; direction: ltr ; unicode-bidi: embed ; word-break: normal ; font-size: 11px&quot;&gt;Event Grid&lt;/p&gt;" style="rounded=0;whiteSpace=wrap;html=1;strokeColor=#595959;strokeWidth=2;fillColor=none;align=left;verticalAlign=top;fontStyle=1;fontSize=11;fontFamily=Arial;dashed=1;dashPattern=1 1;fontColor=#595959;" parent="280" vertex="1">
                    <mxGeometry width="293" height="128" as="geometry"/>
                </mxCell>
                <mxCell id="266" value="&lt;p style=&quot;margin-top: 0pt ; margin-bottom: 0pt ; margin-left: 0in ; direction: ltr ; unicode-bidi: embed ; word-break: normal ; font-size: 11px&quot;&gt;Topic Subscription - Cloud Events schema&lt;/p&gt;" style="rounded=0;whiteSpace=wrap;html=1;strokeColor=#595959;strokeWidth=2;fillColor=none;align=left;verticalAlign=top;fontStyle=1;fontSize=11;fontFamily=Arial;dashed=1;dashPattern=1 1;fontColor=#595959;" parent="280" vertex="1">
                    <mxGeometry x="143" y="33" width="110" height="81" as="geometry"/>
                </mxCell>
                <mxCell id="265" value="&lt;p style=&quot;margin-top: 0pt ; margin-bottom: 0pt ; margin-left: 0in ; direction: ltr ; unicode-bidi: embed ; word-break: normal ; font-size: 11px&quot;&gt;Webhook&lt;/p&gt;" style="rounded=0;whiteSpace=wrap;html=1;strokeColor=#595959;strokeWidth=2;fillColor=none;align=left;verticalAlign=top;fontStyle=1;fontSize=11;fontFamily=Arial;dashed=1;dashPattern=1 1;fontColor=#595959;" parent="280" vertex="1">
                    <mxGeometry x="10" y="33" width="110" height="81" as="geometry"/>
                </mxCell>
                <mxCell id="293" style="edgeStyle=orthogonalEdgeStyle;rounded=0;orthogonalLoop=1;jettySize=auto;html=1;fontColor=#FFFFFF;strokeColor=#595959;endArrow=block;endFill=1;strokeWidth=2;labelBackgroundColor=#ffffff;endSize=3;startSize=3;jumpSize=3;entryX=1;entryY=0.5;entryDx=0;entryDy=0;exitX=0;exitY=0.5;exitDx=0;exitDy=0;" parent="280" source="266" target="265" edge="1">
                    <mxGeometry relative="1" as="geometry">
                        <mxPoint x="31" y="187" as="targetPoint"/>
                        <mxPoint x="178.99999999999977" y="222" as="sourcePoint"/>
                        <Array as="points">
                            <mxPoint x="143" y="74"/>
                            <mxPoint x="143" y="74"/>
                        </Array>
                    </mxGeometry>
                </mxCell>
            </root>
        </mxGraphModel>
    </diagram>
</mxfile>